{"glyphs":{"\u0000":{"ha":1361,"x_min":0,"x_max":0,"o":""},"\r":{"ha":1361,"x_min":0,"x_max":0,"o":""}," ":{"ha":1361,"x_min":0,"x_max":0,"o":""},"䈈":{"ha":1361,"x_min":158,"x_max":1042,"o":"m 832 406 q 849 371 832 396 q 867 332 868 342 q 863 321 867 325 q 818 315 854 317 q 772 317 782 314 q 747 341 751 321 q 747 386 742 361 q 744 496 751 428 q 738 574 738 529 q 758 631 738 619 q 781 638 764 635 q 815 644 797 642 q 842 646 833 647 q 853 642 850 644 q 855 632 857 639 q 851 620 853 625 q 843 607 849 615 q 825 567 825 575 q 857 558 825 543 q 899 596 882 571 q 938 672 926 638 q 940 708 942 685 q 944 754 939 742 q 965 785 947 761 q 1040 897 1031 871 q 1042 903 1042 901 q 1029 915 1042 911 q 995 917 1017 921 q 967 904 974 914 q 933 846 960 896 q 893 796 913 806 q 878 792 889 793 l 863 797 q 857 799 861 797 q 781 803 799 819 q 781 779 768 792 q 814 758 786 774 q 844 739 842 742 q 851 728 850 733 q 811 688 856 706 q 749 688 763 668 q 740 728 743 696 q 725 763 738 757 q 696 756 704 771 q 692 728 696 754 q 686 701 689 703 q 582 694 681 696 q 458 697 483 692 q 440 708 444 701 q 432 733 435 715 q 428 757 429 753 q 400 775 424 776 q 383 760 386 774 q 385 729 381 746 q 379 682 390 693 q 319 688 360 663 q 308 699 308 694 q 314 713 308 704 q 336 732 319 718 q 354 749 351 744 q 353 771 357 754 q 340 782 350 782 q 318 776 329 782 q 294 763 307 769 q 277 756 282 757 q 264 771 272 756 q 251 799 258 779 q 237 837 243 818 q 223 875 231 856 q 211 903 215 894 q 202 919 204 915 q 194 927 200 924 q 178 929 188 931 q 163 922 167 926 q 160 904 160 917 l 160 894 q 206 792 164 888 q 213 773 207 788 q 222 753 219 758 q 228 737 224 749 q 233 719 232 725 q 235 702 233 713 q 235 683 236 692 q 231 663 233 674 q 219 614 218 626 q 225 593 219 603 q 248 574 229 585 q 276 561 267 563 q 295 568 290 558 q 294 590 300 578 q 286 605 292 594 q 278 621 281 615 q 276 633 276 626 q 283 643 275 640 q 307 644 292 646 q 381 614 372 640 q 383 492 390 604 q 375 368 375 381 q 376 337 376 347 q 368 317 375 326 q 334 302 360 306 q 288 303 308 299 q 276 331 258 308 q 306 358 282 338 q 317 370 314 367 q 324 377 321 374 q 327 382 328 381 q 326 388 326 383 q 309 410 324 403 q 276 411 294 417 q 204 317 228 396 q 199 278 199 297 q 200 249 199 260 q 207 210 201 239 q 217 139 218 160 q 204 93 215 126 l 203 89 q 200 82 201 83 q 214 13 178 11 q 228 17 222 13 q 237 26 233 21 q 244 42 240 32 q 264 121 254 65 q 269 145 268 142 q 276 153 271 149 q 306 158 283 157 q 335 163 328 160 q 340 179 342 167 q 333 193 340 188 q 304 204 325 199 q 268 219 274 213 q 271 240 256 232 q 325 259 294 254 q 375 253 356 264 q 384 223 381 247 q 396 183 388 199 q 421 176 404 168 q 443 231 433 183 q 454 264 450 261 q 496 268 458 267 q 665 267 586 271 q 679 261 676 265 q 690 232 683 257 q 704 188 696 207 q 724 171 713 168 q 740 181 735 172 q 747 198 746 189 q 749 225 749 207 q 752 256 750 247 q 764 269 754 265 q 807 280 782 279 q 854 273 832 281 q 892 250 876 265 q 908 218 907 235 q 883 172 908 210 q 860 133 864 144 q 860 110 856 119 q 875 101 864 100 q 907 124 885 103 q 939 135 933 147 q 944 105 943 126 q 951 70 946 83 q 971 57 956 57 q 996 92 990 58 q 1000 122 1000 108 q 998 150 1000 136 q 993 174 996 164 q 983 197 990 183 q 972 217 976 210 q 958 242 968 225 q 932 300 936 282 q 928 346 929 310 q 915 410 925 392 q 871 426 904 428 q 832 406 831 425 m 594 646 q 672 643 649 647 q 692 631 686 640 q 694 563 703 607 q 668 513 686 518 q 535 511 642 503 q 482 513 507 514 q 444 517 449 511 q 432 572 436 533 q 435 626 428 611 q 469 642 440 639 q 533 644 485 643 q 594 646 582 644 m 496 472 q 549 467 499 472 q 611 463 600 463 q 644 466 615 463 q 676 469 672 469 q 696 375 692 453 q 694 319 699 329 q 657 303 689 308 q 540 300 626 296 q 438 319 453 304 q 424 371 425 331 q 431 432 424 411 q 450 465 438 457 q 496 472 463 474 "},"一":{"ha":1361,"x_min":50,"x_max":1251,"o":"m 57 422 q 131 360 67 381 q 364 344 200 339 q 747 376 500 349 l 824 383 l 953 389 q 1143 403 1100 396 q 1235 436 1217 413 q 1250 482 1250 454 q 1167 542 1247 531 q 1050 540 1138 546 q 874 546 989 536 q 864 547 869 546 q 856 547 858 547 q 847 549 853 547 q 754 553 790 554 q 658 538 718 551 q 580 524 606 525 q 478 531 554 524 q 328 538 378 539 q 240 530 286 538 q 148 508 193 522 q 76 472 103 494 q 57 422 50 449 "},"丁":{"ha":1361,"x_min":49,"x_max":1261,"o":"m 142 1058 q 89 981 125 1025 q 51 904 50 932 q 58 875 51 894 q 70 844 64 863 q 79 815 76 826 q 115 711 92 783 q 149 614 139 639 q 197 467 171 550 q 246 321 224 385 q 283 213 258 286 q 326 86 307 140 q 357 0 344 32 q 394 -112 388 -78 q 414 -156 401 -140 q 453 -189 426 -171 q 596 -250 504 -224 q 613 -256 611 -256 q 622 -256 614 -256 q 640 -255 631 -256 q 651 -254 650 -254 q 658 -251 651 -254 q 708 -226 683 -240 q 747 -202 732 -212 q 792 -170 763 -192 q 840 -136 822 -149 q 907 -82 886 -104 q 983 57 961 -24 q 1010 133 994 96 q 1082 342 1050 239 q 1121 450 1093 374 q 1164 583 1149 526 q 1246 847 1204 740 q 1251 863 1247 853 q 1256 876 1256 874 q 1258 886 1257 879 q 1260 899 1260 893 q 1257 915 1260 906 q 1174 1028 1244 988 q 1098 1060 1136 1049 q 1015 1076 1060 1071 q 913 1078 969 1081 q 802 1076 856 1076 q 710 1076 749 1075 q 619 1076 671 1076 q 510 1076 567 1076 q 297 1079 369 1074 q 272 1085 279 1081 q 226 1119 261 1092 l 214 1119 l 200 1119 q 142 1058 163 1103 "},"七":{"ha":1361,"x_min":19,"x_max":1325,"o":"m 553 1021 q 554 949 543 985 q 581 899 560 933 q 608 843 603 861 q 609 815 610 829 q 607 779 608 801 q 606 747 606 757 q 622 654 607 726 q 617 535 639 571 q 528 501 590 494 q 460 510 463 510 q 222 442 392 507 q 26 338 53 378 q 25 315 21 326 q 44 288 29 303 q 76 262 60 274 q 106 244 92 250 q 124 240 115 240 q 178 261 138 240 q 208 276 199 274 q 289 283 222 279 q 388 307 335 286 q 447 325 426 321 q 542 344 533 343 q 613 315 593 347 q 632 215 632 283 q 619 60 633 163 q 606 -107 601 -79 q 625 -174 610 -140 q 660 -224 640 -207 q 703 -239 679 -240 q 731 -235 718 -239 q 814 -103 788 -212 q 833 -15 829 -42 q 829 76 836 11 q 829 185 821 158 q 833 194 831 186 q 840 212 836 203 q 847 228 844 221 q 850 236 850 235 q 839 275 850 243 q 822 338 822 318 q 833 369 822 356 q 863 389 843 382 q 900 399 882 396 q 944 406 918 403 q 1047 410 964 407 q 1147 417 1131 414 q 1213 435 1179 421 q 1272 466 1247 450 q 1307 496 1297 482 q 1310 540 1324 519 q 1186 588 1286 575 q 1085 592 1128 596 q 1000 569 1057 589 q 900 544 931 544 q 856 558 876 546 q 823 599 831 575 q 818 671 815 622 q 829 824 824 778 q 828 979 843 928 q 779 1058 815 1025 q 696 1097 743 1090 q 603 1082 642 1104 q 553 1021 565 1060 "},"万":{"ha":1361,"x_min":249,"x_max":872,"o":"m 647 1089 q 682 1069 654 1083 q 725 1038 700 1060 q 763 997 750 1015 q 772 981 769 986 q 779 967 775 976 q 781 954 783 958 q 771 949 779 950 q 719 961 761 949 q 657 975 674 975 q 624 963 640 975 q 606 936 607 950 q 615 921 606 928 q 633 911 624 914 q 661 904 643 908 q 668 903 665 903 q 729 879 700 894 q 767 849 758 864 q 758 799 774 835 q 718 736 743 764 q 685 713 700 717 q 676 712 679 714 q 669 714 674 710 q 661 719 664 718 q 654 726 658 719 q 648 735 650 733 q 642 745 646 738 q 637 756 639 753 q 631 767 635 760 q 626 779 628 775 q 594 835 607 821 q 557 851 578 853 q 529 844 543 851 q 494 792 519 839 q 425 701 454 713 q 406 701 415 697 q 353 746 381 710 q 324 806 325 782 q 330 824 322 817 q 374 850 338 831 q 426 881 415 872 q 451 917 453 899 q 438 941 451 932 q 410 944 425 950 q 372 921 396 939 q 340 897 349 901 q 326 896 332 893 q 320 928 315 903 q 334 976 325 953 q 346 1003 343 999 q 392 1035 353 1013 q 425 1056 413 1047 q 442 1088 450 1074 q 418 1097 436 1099 q 384 1091 400 1096 q 357 1081 368 1086 q 282 997 308 1056 q 253 865 256 938 q 274 736 250 792 q 344 658 299 681 q 363 649 358 651 q 374 639 368 646 q 378 622 379 632 q 363 569 376 607 q 347 528 349 531 q 338 455 339 501 q 343 369 336 408 q 382 275 351 319 q 407 241 388 265 q 443 196 426 217 q 475 149 460 175 q 494 106 490 124 q 494 58 497 88 q 488 12 493 24 q 463 -7 482 0 q 415 -25 429 -17 q 401 -47 400 -33 q 450 -68 404 -78 q 480 -66 472 -62 q 494 -85 488 -69 q 511 -133 500 -94 q 540 -207 528 -192 q 599 -240 560 -232 q 713 -220 653 -253 q 788 -143 774 -187 q 784 -66 797 -111 q 749 -22 771 -21 q 728 -44 733 -22 q 728 -88 728 -50 q 729 -132 729 -126 q 669 -178 721 -176 q 593 -153 628 -181 q 567 -114 581 -143 q 556 -68 553 -85 q 563 -57 557 -60 q 594 -50 569 -54 q 635 -3 668 -36 q 597 7 626 6 q 569 11 576 8 q 553 28 557 15 q 549 56 549 42 q 554 94 550 71 q 575 140 558 119 q 629 182 588 153 q 688 229 671 210 q 719 290 704 249 q 754 481 758 397 q 726 589 750 550 q 706 628 710 617 q 708 653 703 640 q 740 689 714 667 q 783 726 778 718 q 836 819 804 747 q 849 974 871 897 q 735 1104 824 1053 q 692 1119 714 1117 q 660 1117 676 1121 q 647 1089 629 1106 m 553 740 q 588 708 571 733 q 610 654 606 682 q 594 601 615 622 q 543 592 574 581 q 478 632 506 606 q 468 647 467 640 q 493 696 468 658 q 533 740 518 733 q 553 740 542 744 m 424 566 q 450 576 435 579 q 484 555 465 574 q 507 518 503 536 q 474 483 515 486 q 444 489 457 482 q 423 508 431 496 q 415 537 415 521 q 419 559 414 553 q 424 566 424 566 m 669 549 q 652 508 669 528 q 613 489 635 489 q 590 499 599 488 q 582 521 581 510 q 599 548 585 533 q 626 569 613 563 q 655 571 642 578 q 669 549 668 564 m 476 414 q 460 372 478 394 q 428 349 443 349 q 406 372 410 350 q 417 414 403 394 q 436 425 422 419 q 463 429 450 431 q 476 414 476 428 m 626 435 q 647 435 638 438 q 676 389 674 426 q 654 353 678 354 q 643 356 649 353 q 624 369 633 360 q 608 388 614 378 q 600 407 601 397 q 626 435 597 425 m 540 361 q 583 337 558 356 q 617 303 607 318 q 586 213 639 269 q 533 189 554 179 q 468 249 497 206 q 460 290 451 275 q 504 344 474 315 q 510 350 506 346 q 515 355 514 354 q 520 358 517 356 q 526 362 524 361 q 533 363 529 363 q 540 361 536 363 "},"三":{"ha":1361,"x_min":140,"x_max":1075,"o":"m 156 869 q 165 810 156 839 q 185 769 175 781 q 235 764 192 764 l 268 765 l 364 778 q 621 815 543 801 l 669 822 l 760 826 q 897 836 860 829 q 955 857 933 843 q 968 896 976 871 q 958 910 965 904 q 937 921 950 917 q 912 927 924 925 q 879 931 900 929 q 847 933 858 932 q 812 933 836 933 q 781 933 788 933 q 647 930 735 935 q 485 920 560 925 q 332 916 411 915 q 210 926 253 917 q 165 922 175 935 q 156 869 154 910 m 760 533 q 646 520 678 522 q 515 521 614 518 q 243 522 335 524 l 182 521 l 172 511 q 149 458 157 496 q 150 385 140 421 q 240 335 167 333 q 360 358 279 336 q 699 415 461 386 q 853 436 801 428 q 936 453 906 444 q 992 474 967 461 q 989 524 1025 490 q 968 537 981 532 q 944 544 956 542 q 915 548 933 547 q 885 549 897 549 q 853 547 874 549 q 822 543 832 544 q 789 538 811 542 q 760 533 767 535 m 169 -6 q 183 -69 171 -40 q 211 -107 194 -97 q 250 -99 224 -114 q 288 -85 268 -90 q 507 -50 356 -65 q 835 -7 646 -37 q 1068 74 1047 26 q 1068 101 1075 88 q 1044 118 1061 114 q 1008 121 1036 121 q 938 115 992 119 q 331 60 689 93 q 206 50 221 50 q 175 39 182 51 q 169 -6 168 26 "},"上":{"ha":1361,"x_min":6,"x_max":1347,"o":"m 706 693 q 563 679 651 686 q 438 664 460 672 q 379 639 410 654 q 344 617 349 624 q 342 604 342 613 q 344 590 342 596 q 408 569 353 568 q 435 570 419 569 q 455 571 450 571 q 472 571 460 571 q 499 569 485 571 q 540 565 514 568 q 615 558 586 561 l 635 557 l 688 558 q 786 558 743 561 q 883 556 860 554 q 933 565 921 558 q 972 620 946 571 q 997 683 999 669 q 967 704 997 697 q 919 711 946 710 q 860 710 893 713 q 808 706 828 708 q 750 699 788 704 q 706 693 713 694 m 1175 306 q 1035 288 1131 301 q 860 264 939 274 q 706 250 782 254 q 499 235 690 249 q 249 217 308 221 q 214 214 239 215 q 176 211 189 213 q 139 208 163 210 q 102 202 115 206 q 71 194 89 199 q 42 182 53 189 q 22 165 32 175 q 10 142 13 156 q 8 114 7 129 q 19 87 11 96 q 39 77 26 78 q 62 78 51 76 q 90 84 72 79 q 115 90 107 89 q 140 90 126 92 q 169 88 153 89 q 192 88 186 86 q 386 108 254 90 q 635 133 522 125 q 818 157 700 139 q 917 171 889 167 q 988 176 944 175 q 1089 176 1031 178 q 1211 176 1181 175 q 1322 206 1283 181 q 1339 239 1332 211 q 1344 281 1346 267 q 1336 299 1344 292 q 1313 310 1328 307 q 1283 315 1297 314 q 1247 314 1268 315 q 1214 311 1225 313 q 1185 307 1203 310 q 1175 306 1178 307 "},"下":{"ha":1361,"x_min":13,"x_max":1329,"o":"m 1036 644 q 693 615 918 638 q 612 606 656 611 q 559 601 568 601 q 519 598 550 600 q 461 595 488 596 q 371 592 435 594 q 203 583 246 588 q 111 565 153 576 q 53 536 85 557 q 18 503 22 515 q 28 476 14 490 q 178 425 63 443 q 251 418 224 417 q 331 440 278 419 q 388 458 364 453 q 444 467 411 463 q 508 476 478 471 q 614 493 579 492 q 658 492 636 493 q 721 490 708 489 q 781 503 733 492 q 844 516 833 515 q 901 511 854 517 q 924 508 911 510 q 940 505 936 506 q 951 504 943 504 q 961 504 958 504 q 969 506 964 504 q 980 509 975 507 q 992 514 985 511 q 1008 521 1004 519 q 1021 524 1011 522 q 1038 526 1031 525 q 1068 528 1044 526 q 1217 538 1185 535 q 1257 544 1242 540 q 1283 552 1272 547 q 1314 568 1294 557 q 1326 576 1324 574 q 1328 585 1328 579 q 1263 633 1326 615 q 1162 649 1218 647 q 1036 644 1106 650 m 863 303 q 594 279 689 283 q 449 267 493 274 q 357 242 393 257 q 293 169 292 215 q 329 128 294 138 q 393 128 339 125 q 696 165 500 132 q 751 175 718 169 q 795 183 783 181 q 829 188 807 185 q 863 193 851 192 q 894 196 874 194 q 933 199 914 197 q 979 200 953 200 q 1053 205 1026 201 q 1103 219 1079 208 q 1138 251 1128 231 q 1122 297 1150 279 q 1082 313 1104 307 q 1028 317 1060 318 q 979 316 997 317 q 917 310 961 315 q 863 303 874 304 "},"不":{"ha":1361,"x_min":232,"x_max":899,"o":"m 233 1085 q 258 1056 233 1074 q 290 1031 281 1040 q 318 996 300 1021 q 373 915 350 954 q 408 849 396 875 q 439 776 419 824 q 476 692 458 728 q 539 511 528 581 q 511 353 551 424 q 472 299 504 340 q 432 246 449 269 q 398 199 415 222 q 350 140 381 176 q 285 56 301 82 q 268 18 271 35 q 283 7 263 -3 q 342 56 304 17 q 413 133 381 94 q 463 199 444 172 q 488 229 479 222 q 500 236 496 236 q 514 217 508 236 q 517 97 524 178 q 504 -7 514 61 q 492 -169 490 -111 q 493 -178 492 -172 q 496 -229 493 -215 q 510 -247 500 -250 q 536 -186 524 -242 q 557 -56 540 -161 q 574 79 569 36 q 569 156 574 93 q 572 224 564 218 q 580 235 576 232 q 590 236 583 239 q 602 228 596 233 q 619 214 608 224 q 694 132 646 189 q 747 60 714 108 q 804 -14 781 13 q 876 -78 856 -71 q 896 -65 893 -83 q 882 -6 899 -39 q 768 151 857 44 q 722 206 742 183 q 660 276 679 253 q 615 343 640 299 q 583 429 590 388 q 581 496 579 457 q 599 605 582 549 q 633 700 615 661 q 685 806 651 739 q 747 938 729 892 q 793 1026 771 997 q 819 1039 803 1039 q 835 1047 831 1040 q 831 1086 847 1071 q 628 1114 797 1118 q 531 1112 574 1113 q 465 1112 489 1111 q 401 1112 440 1113 q 315 1111 361 1111 q 311 1111 314 1111 q 233 1085 232 1110 m 644 1054 q 681 1051 674 1056 q 692 1015 693 1043 q 688 982 692 1000 q 680 951 683 964 q 667 916 676 939 q 653 884 657 893 q 635 848 649 875 q 619 814 622 821 q 597 755 614 801 q 575 699 581 708 q 561 681 567 686 q 549 683 556 676 q 538 694 542 689 q 526 717 535 700 q 482 808 510 747 q 441 889 467 840 q 404 963 415 938 q 374 1039 375 1026 q 386 1053 374 1047 q 421 1058 394 1057 q 533 1057 461 1061 q 644 1054 604 1053 "},"与":{"ha":1361,"x_min":196,"x_max":967,"o":"m 485 1092 q 460 968 471 1043 q 453 810 450 893 q 478 686 456 728 q 508 657 492 661 q 540 655 515 656 q 577 649 565 654 q 589 629 589 643 q 582 606 590 613 q 546 589 574 599 q 518 577 525 582 q 494 556 511 572 q 419 457 438 499 q 414 415 407 429 q 444 411 425 396 q 489 458 461 424 q 571 532 547 531 q 578 528 576 532 q 586 503 581 525 q 607 440 597 457 q 624 422 615 424 q 649 442 644 418 q 647 489 654 465 q 645 593 642 501 q 647 707 649 685 q 590 847 643 829 q 567 853 589 849 q 542 857 544 857 q 519 875 526 863 q 521 907 513 888 q 548 919 524 914 q 601 928 572 925 q 635 932 629 931 q 657 947 651 938 q 654 977 664 963 q 632 993 644 992 q 601 991 626 994 q 552 988 575 988 q 524 997 529 988 q 518 1049 521 1003 q 515 1092 517 1089 q 506 1106 511 1103 q 494 1106 500 1110 q 485 1092 488 1101 m 576 731 q 576 719 576 724 q 543 708 571 693 q 511 758 513 725 q 529 785 510 778 q 563 774 549 793 q 576 731 576 754 m 206 1015 q 209 962 207 990 q 213 899 211 933 q 233 742 217 796 q 296 665 250 688 q 396 657 338 646 q 426 668 407 660 q 443 685 444 676 q 440 689 443 688 q 385 703 432 697 q 306 722 338 710 q 289 761 274 735 q 305 772 293 771 q 336 769 317 772 q 383 769 372 767 q 403 792 403 774 q 388 818 403 811 q 344 826 378 821 q 296 838 308 831 q 279 858 278 847 q 283 866 279 863 q 296 872 288 869 q 310 876 304 875 q 328 880 315 878 q 345 883 342 882 q 354 884 349 883 q 363 885 360 885 q 372 888 367 886 q 379 890 376 889 q 385 892 382 890 q 391 894 389 893 q 395 897 393 896 q 398 901 397 899 q 399 907 399 904 q 381 925 397 918 q 333 939 374 928 q 289 951 292 950 q 267 969 272 958 q 265 991 265 972 q 264 1033 265 1010 q 258 1067 263 1056 q 232 1088 251 1090 q 206 1015 203 1082 m 794 1054 q 799 1015 796 1049 q 801 975 803 982 q 800 968 801 971 q 797 963 799 965 q 793 958 794 960 q 788 956 792 957 q 783 953 785 954 q 774 949 781 951 q 764 947 768 947 q 711 924 725 932 q 696 910 700 918 q 697 891 692 899 q 714 883 703 883 q 751 894 724 883 q 793 906 785 907 q 811 886 810 903 q 786 856 813 869 q 744 838 779 851 q 731 833 740 836 q 717 827 722 829 q 705 822 713 825 q 694 815 697 818 q 688 806 690 811 q 686 793 686 800 q 692 777 688 782 q 708 775 697 772 q 726 781 718 778 q 749 793 733 785 q 757 797 754 796 q 797 813 790 814 q 807 803 803 813 q 810 785 811 794 q 760 728 804 764 q 715 683 721 694 q 717 664 710 671 q 739 657 725 657 q 770 666 750 658 q 809 685 790 674 q 835 703 828 696 q 872 889 878 747 q 861 1000 871 936 q 860 1005 861 1003 q 860 1008 860 1007 q 860 1014 860 1010 q 854 1048 857 1036 q 847 1076 851 1060 q 833 1099 842 1093 q 814 1100 825 1104 q 794 1054 793 1092 m 254 572 q 215 507 233 554 q 199 421 197 460 q 199 408 199 414 q 201 397 200 401 q 205 388 203 393 q 208 379 207 382 q 214 371 210 376 q 220 363 218 365 q 227 353 222 360 q 235 343 232 346 q 268 292 264 306 q 271 268 271 286 l 271 249 l 268 229 q 262 184 265 208 q 258 154 258 160 q 256 131 257 149 q 256 99 256 114 q 258 49 257 85 q 257 -89 263 -39 q 251 -116 256 -107 q 226 -154 247 -125 q 212 -177 217 -169 q 202 -198 207 -185 q 204 -218 197 -211 q 229 -224 211 -225 q 251 -218 242 -224 q 307 -144 281 -203 q 333 -28 332 -89 q 325 82 333 3 q 319 222 315 182 q 332 265 324 258 q 358 271 338 269 l 378 271 q 467 343 432 301 q 472 349 469 346 q 472 388 499 389 q 421 358 464 388 q 399 345 408 350 q 378 336 390 340 q 358 337 365 332 q 350 356 351 342 q 354 375 350 363 q 363 400 358 388 q 374 427 368 413 q 382 449 379 442 q 383 485 388 468 q 350 490 375 514 q 304 419 338 478 q 285 390 289 393 q 278 393 283 390 q 272 400 274 396 q 268 422 268 407 q 299 526 268 469 q 306 590 328 583 q 254 572 283 597 m 753 575 q 797 504 731 556 q 801 501 800 501 q 831 472 821 485 q 847 443 843 454 q 849 417 851 432 q 841 394 844 401 q 833 389 838 388 q 824 394 828 390 q 811 411 821 399 q 797 431 803 424 q 736 490 758 479 q 713 493 724 496 q 697 482 701 490 q 703 463 696 478 q 722 431 711 447 q 742 399 732 414 q 751 383 751 383 q 765 350 764 363 q 763 330 768 338 q 749 322 758 322 q 743 323 746 322 q 738 325 740 324 q 733 328 736 326 q 729 331 731 329 q 725 334 728 332 q 721 338 722 336 q 717 343 719 340 q 711 349 714 346 q 665 390 676 385 q 652 392 660 393 q 644 385 644 390 q 655 344 644 367 q 676 314 665 322 q 733 286 692 303 q 776 265 767 272 q 797 242 793 256 q 807 140 807 215 q 819 -10 808 49 q 857 -132 831 -69 q 889 -186 872 -165 q 931 -207 906 -207 q 953 -198 944 -206 q 963 -178 961 -190 q 961 -151 965 -167 q 956 -137 958 -143 q 949 -124 953 -131 q 941 -112 944 -117 q 931 -98 938 -107 q 918 -83 924 -89 q 881 -17 888 -40 q 858 93 868 29 q 851 285 838 221 q 853 295 851 290 q 856 304 854 300 q 860 311 858 308 q 865 317 863 314 q 870 323 868 321 q 876 329 872 325 q 883 336 881 333 q 906 410 907 360 q 856 533 903 479 q 767 583 810 586 q 753 575 761 583 m 649 254 q 627 240 632 254 q 622 206 622 226 q 619 176 622 185 q 526 149 608 151 q 504 153 508 147 q 494 191 496 163 q 484 237 493 219 q 449 249 475 254 q 426 231 431 244 q 422 188 421 217 q 428 129 424 164 q 433 3 429 126 q 474 -91 435 -51 q 567 -128 514 -131 q 597 -124 583 -128 q 681 -8 669 -99 q 683 20 682 -1 q 683 63 683 42 q 683 110 683 85 q 683 146 683 135 q 683 182 685 163 q 680 218 682 201 q 669 245 678 235 q 649 254 661 256 m 617 -25 q 569 -60 603 -58 q 526 -42 547 -60 q 492 6 506 -24 q 489 65 479 36 q 508 88 496 83 q 560 94 519 92 q 586 97 581 94 q 627 55 622 107 q 617 -25 632 3 "},"丑":{"ha":1361,"x_min":204,"x_max":929,"o":"m 885 -244 q 917 -212 907 -231 q 928 -158 926 -193 q 917 -28 929 -132 q 911 39 913 13 q 917 117 910 69 q 923 163 922 154 q 918 200 924 171 q 905 221 915 204 q 892 244 894 238 q 875 350 883 279 q 867 414 869 403 q 849 454 864 431 q 835 494 836 476 q 842 540 835 506 q 848 587 849 572 q 833 624 847 601 q 819 651 821 643 q 822 682 818 658 q 800 850 835 744 q 659 1038 758 972 q 410 1107 560 1103 q 311 1101 343 1108 q 260 1083 289 1096 q 222 1061 231 1071 q 240 1040 204 1040 q 283 1043 251 1040 q 342 1044 299 1044 q 435 1028 411 1042 q 444 1014 442 1025 q 414 907 456 964 q 397 889 404 893 q 356 881 389 885 q 300 867 322 876 q 283 840 278 858 q 307 825 286 831 q 352 819 328 819 q 399 822 376 819 q 430 831 415 825 q 453 844 444 838 q 475 863 461 850 q 502 894 497 882 q 507 946 507 906 q 510 979 507 969 q 524 997 514 992 q 546 1001 533 1003 q 569 994 558 999 q 590 985 581 990 q 681 897 640 953 q 713 817 699 872 q 728 722 726 761 q 722 683 728 693 q 693 679 717 674 q 653 690 686 681 q 593 703 621 699 q 397 724 460 722 q 351 719 368 725 q 343 694 333 713 q 369 678 349 685 q 419 669 390 672 q 458 663 449 665 q 490 628 478 656 q 499 571 503 601 q 474 528 496 540 q 408 507 463 522 q 367 482 372 499 q 379 447 360 461 q 418 435 399 433 q 451 442 431 435 q 503 468 476 451 q 542 499 531 485 q 568 563 558 517 q 569 569 569 568 q 586 612 578 603 q 613 622 594 621 q 651 617 628 622 q 693 603 674 611 q 719 589 713 594 q 722 504 744 564 q 658 425 704 454 q 501 347 558 360 q 453 342 486 344 q 392 335 421 339 q 336 326 364 332 q 296 310 308 321 q 292 283 283 299 q 357 242 304 261 q 372 239 368 238 q 385 247 376 240 q 413 267 397 260 q 501 288 435 275 q 614 318 588 306 q 651 342 625 324 q 682 363 676 358 q 736 346 735 394 q 729 290 736 329 q 708 153 711 188 q 711 97 707 125 q 735 8 718 51 q 767 -60 753 -35 q 817 -142 781 -85 q 871 -244 853 -201 q 885 -244 881 -244 "},"且":{"ha":1361,"x_min":182,"x_max":992,"o":"m 315 14 q 265 22 314 14 q 210 28 217 29 q 196 17 201 25 q 189 1 190 8 q 186 -24 188 -7 q 194 -87 182 -62 q 235 -111 206 -112 q 276 -104 242 -111 q 322 -97 311 -97 q 447 -107 350 -97 q 617 -117 575 -118 q 686 -110 636 -117 q 754 -103 736 -103 q 791 -103 769 -103 q 837 -103 813 -103 q 869 -101 861 -103 q 899 -94 874 -100 q 957 -80 925 -89 q 990 -65 989 -71 q 990 -56 990 -62 q 989 -46 990 -49 q 974 -22 988 -37 q 956 -4 961 -7 q 878 8 946 0 q 836 17 842 14 q 819 97 807 29 q 834 164 822 117 q 850 242 846 211 q 851 294 850 251 q 853 347 851 336 q 875 454 854 365 q 892 522 889 513 q 878 706 911 622 q 771 849 850 779 q 722 892 754 864 q 665 947 685 922 q 617 993 635 985 q 579 997 599 1001 q 494 944 535 990 q 394 843 469 917 q 369 819 375 824 q 347 796 364 814 q 326 771 331 778 q 308 747 321 764 q 292 719 296 729 q 281 690 288 708 q 273 656 274 672 q 272 619 272 640 q 275 576 272 599 q 326 386 281 535 q 360 261 351 308 q 375 128 368 214 q 315 14 383 17 m 608 576 l 542 575 q 454 576 471 572 q 432 585 442 579 q 404 620 410 597 q 405 665 399 643 q 424 707 411 688 q 533 832 471 778 q 572 851 550 847 q 594 853 588 854 q 650 813 603 850 q 677 788 656 808 q 724 742 699 768 q 756 706 749 717 q 768 649 765 688 q 763 594 772 613 q 725 576 754 576 q 663 575 717 576 l 608 574 q 608 576 608 575 m 732 469 q 757 444 751 461 q 758 410 758 433 q 751 360 757 388 q 738 324 746 332 q 674 303 725 308 q 582 300 624 299 q 515 306 540 301 q 494 313 500 307 q 472 358 489 319 q 444 444 446 417 q 448 458 444 454 q 463 464 451 461 q 639 482 533 478 q 694 481 678 483 q 732 469 711 479 m 682 207 q 715 201 713 203 q 724 178 722 199 q 713 50 731 111 q 710 42 711 47 q 708 35 708 36 q 706 29 707 33 q 703 24 704 25 q 699 22 701 24 q 694 19 697 19 q 688 19 692 19 q 679 19 683 18 q 609 18 664 19 q 542 18 554 17 q 497 32 500 21 q 493 110 493 42 q 496 175 493 142 q 506 203 497 199 q 590 215 521 207 q 622 215 617 215 q 649 212 626 215 q 682 207 671 208 "},"世":{"ha":1361,"x_min":82,"x_max":1194,"o":"m 496 -21 q 476 -19 485 -21 q 313 83 374 -1 q 236 293 253 168 q 258 539 218 431 q 272 563 261 544 q 285 590 283 581 q 285 620 288 611 q 269 646 282 629 q 235 825 242 683 q 225 877 232 864 q 196 875 218 890 q 168 833 175 860 q 151 758 151 760 q 114 704 146 746 q 88 656 93 676 q 89 592 82 635 q 107 429 103 525 q 247 -14 121 165 q 303 -75 275 -53 q 517 -182 418 -168 q 575 -183 532 -185 q 829 -200 671 -182 q 954 -217 947 -214 q 979 -225 974 -224 q 1012 -217 992 -226 q 1047 -193 1032 -208 q 1067 -159 1064 -176 q 1058 -131 1069 -142 q 1006 -110 1043 -115 q 928 -104 982 -106 q 718 -67 799 -100 q 697 -53 700 -60 q 685 -10 690 -39 q 679 39 681 19 q 676 88 678 58 q 668 254 668 250 q 676 310 669 294 q 685 319 679 315 q 699 324 692 322 q 715 328 707 326 q 732 331 724 329 q 744 335 740 332 q 985 499 813 364 q 1018 539 999 510 q 1044 575 1036 565 q 1063 593 1051 585 q 1099 615 1074 601 q 1160 666 1146 643 q 1183 747 1175 689 q 1188 829 1185 757 q 1192 915 1190 901 q 1188 953 1194 943 q 1161 964 1181 963 q 1101 917 1122 964 q 1067 847 1076 863 q 1021 811 1050 824 q 989 794 997 800 q 974 776 981 789 q 951 710 961 758 q 935 657 943 669 q 911 629 928 644 q 838 571 886 607 q 717 517 753 510 q 697 527 704 518 q 690 551 690 536 q 692 580 690 567 q 699 615 693 593 q 719 699 701 631 q 751 872 747 799 q 751 911 753 882 q 749 950 750 942 q 685 1069 733 1024 q 644 1088 664 1089 q 604 1065 626 1088 q 553 980 576 1036 q 525 865 531 924 q 525 832 524 857 q 531 772 526 810 q 542 700 536 733 q 555 628 549 667 q 563 568 561 590 q 565 517 567 535 q 554 481 564 499 q 544 447 544 461 q 547 403 543 433 q 550 319 553 360 q 538 201 549 290 q 528 50 522 94 q 526 -5 532 10 q 496 -21 521 -19 "},"丘":{"ha":1361,"x_min":118,"x_max":1128,"o":"m 250 726 q 193 608 233 679 q 142 513 149 529 q 121 446 124 475 q 125 404 119 433 q 139 376 132 368 q 150 401 140 378 q 157 418 153 410 q 165 433 161 426 q 172 447 168 440 q 181 463 176 454 q 189 478 186 471 q 223 540 206 508 q 265 610 240 571 q 312 674 290 650 q 344 694 333 697 q 358 678 351 692 q 368 646 364 664 q 375 622 372 628 q 458 422 433 501 q 476 344 469 388 q 507 239 486 278 q 536 161 536 183 q 517 135 536 142 q 403 115 494 128 q 342 105 349 107 q 276 78 335 103 q 222 64 250 65 q 180 58 190 61 q 164 43 169 54 q 174 3 151 13 q 236 1 197 -6 q 315 24 261 6 q 443 65 401 54 q 586 88 521 86 q 715 76 651 90 q 817 54 724 75 q 918 32 910 33 q 967 21 936 29 q 972 19 968 21 q 979 18 976 18 q 1075 24 1081 -10 q 1059 58 1072 44 q 1020 81 1046 72 q 977 92 994 89 q 925 99 960 94 q 731 133 817 113 q 722 136 728 135 q 713 138 717 138 q 701 141 708 139 q 690 144 694 143 q 680 148 686 146 q 669 152 674 150 q 661 157 665 154 q 654 163 657 160 q 650 169 651 165 q 649 176 649 172 q 660 215 649 192 q 703 290 664 225 q 747 369 742 356 q 787 449 750 375 q 829 538 824 524 q 840 573 833 550 q 852 615 847 596 q 865 653 857 635 q 881 681 872 672 q 911 683 897 697 q 935 636 918 676 q 957 586 951 596 q 1033 425 988 531 q 1067 360 1057 372 q 1092 346 1078 347 q 1115 361 1107 344 q 1101 458 1128 388 q 1029 640 1082 513 q 906 829 961 804 q 880 833 890 833 q 860 824 869 833 q 847 807 851 815 q 838 786 843 799 q 776 619 822 749 q 711 450 729 490 q 635 288 650 311 q 603 249 617 256 q 583 252 590 242 q 572 282 576 263 q 532 426 554 363 q 476 583 528 439 q 421 738 425 728 q 349 824 397 815 q 310 820 326 826 q 283 796 294 814 q 265 765 271 778 q 250 726 260 753 "},"丙":{"ha":1361,"x_min":10,"x_max":1346,"o":"m 265 -110 q 292 -104 281 -108 q 312 -88 304 -100 q 324 -67 319 -76 q 331 -36 329 -57 q 335 -3 333 -15 q 338 36 336 8 q 338 56 338 43 q 339 72 339 68 q 340 85 339 76 q 341 96 340 93 q 343 105 342 99 q 347 116 344 111 q 351 128 349 121 q 362 144 357 140 q 381 154 367 149 q 431 185 401 161 q 547 289 500 239 q 576 324 567 310 q 611 382 586 338 q 647 439 633 424 q 676 456 663 453 q 717 437 694 457 q 755 396 740 417 q 789 342 769 375 q 800 325 792 339 q 810 308 808 311 q 818 296 811 306 q 828 283 825 286 q 836 272 831 279 q 847 260 842 265 q 858 250 853 256 q 924 204 872 239 q 986 158 971 174 q 1013 122 1006 140 q 1024 81 1018 107 q 1035 38 1029 54 q 1049 3 1040 21 q 1075 -22 1058 -14 q 1115 -29 1092 -31 q 1157 -12 1150 -29 q 1164 51 1163 -1 q 1163 129 1165 104 q 1160 181 1161 151 q 1158 219 1158 210 q 1156 240 1157 228 q 1153 265 1156 253 q 1148 290 1150 278 q 1140 333 1146 301 q 1129 392 1133 364 q 1100 576 1107 511 q 1099 633 1097 603 q 1099 672 1099 647 q 1099 724 1099 697 q 1099 757 1099 751 q 1108 783 1101 774 q 1125 798 1115 793 q 1154 808 1135 803 q 1240 824 1174 814 q 1264 828 1257 826 q 1284 832 1271 829 q 1304 838 1297 835 q 1318 845 1311 840 q 1329 856 1325 850 q 1336 899 1344 876 q 1182 949 1319 946 q 1147 950 1169 950 q 1114 949 1124 950 q 995 941 1072 947 q 889 932 918 935 q 752 923 857 931 q 558 911 647 915 q 359 899 421 904 q 222 879 297 893 q 69 838 146 865 q 22 808 35 826 q 11 775 11 794 q 32 732 13 750 q 97 700 44 719 q 155 668 142 685 q 171 603 168 651 q 180 537 172 585 q 197 433 188 489 q 210 356 207 378 q 210 264 213 342 q 207 176 207 186 q 214 118 207 151 q 222 74 222 82 q 218 35 222 67 q 214 -37 213 -11 q 226 -92 215 -74 q 265 -110 238 -110 m 953 794 q 963 776 958 789 q 971 681 971 747 q 971 621 972 649 q 981 500 969 596 q 982 494 982 496 q 983 488 982 492 q 989 414 989 438 q 946 372 989 346 q 910 400 932 381 q 829 486 878 431 q 799 515 811 507 q 769 547 779 526 q 759 592 760 567 q 760 653 758 618 q 760 697 761 674 q 760 744 760 719 q 765 776 761 768 q 852 813 779 808 q 953 794 925 818 m 588 753 q 583 701 589 744 q 581 651 579 679 q 510 442 583 540 q 476 401 494 421 q 442 365 458 381 q 409 338 425 349 q 381 321 393 326 q 349 324 361 314 q 333 356 336 335 q 328 401 329 376 q 328 447 326 426 q 328 507 329 493 q 314 575 326 521 q 294 689 296 653 q 302 734 294 721 q 335 754 310 747 q 410 763 354 760 q 469 768 458 767 q 588 753 581 786 "},"丞":{"ha":1361,"x_min":200,"x_max":963,"o":"m 200 1071 q 219 1011 200 1056 q 233 981 229 989 q 240 915 242 944 q 234 838 239 886 q 229 769 229 790 q 239 701 231 732 q 282 606 250 665 q 332 493 318 539 q 354 438 344 451 q 379 418 367 418 q 399 431 394 419 q 390 485 404 442 q 382 519 382 511 q 410 518 382 536 q 433 510 426 508 q 444 531 446 515 q 439 546 444 538 q 415 568 433 554 q 388 594 388 590 q 404 620 388 603 q 437 656 421 638 q 449 689 453 675 q 428 710 446 707 q 394 704 411 714 q 354 679 382 699 q 328 665 335 667 q 315 668 321 663 q 303 769 293 689 q 331 874 306 792 q 344 951 346 924 q 336 976 344 965 q 265 1060 306 1024 q 254 1069 260 1065 q 200 1071 200 1114 m 814 607 q 793 586 814 601 q 754 550 758 561 q 756 536 753 542 q 769 525 763 524 q 789 539 776 526 q 806 550 800 550 q 818 535 817 550 q 810 503 818 528 q 821 469 799 469 q 867 506 840 471 q 881 546 875 517 q 896 600 890 589 q 931 638 901 611 q 937 643 932 639 q 942 648 942 647 q 946 651 943 649 q 949 656 949 654 q 951 663 950 658 q 954 671 953 667 q 960 751 963 704 q 938 893 958 790 q 922 994 924 965 q 931 1044 922 1011 q 935 1078 938 1064 q 914 1086 933 1093 q 876 1043 897 1079 q 839 967 854 1007 q 821 906 824 928 q 822 876 819 892 q 833 845 825 863 q 851 814 842 828 q 870 783 860 800 q 886 756 881 767 q 897 699 899 736 q 874 661 896 663 q 815 683 860 661 q 776 697 788 696 q 758 695 767 699 q 751 686 750 692 q 767 663 751 678 q 797 631 782 647 q 814 607 813 615 m 514 521 l 514 508 q 525 487 519 494 q 550 458 531 479 q 559 450 553 457 q 567 442 565 443 q 573 435 568 440 q 579 426 578 429 q 583 419 581 424 q 588 410 586 414 q 590 399 589 406 q 571 346 597 369 q 526 317 560 336 q 510 308 519 314 q 497 301 500 303 q 490 297 494 300 q 482 290 485 293 q 475 282 479 286 q 464 269 471 278 q 408 180 438 235 q 374 97 379 125 q 371 63 369 83 q 378 24 372 38 q 390 14 383 15 q 403 16 397 13 q 415 26 410 19 q 453 129 431 50 q 467 180 463 168 q 485 210 472 192 q 491 219 488 214 q 500 231 494 224 q 511 246 506 239 q 524 261 517 253 q 538 276 531 269 q 553 288 546 282 q 567 298 560 294 q 580 302 574 301 q 592 300 586 303 q 603 290 599 297 q 620 230 614 274 q 624 150 626 186 q 615 102 622 121 q 594 72 607 83 q 560 47 582 60 q 527 27 533 31 q 506 13 521 24 q 486 -10 492 1 q 475 -39 481 -21 q 463 -87 468 -57 q 453 -156 457 -118 q 459 -220 449 -194 q 493 -244 469 -246 q 519 -220 514 -242 q 524 -154 525 -199 q 526 -96 522 -111 q 554 -41 533 -65 q 613 11 575 -17 q 659 50 646 38 q 683 89 672 63 q 692 154 693 115 q 669 272 690 192 q 646 386 650 347 q 646 443 642 424 q 669 479 650 463 q 690 496 685 490 q 701 514 696 501 q 706 540 707 526 q 682 587 704 568 q 632 610 660 606 q 620 611 628 611 q 610 611 613 611 q 542 581 571 604 q 514 521 513 557 "},"両":{"ha":1361,"x_min":61,"x_max":1236,"o":"m 865 1029 q 732 1019 825 1024 q 546 1006 607 1014 q 374 1000 482 996 q 305 1001 333 1001 q 253 994 276 1001 q 213 968 231 986 q 197 932 196 951 q 313 896 201 886 q 449 915 360 899 q 540 929 510 925 q 610 933 571 932 q 678 932 649 933 q 749 929 708 931 q 814 926 790 928 q 912 933 875 925 q 960 967 949 942 q 950 1014 972 994 q 865 1029 926 1036 m 832 847 q 456 808 615 832 q 176 740 246 778 q 100 649 117 707 q 65 325 69 538 q 75 -25 63 100 q 107 -176 88 -139 q 126 -197 115 -193 q 169 -180 151 -204 q 194 -124 188 -156 q 201 -61 201 -92 q 185 67 203 -32 q 168 192 169 149 q 197 288 168 261 q 294 349 228 315 q 389 389 360 383 q 421 390 406 392 q 463 378 438 388 q 513 356 489 368 q 549 332 538 343 q 563 292 563 319 q 563 260 564 276 q 563 233 563 247 q 563 217 563 219 q 566 195 564 214 q 569 154 568 176 q 564 -57 582 15 q 558 -96 558 -82 q 589 -136 560 -131 q 653 -122 613 -140 q 697 -87 693 -104 q 690 -57 700 -76 q 678 56 681 -36 q 678 218 678 104 q 672 344 678 311 q 669 363 669 358 q 690 399 668 379 q 749 436 711 417 q 808 461 788 456 q 846 461 828 464 q 885 447 865 458 q 916 427 906 436 q 950 397 926 418 q 1024 339 988 361 q 1067 310 1057 319 q 1082 288 1076 301 q 1107 197 1100 250 q 1111 119 1107 186 q 1117 49 1115 53 q 1140 -29 1122 -1 q 1154 -43 1143 -33 q 1176 -60 1165 -53 q 1189 -69 1186 -68 q 1204 -69 1194 -72 q 1228 -24 1222 -61 q 1218 126 1235 28 q 1196 310 1208 183 q 1174 499 1183 438 q 1138 681 1147 649 q 1090 779 1118 746 q 832 847 1021 860 m 899 749 q 978 714 943 746 q 1017 658 999 694 q 1049 579 1036 622 q 1061 500 1061 536 q 1060 483 1061 488 q 1011 483 1051 458 q 944 533 993 494 q 897 571 906 565 q 858 586 879 583 q 840 585 847 588 q 831 580 833 583 q 821 568 828 576 q 761 524 804 547 q 700 509 719 501 q 678 556 681 517 q 672 592 676 567 q 663 647 668 618 q 657 692 658 675 q 661 715 656 708 q 702 733 672 726 q 797 746 732 740 q 899 749 861 751 m 544 635 q 551 593 547 619 q 557 544 554 567 q 560 504 560 521 q 551 466 561 475 q 510 465 542 457 q 489 474 510 465 q 444 491 468 482 q 415 501 421 500 q 393 501 406 503 q 332 476 376 497 q 272 444 288 456 q 236 425 247 431 q 171 476 176 399 q 214 621 167 540 q 274 674 235 656 q 453 715 335 703 q 521 703 501 721 q 544 635 540 685 "},"並":{"ha":1361,"x_min":74,"x_max":1215,"o":"m 869 983 q 858 940 863 971 q 857 900 857 932 q 853 665 856 714 q 848 652 851 663 q 840 629 844 642 q 835 615 835 617 q 779 549 821 579 q 663 460 672 471 q 651 433 651 447 q 665 406 653 418 q 686 396 675 396 q 704 400 697 396 q 724 414 711 404 q 805 472 794 465 q 824 474 815 479 q 835 458 832 467 q 836 442 838 449 q 829 419 835 436 q 743 129 817 375 q 713 25 738 111 q 690 7 706 11 q 590 6 674 4 q 569 10 576 7 q 564 15 567 13 q 560 19 561 17 q 557 25 558 21 q 555 33 556 29 q 551 44 554 36 q 547 58 549 51 q 510 182 514 165 q 499 272 506 207 q 492 357 492 338 q 490 423 490 379 q 489 475 489 467 l 489 508 q 508 524 496 522 q 518 521 513 524 q 563 476 532 514 q 600 450 579 457 q 622 475 626 442 q 592 543 619 507 q 558 591 586 551 q 510 656 531 631 q 500 672 504 663 q 493 687 496 681 q 490 708 490 693 q 488 728 489 722 q 488 756 488 733 q 489 785 489 778 q 479 896 489 865 q 456 923 474 915 q 419 917 439 931 q 406 882 413 910 q 401 789 401 864 q 390 733 400 761 q 365 681 375 697 q 333 640 356 664 q 278 574 314 618 q 263 555 272 568 q 249 538 253 542 q 238 526 246 533 q 224 512 231 518 q 207 500 217 506 q 161 438 174 476 q 160 422 158 431 q 168 401 160 406 q 194 399 176 396 q 256 426 236 407 q 313 468 263 433 q 360 496 354 496 q 376 486 371 496 q 369 338 397 443 q 333 184 361 301 q 297 40 304 67 q 265 8 292 17 q 142 6 239 -3 q 114 3 121 7 q 97 -14 107 0 q 74 -54 75 -50 q 83 -72 74 -62 q 100 -82 92 -81 q 222 -85 111 -83 q 767 -89 233 -85 q 1122 -94 1079 -92 q 1178 -93 1165 -97 q 1203 -75 1192 -89 q 1213 -44 1214 -61 q 1210 -37 1213 -40 q 1204 -31 1208 -33 q 1197 -27 1200 -29 q 1187 -23 1193 -25 q 1178 -19 1181 -21 q 1039 -3 1150 -8 q 996 4 1010 -1 q 975 22 982 10 q 965 60 968 33 q 921 442 943 274 q 925 481 918 464 q 951 504 939 510 q 983 476 963 500 q 1057 401 1007 449 q 1076 390 1067 392 q 1093 392 1086 389 q 1113 401 1100 394 q 1117 404 1115 403 q 1131 423 1128 410 q 1129 449 1133 436 q 1117 468 1125 461 q 1060 522 1092 490 q 1012 565 1050 532 q 954 607 974 597 q 936 628 938 615 q 942 667 936 633 q 950 836 949 701 q 949 918 951 906 q 938 957 946 931 q 922 989 929 983 q 893 997 911 999 q 869 983 875 994 m 429 190 q 439 181 433 190 q 463 114 440 178 q 490 22 490 32 q 489 7 492 11 q 473 0 486 3 q 447 0 460 -3 q 378 10 381 8 q 374 33 371 13 q 411 161 383 88 q 414 171 413 165 q 416 178 415 176 q 418 183 417 181 q 421 188 419 186 q 424 190 422 189 q 429 190 426 190 m 867 176 q 903 76 868 174 l 911 53 q 894 8 911 17 q 869 7 892 7 q 796 7 819 6 q 778 35 769 10 q 835 142 781 42 q 853 172 844 160 q 867 176 863 183 "},"中":{"ha":1361,"x_min":124,"x_max":1114,"o":"m 392 689 q 395 745 390 713 q 404 782 400 778 q 411 783 406 782 q 442 778 418 783 q 488 778 446 776 q 557 778 539 779 q 599 763 589 775 q 618 717 610 751 q 628 681 624 690 q 677 647 642 650 q 754 658 713 643 q 798 667 785 667 q 864 665 811 668 q 928 663 911 663 q 960 667 949 664 q 979 678 972 669 q 986 703 986 688 q 942 750 985 740 q 825 746 911 757 q 704 751 725 733 q 682 792 694 760 q 656 838 668 826 q 628 849 644 847 q 578 846 621 849 q 494 840 536 843 q 447 836 451 836 q 403 841 417 836 q 386 865 389 846 q 386 947 382 894 q 393 967 386 963 q 444 974 408 974 q 470 972 454 974 q 501 970 486 971 q 532 969 517 969 q 560 969 547 968 q 581 971 574 969 q 619 968 610 978 q 632 925 629 958 q 639 897 633 907 q 652 883 644 888 q 678 874 660 878 q 844 865 743 857 q 910 875 892 868 q 920 882 918 879 q 922 893 922 885 q 888 925 921 915 q 799 938 856 935 q 732 943 742 942 q 723 945 726 944 q 716 948 719 946 q 710 952 713 950 q 706 957 707 954 q 703 963 704 960 q 701 972 701 967 q 701 983 701 976 q 701 996 701 989 q 688 1049 704 1036 q 619 1065 671 1063 q 535 1063 589 1067 q 451 1053 481 1060 q 399 1047 410 1042 q 381 1065 392 1051 q 358 1088 369 1079 q 331 1090 346 1096 q 316 1083 319 1088 q 311 1064 313 1078 q 310 1017 310 1049 q 324 868 313 956 q 335 794 325 858 q 346 710 344 729 q 347 674 347 689 q 340 651 346 660 q 322 636 335 643 q 256 615 304 626 q 190 596 208 604 q 163 582 172 589 q 128 463 124 554 q 130 438 128 449 q 136 417 132 426 q 144 401 140 408 q 156 388 147 394 q 170 377 165 381 q 187 368 175 374 q 205 360 199 363 q 226 353 211 358 q 249 344 242 347 q 325 311 310 321 q 350 286 343 301 q 360 242 357 274 q 363 181 363 211 q 360 131 363 151 q 360 63 358 121 q 363 3 363 4 q 371 -183 361 -136 q 399 -247 383 -240 q 430 -246 418 -256 q 446 -221 442 -236 q 453 -182 450 -206 q 456 -71 457 -147 q 456 -26 454 -33 q 469 -14 457 -18 q 532 -6 488 -7 q 643 -11 599 -3 q 672 -24 661 -14 q 696 -64 682 -33 q 719 -101 707 -90 q 775 -133 739 -119 q 853 -152 811 -146 q 938 -157 894 -158 q 1017 -146 982 -156 q 1040 -135 1028 -143 q 1062 -115 1053 -128 q 1068 -89 1071 -101 q 1023 -58 1061 -64 q 938 -60 985 -53 q 924 -60 928 -60 q 814 -57 840 -65 q 749 -8 788 -49 q 689 42 717 25 q 625 63 661 60 q 545 60 614 64 q 469 58 476 57 q 458 67 463 58 q 436 164 444 101 q 442 182 435 175 q 456 191 449 189 q 482 196 463 193 q 566 200 517 201 q 640 192 615 199 q 683 167 663 186 q 710 135 688 163 q 735 103 732 107 q 824 74 763 78 q 946 78 886 69 q 1104 121 1085 92 q 1097 147 1114 135 q 1057 163 1079 158 q 949 160 1029 168 q 836 154 869 151 q 793 165 807 157 q 769 192 779 172 q 750 221 761 211 q 528 271 671 289 q 501 266 517 269 q 473 259 486 263 q 451 256 460 256 q 423 278 422 254 q 440 314 424 303 q 521 343 458 325 q 622 383 597 365 q 668 445 657 408 q 661 533 679 482 q 607 607 643 574 q 529 651 571 640 q 463 654 504 660 q 406 653 421 649 q 392 689 392 658 m 583 514 q 581 488 583 500 q 524 406 568 444 q 495 386 511 394 q 463 373 479 378 q 433 375 446 368 q 414 400 419 382 q 408 439 411 411 q 403 494 404 467 q 402 544 403 521 q 403 569 401 567 q 417 576 404 572 q 481 586 447 590 q 526 575 504 583 q 565 551 547 567 q 583 514 582 535 m 322 368 q 286 379 306 367 q 256 403 271 388 q 231 436 242 418 q 217 469 219 454 q 224 517 211 492 q 304 571 246 568 q 314 571 310 571 q 322 569 318 571 q 327 566 325 567 q 331 561 329 565 q 334 556 333 557 q 336 548 335 554 q 338 540 338 542 q 339 529 338 538 q 340 518 340 521 q 346 442 344 489 q 347 388 350 407 q 322 368 344 368 "},"丹":{"ha":1361,"x_min":218,"x_max":917,"o":"m 235 881 q 228 738 218 842 q 229 646 231 708 q 235 426 228 568 q 238 351 236 397 q 241 293 240 306 q 242 257 242 281 q 242 217 243 233 q 239 178 240 200 q 235 118 238 156 q 228 -62 225 -12 q 239 -135 231 -110 q 256 -156 244 -149 q 282 -160 267 -162 q 310 -144 297 -158 q 328 -93 326 -126 q 323 17 329 -68 q 317 129 317 103 q 354 238 319 228 q 421 240 358 239 q 610 253 518 244 q 669 253 636 254 q 736 246 703 251 q 781 231 769 240 q 792 203 788 225 q 804 56 801 154 q 808 -67 807 -47 q 860 -175 821 -171 q 899 -151 883 -178 q 915 -96 915 -124 q 910 -40 914 -85 q 885 222 906 -6 q 851 529 867 413 q 843 594 846 567 q 838 644 840 621 q 835 685 836 667 q 831 738 833 704 q 826 808 829 772 q 821 843 825 828 q 813 867 817 858 q 799 897 810 875 q 790 912 794 907 q 781 919 786 917 q 767 921 775 921 q 728 878 736 921 q 726 825 726 869 q 722 742 726 764 q 717 735 721 738 q 708 730 714 732 q 697 727 701 728 q 681 725 692 726 q 665 724 669 724 q 479 715 572 710 q 442 716 475 715 q 378 717 410 717 q 336 719 346 718 q 322 731 326 722 q 317 856 318 738 q 307 890 314 876 q 268 906 293 911 q 235 881 243 900 m 472 636 q 551 635 501 635 q 696 629 657 633 q 746 617 740 624 q 756 581 753 610 q 767 371 776 425 q 750 349 764 356 l 701 346 q 653 343 653 344 q 606 340 653 342 q 490 338 560 339 q 386 335 419 336 q 332 335 353 335 q 317 374 318 339 q 317 465 315 393 q 318 543 318 536 q 321 606 318 597 q 326 618 322 613 q 338 627 331 624 q 353 633 346 631 q 371 638 360 636 q 390 640 382 639 q 412 640 399 640 q 433 639 425 639 q 453 638 440 639 q 472 636 467 638 m 468 511 q 486 456 468 482 q 531 424 504 431 q 597 447 568 415 q 615 500 617 474 q 592 548 613 526 q 546 574 572 569 q 490 560 513 579 q 468 511 468 542 "},"主":{"ha":1361,"x_min":294,"x_max":763,"o":"m 483 990 q 399 790 425 953 q 388 714 393 756 q 369 612 376 638 q 342 540 363 586 q 321 485 325 501 q 311 414 317 469 q 304 146 294 264 q 381 -76 314 7 q 535 -150 444 -153 q 664 -97 614 -147 q 757 196 742 -19 q 756 306 761 260 q 732 440 751 353 q 704 610 708 546 q 688 700 699 661 q 596 913 650 828 q 544 973 569 950 q 500 996 518 996 q 483 990 492 996 "},"丼":{"ha":1361,"x_min":119,"x_max":1122,"o":"m 260 526 q 286 524 278 526 q 300 517 294 522 q 311 497 306 511 q 328 408 324 463 q 322 319 332 353 q 310 296 318 304 q 288 282 303 288 q 218 269 269 275 q 176 257 188 267 q 161 221 164 247 q 206 172 156 183 q 271 164 224 168 q 322 155 313 160 q 336 122 331 150 q 338 57 340 106 q 340 -10 335 7 q 358 -31 344 -24 q 389 -35 371 -39 q 429 8 408 -31 q 464 117 461 64 q 472 163 467 150 q 496 182 476 176 q 589 187 514 190 q 686 188 664 183 q 744 192 738 194 q 772 140 765 183 q 778 67 775 122 q 778 42 778 58 q 779 16 779 25 q 780 -8 779 7 q 783 -32 781 -24 q 788 -51 785 -40 q 794 -69 790 -62 q 804 -81 799 -75 q 817 -90 810 -87 q 835 -92 825 -92 q 882 -67 860 -92 q 903 -25 897 -50 q 909 69 906 -3 q 915 158 913 140 q 924 190 918 182 q 951 201 931 197 q 994 203 972 206 q 1040 201 1017 201 q 1081 201 1063 200 q 1110 215 1099 203 q 1121 249 1121 226 q 1107 291 1119 278 q 1068 307 1094 304 q 1009 303 1050 308 q 944 303 968 299 q 914 331 921 308 q 895 445 900 367 q 907 556 890 524 q 928 564 913 563 q 964 561 940 564 q 1006 557 988 558 q 1042 557 1024 556 q 1069 569 1060 558 q 1079 600 1079 581 q 1076 615 1079 608 q 1028 683 1063 651 q 939 697 1004 706 q 903 694 918 693 q 878 702 888 696 q 863 722 868 708 q 851 793 854 742 q 839 871 849 851 q 781 899 822 900 q 751 889 760 899 q 736 858 742 879 q 735 786 733 843 q 726 720 735 736 q 679 700 718 704 q 642 701 675 700 q 575 702 608 701 q 538 703 542 703 q 489 701 499 700 q 472 704 479 701 q 460 713 465 707 q 452 725 456 719 q 446 742 449 731 q 442 760 443 754 q 440 782 442 767 q 436 804 438 797 q 421 876 429 857 q 365 914 404 921 q 314 849 310 906 q 322 799 315 832 q 330 746 328 765 q 324 706 332 726 q 296 674 317 685 q 238 657 281 667 q 197 648 206 650 q 170 639 189 646 q 142 624 151 632 q 126 604 133 617 q 120 570 119 590 q 129 536 121 550 q 176 515 142 514 q 215 520 181 515 q 260 526 249 525 m 590 571 q 622 572 604 571 q 653 573 640 572 q 680 574 665 574 q 705 572 694 574 q 724 564 715 569 q 739 549 733 558 q 751 504 746 536 q 763 399 758 451 q 758 326 767 342 q 747 318 757 322 q 544 299 686 296 q 482 308 494 300 q 467 343 471 314 q 468 458 458 393 q 493 547 478 522 q 524 567 503 564 q 590 571 546 571 m 597 510 q 511 458 517 503 q 531 406 506 424 q 596 390 556 389 q 662 410 636 392 q 685 464 688 429 q 660 505 683 496 q 597 510 638 514 "},"乃":{"ha":1361,"x_min":260,"x_max":844,"o":"m 714 1074 q 625 1051 669 1068 q 485 986 578 1035 q 382 938 413 950 q 311 915 351 925 q 264 900 271 907 q 261 886 260 894 q 271 856 261 871 q 379 874 297 821 q 629 985 460 926 q 726 1010 717 1015 q 733 993 739 1004 q 706 968 726 982 q 663 940 697 963 q 619 911 628 918 q 547 838 571 875 q 519 754 524 801 q 529 646 515 694 q 558 589 538 617 q 626 511 578 561 q 704 421 689 447 q 721 358 719 392 q 707 290 722 325 q 639 187 688 247 q 574 90 590 126 q 551 -32 551 40 q 578 -153 550 -104 q 595 -180 588 -172 q 614 -186 603 -187 q 636 -149 640 -186 q 624 -3 622 -26 q 645 70 626 39 q 722 164 664 101 q 813 281 799 242 q 822 347 822 307 q 810 414 821 386 q 713 546 793 460 q 685 575 694 565 q 597 713 611 657 q 597 780 588 747 q 624 832 606 813 q 718 883 649 857 q 819 933 796 913 q 839 992 844 956 q 799 1058 833 1036 q 714 1074 765 1081 "},"久":{"ha":1361,"x_min":174,"x_max":1014,"o":"m 676 1076 q 553 1017 639 1061 q 411 950 456 968 q 336 911 379 938 q 253 869 276 876 q 192 840 207 856 q 185 825 185 833 q 243 813 186 800 q 401 874 282 821 q 513 922 478 908 q 663 978 642 972 q 738 992 706 990 q 778 988 760 992 q 802 962 796 982 q 803 919 808 942 q 790 875 799 896 q 774 844 782 854 q 726 803 768 836 q 446 638 603 704 q 186 524 199 533 q 175 511 176 517 q 211 499 174 499 q 300 515 236 499 q 507 578 458 560 q 546 596 536 589 q 576 611 567 610 q 596 594 586 611 q 622 529 604 582 q 635 494 632 503 q 643 473 638 486 q 651 457 649 460 q 664 434 653 454 q 685 396 675 414 q 703 363 699 372 q 715 339 708 353 q 725 315 721 325 q 738 279 729 304 q 790 128 769 181 q 924 -133 860 -60 q 942 -151 935 -146 q 1008 -197 951 -157 q 1010 -169 1014 -197 q 997 -117 1006 -139 q 949 7 986 -85 q 832 285 907 108 q 718 542 735 510 q 683 631 686 608 q 688 651 682 642 q 694 663 690 658 q 705 673 697 668 q 716 680 713 678 q 733 688 719 682 q 750 696 746 694 q 826 754 794 718 q 906 949 911 854 q 833 1082 900 1044 q 782 1098 808 1096 q 732 1094 756 1100 q 676 1076 708 1089 "},"之":{"ha":1361,"x_min":142,"x_max":1088,"o":"m 717 1049 q 690 1001 694 1040 q 688 901 685 961 q 690 822 692 842 q 667 756 688 789 q 621 706 646 724 q 578 690 596 688 q 540 719 547 693 q 536 799 532 744 q 544 881 538 819 q 553 983 554 961 q 518 1026 549 1033 q 474 958 489 1019 q 457 840 464 917 q 497 199 439 603 q 501 153 501 165 q 474 138 501 118 q 430 183 456 150 q 389 247 404 215 q 314 551 331 360 q 321 710 311 583 q 331 847 331 838 q 313 990 335 956 q 292 1002 304 1004 q 272 982 281 1000 q 260 952 265 971 q 249 900 256 933 q 242 857 243 867 q 231 810 233 819 q 226 781 229 801 q 224 747 224 760 q 224 704 224 733 q 343 139 226 358 q 369 101 357 114 q 422 64 376 94 q 472 28 467 33 q 508 -18 500 3 q 505 -42 514 -32 q 476 -58 496 -53 q 439 -67 457 -64 q 397 -71 421 -69 q 271 -74 365 -74 q 211 -79 225 -74 q 181 -95 196 -85 q 156 -122 167 -106 q 143 -154 144 -137 q 186 -188 143 -185 q 268 -179 229 -192 q 309 -171 285 -176 q 338 -165 333 -165 q 360 -162 343 -164 q 389 -160 376 -160 q 428 -160 401 -160 q 575 -153 488 -160 q 757 -147 700 -143 q 825 -139 781 -150 q 879 -129 864 -131 q 910 -133 890 -129 q 952 -140 931 -136 q 979 -146 974 -144 q 1058 -138 1028 -153 q 1065 -85 1088 -124 q 1019 -53 1054 -64 q 1006 -49 1013 -50 q 993 -46 1000 -47 q 981 -44 986 -44 q 966 -42 975 -43 q 952 -42 957 -42 q 936 -42 947 -42 q 920 -42 925 -42 q 901 -42 915 -42 q 879 -42 886 -42 q 757 -51 810 -43 q 696 -60 715 -58 q 626 -43 647 -61 q 599 21 606 -25 q 594 126 597 35 q 582 207 593 186 q 572 228 572 226 q 567 242 571 229 q 563 262 564 254 q 561 294 563 269 q 556 543 556 389 q 559 572 556 567 q 589 583 563 576 q 674 629 631 596 q 742 694 718 663 q 761 740 756 713 q 774 953 782 850 q 764 1010 769 994 q 739 1044 758 1026 q 717 1049 728 1053 "},"乍":{"ha":1361,"x_min":168,"x_max":1025,"o":"m 219 1113 q 190 1078 196 1107 q 188 1069 190 1072 q 175 1031 176 1056 q 172 790 174 1008 q 169 258 169 560 q 200 -21 169 101 q 239 -128 217 -89 q 304 -185 261 -167 q 327 -194 311 -187 q 354 -205 343 -201 q 381 -211 365 -208 q 688 -200 538 -236 q 924 -68 843 -162 q 936 -53 925 -65 q 953 -34 947 -42 q 961 -19 958 -26 q 961 8 965 -8 q 946 24 957 24 q 903 10 939 24 q 853 -18 876 0 q 683 -94 785 -72 q 621 -109 668 -97 q 545 -126 574 -121 q 478 -132 517 -131 q 449 -132 456 -132 q 406 -117 428 -128 q 365 -93 385 -107 q 333 -64 346 -79 q 311 -22 321 -50 q 297 33 301 6 q 290 86 292 61 q 291 101 290 94 q 296 111 292 107 q 303 118 300 115 q 313 124 306 121 q 325 127 321 126 q 340 130 329 128 q 357 132 351 132 q 590 158 488 157 q 932 131 774 164 q 974 130 957 124 q 990 161 990 136 q 971 194 989 181 q 858 236 926 229 q 671 239 789 243 q 620 243 628 236 q 611 290 613 250 q 601 421 604 403 q 603 453 599 443 q 632 474 611 472 q 692 464 636 474 q 924 424 800 444 q 1001 414 993 411 q 1024 443 1024 419 q 1006 475 1024 467 q 676 561 1001 478 q 608 583 618 576 q 603 588 606 586 q 598 592 600 590 q 594 596 596 593 q 592 600 593 599 q 590 605 590 601 q 588 610 589 608 q 587 618 588 613 q 585 626 586 624 q 584 635 585 628 q 583 647 583 643 q 574 726 579 676 q 562 828 568 776 q 553 900 556 879 q 533 1044 536 1033 q 526 1060 531 1051 q 513 1076 521 1069 q 496 1082 504 1083 q 476 1072 483 1082 q 465 1049 468 1063 q 463 1021 461 1035 q 461 996 463 1014 l 460 978 l 461 954 q 508 338 493 489 q 505 263 514 289 q 463 232 496 238 q 331 203 365 217 q 286 221 301 193 q 286 222 286 222 q 279 288 281 232 q 279 294 279 293 q 278 339 279 297 q 276 431 278 381 q 274 535 275 482 q 272 623 274 588 q 271 658 271 658 q 263 865 269 658 q 254 1076 256 1072 q 242 1105 251 1093 q 219 1113 233 1117 "},"乎":{"ha":1361,"x_min":267,"x_max":813,"o":"m 526 1024 q 379 1004 436 1018 q 349 997 353 999 q 343 992 344 996 q 346 979 342 985 q 360 968 350 974 q 376 960 369 963 q 393 954 382 958 q 418 949 408 949 q 469 954 428 949 q 591 960 503 960 q 710 965 679 961 q 768 989 756 971 q 769 1018 779 1004 q 714 1038 758 1035 q 655 1037 686 1039 q 587 1030 624 1035 q 526 1024 550 1025 m 676 874 q 671 793 669 843 q 708 597 675 676 q 765 532 732 539 q 810 575 811 521 q 807 599 810 588 q 769 708 800 631 q 744 817 744 775 q 719 896 747 882 q 693 895 706 903 q 676 874 681 888 m 549 861 q 532 739 538 832 q 520 650 531 715 q 510 569 510 585 q 521 536 510 542 q 564 565 547 525 q 588 689 576 597 q 593 731 589 704 q 598 774 597 757 q 599 817 599 790 q 572 886 596 886 q 549 861 558 888 m 376 849 q 364 800 369 840 q 350 714 356 738 q 300 593 332 646 q 278 519 267 540 q 321 526 292 493 q 433 722 372 588 q 450 767 443 743 q 456 817 457 790 q 442 858 456 844 q 406 867 426 871 q 376 849 385 863 m 386 386 q 368 388 382 386 q 345 388 354 389 q 332 381 336 386 q 325 357 321 368 q 438 346 333 335 q 469 346 467 349 q 492 289 485 339 q 497 140 496 254 q 457 -19 499 43 q 442 -36 449 -31 q 408 -52 435 -40 q 361 -76 381 -64 q 340 -100 342 -89 q 414 -118 340 -129 q 586 210 596 -92 q 581 254 585 231 q 582 351 567 333 q 647 368 592 363 q 718 379 699 372 q 740 419 754 392 q 664 435 728 442 q 536 410 647 433 q 386 386 425 388 "},"乗":{"ha":1361,"x_min":204,"x_max":957,"o":"m 535 -14 q 538 -53 536 -24 q 547 -131 543 -118 q 592 -158 560 -172 q 606 -128 606 -151 q 601 -75 607 -104 q 604 93 592 -14 q 613 135 607 131 q 679 76 633 154 q 778 -62 725 1 q 799 -82 789 -76 q 829 -85 824 -94 q 828 -49 835 -75 q 798 33 818 0 q 743 99 778 67 q 651 183 661 174 q 631 215 636 201 q 649 269 621 240 q 683 300 656 278 q 735 346 718 328 q 768 390 761 372 q 768 404 772 399 q 732 401 760 415 q 621 318 722 396 q 605 324 614 315 q 593 344 596 332 q 590 399 588 364 q 668 526 596 458 q 691 540 681 538 q 722 536 701 543 q 757 519 740 531 q 815 469 774 507 q 863 431 843 443 q 918 408 883 418 q 947 409 938 401 q 944 438 956 417 q 892 486 933 456 q 838 530 872 500 q 767 585 803 560 q 739 604 742 601 q 733 615 733 610 q 749 642 732 629 q 782 654 765 654 q 832 636 799 654 q 911 600 894 603 q 940 612 935 594 q 929 644 944 629 q 864 694 918 657 q 807 731 822 724 q 781 735 794 736 q 755 728 765 735 q 740 715 744 722 q 724 692 735 708 q 690 651 703 658 q 669 646 681 646 q 629 660 649 644 q 603 690 610 675 q 596 736 597 701 q 591 785 594 742 q 589 844 588 828 q 608 865 590 864 q 654 858 629 865 q 703 839 669 853 q 801 797 776 806 q 851 789 826 789 q 882 792 868 789 q 888 847 925 803 q 846 878 872 868 q 771 894 819 889 q 657 911 679 904 q 600 950 621 922 q 576 1006 593 960 q 569 1024 571 1019 q 560 1032 567 1028 q 542 1032 553 1036 q 519 1021 525 1028 q 515 994 514 1014 q 515 985 515 990 q 515 948 517 957 q 500 928 513 939 q 449 904 492 919 q 328 858 356 871 q 267 822 288 840 l 250 804 q 268 764 222 763 q 346 785 299 765 q 424 831 375 797 q 514 847 497 881 q 522 815 517 842 q 533 724 531 764 q 533 690 535 693 q 508 668 531 679 q 480 653 488 657 q 458 649 472 649 q 435 660 444 650 q 404 708 426 667 q 397 721 400 717 q 390 728 394 725 q 378 733 385 732 q 363 733 372 735 q 322 708 340 733 q 272 654 303 681 q 214 593 231 619 q 206 565 206 579 q 229 553 204 542 q 300 611 238 558 q 339 643 332 639 q 368 639 353 650 q 392 600 388 626 q 382 554 396 574 q 343 518 371 540 q 283 469 292 479 q 264 426 268 451 q 265 413 263 417 q 304 422 271 399 q 341 452 311 428 q 397 497 371 476 q 432 519 424 517 q 450 521 440 524 q 496 483 468 515 q 532 425 524 450 q 542 368 540 403 q 536 307 543 333 q 510 299 531 289 q 477 324 496 306 q 439 365 458 342 q 411 394 419 388 q 394 407 399 406 q 365 399 368 419 q 376 365 365 385 q 474 258 418 296 q 497 238 488 249 q 507 222 506 228 q 507 210 508 217 q 499 188 506 204 q 429 75 469 122 q 368 -1 375 11 q 354 -56 353 -25 q 358 -75 354 -71 q 401 -56 369 -87 q 447 6 408 -49 q 515 94 493 68 q 524 103 521 101 q 529 101 528 104 q 533 88 531 97 q 538 24 536 72 l 539 -14 q 535 -14 538 -14 m 557 622 q 608 611 582 622 q 634 594 626 603 q 641 574 642 585 q 629 549 640 564 q 557 514 594 497 q 507 564 521 529 q 542 619 492 606 q 554 622 554 624 q 557 622 554 621 "},"乙":{"ha":1361,"x_min":71,"x_max":1219,"o":"m 246 1081 q 78 1011 103 1051 q 72 990 72 999 q 77 974 72 981 q 90 961 82 967 q 108 953 99 956 q 169 947 126 947 q 381 878 304 949 q 461 706 433 828 q 469 672 465 688 q 474 644 472 656 q 478 615 476 632 q 482 588 481 597 q 485 558 483 579 q 488 526 488 536 q 491 488 489 517 q 494 446 493 460 q 522 206 507 286 q 567 46 540 106 q 708 -116 607 -49 q 929 -192 808 -183 q 1094 -201 958 -194 q 1217 -178 1214 -207 q 1185 -125 1219 -161 q 1132 -87 1164 -106 q 1031 -42 1092 -67 q 945 13 976 -22 q 896 108 914 47 q 871 250 885 147 q 849 367 867 274 q 828 492 832 460 q 822 643 822 539 q 817 786 822 738 q 726 986 801 907 q 533 1092 650 1065 q 394 1103 451 1106 q 246 1081 336 1100 m 579 926 q 613 908 597 924 q 644 856 631 892 q 664 792 658 819 q 679 703 669 765 q 693 621 689 642 q 707 401 708 536 q 710 260 706 297 q 732 161 714 224 l 733 140 l 733 135 q 711 103 733 78 q 676 167 697 119 q 643 253 654 215 q 626 424 633 281 q 611 618 619 567 q 599 650 607 636 q 590 668 590 663 q 597 697 589 674 q 601 719 601 714 q 594 735 601 725 q 582 761 586 747 q 567 878 578 781 q 564 899 567 886 q 563 923 561 917 q 579 926 565 929 "},"九":{"ha":1361,"x_min":160,"x_max":1043,"o":"m 190 1071 q 210 1038 182 1050 q 308 1015 232 1028 q 374 1001 365 1006 q 401 983 383 997 q 433 955 418 969 q 456 931 449 940 q 436 893 482 894 q 368 900 415 893 q 288 904 336 904 q 210 897 239 904 q 161 861 161 888 q 165 851 163 854 q 170 846 167 847 q 182 842 174 844 q 294 829 217 831 q 379 835 307 829 q 453 832 432 840 q 463 786 474 824 q 442 745 457 767 q 410 714 426 724 q 299 682 381 697 q 246 669 261 674 q 213 654 222 663 q 194 621 197 638 q 205 600 192 607 q 241 595 218 593 q 283 601 264 597 q 321 610 303 604 q 467 682 407 635 q 478 691 474 688 q 485 699 482 694 q 491 706 489 704 q 495 715 493 708 q 498 724 497 721 q 501 738 499 728 q 507 756 504 749 q 529 807 518 796 q 564 821 539 818 q 638 810 599 825 q 694 769 676 796 q 640 665 733 715 q 565 632 618 653 q 503 606 525 615 q 456 578 482 596 q 419 539 431 561 q 406 486 408 517 q 431 408 403 444 q 496 356 460 371 q 548 342 521 343 q 624 344 575 342 q 710 344 690 347 q 750 335 733 343 q 782 304 771 325 q 795 258 793 283 q 794 199 797 232 q 787 137 792 165 q 778 78 782 108 q 775 28 774 47 q 776 6 775 13 q 797 -53 782 -22 q 831 -110 811 -83 q 871 -151 851 -136 q 908 -177 886 -164 q 959 -206 929 -190 q 1011 -221 989 -222 q 1036 -197 1033 -219 q 1011 -137 1043 -162 q 963 -111 997 -128 q 882 -49 907 -83 q 857 51 857 -14 q 871 163 857 79 q 882 265 882 232 q 774 400 881 376 q 656 411 750 406 q 531 429 561 417 q 483 488 483 453 q 524 547 483 522 q 616 590 544 561 q 726 645 688 619 q 778 713 765 671 q 782 764 785 739 q 650 872 771 829 q 582 892 622 882 q 542 906 551 899 q 521 939 532 914 q 481 997 506 974 q 328 1083 417 1057 q 278 1094 304 1090 q 226 1092 253 1097 q 190 1071 199 1088 "},"乞":{"ha":1361,"x_min":211,"x_max":944,"o":"m 213 1042 q 219 1007 213 1036 q 226 957 224 986 q 263 838 235 874 q 363 790 292 803 q 603 797 439 778 q 769 839 736 813 q 781 867 781 849 q 725 908 779 904 q 597 890 706 910 q 516 877 544 881 q 435 869 488 874 q 349 874 382 865 q 306 907 317 883 q 288 982 296 925 q 281 1021 285 1007 q 270 1048 278 1035 q 251 1063 263 1061 q 226 1059 238 1065 q 213 1042 214 1053 m 628 707 q 544 703 615 706 q 439 697 461 700 q 349 674 386 690 q 322 662 332 667 q 303 646 311 657 q 294 622 294 635 q 297 613 294 617 q 303 608 299 610 q 311 604 307 606 q 324 602 315 603 q 337 601 332 601 q 353 600 342 600 q 354 600 354 600 q 494 607 407 599 q 604 615 582 615 q 703 624 678 619 q 738 640 733 629 q 732 687 750 669 q 686 707 714 704 q 628 707 658 710 m 265 394 q 274 375 265 383 q 299 363 282 367 q 332 356 315 358 q 376 352 349 353 q 422 351 404 351 q 470 353 439 351 q 515 354 501 354 q 594 351 569 356 q 676 306 647 343 q 729 203 704 269 q 769 68 743 164 q 831 -108 804 -60 q 915 -192 876 -193 q 933 -133 943 -192 q 901 -31 926 -94 q 861 86 869 56 q 846 150 854 108 q 831 226 838 192 q 812 295 824 260 q 788 350 800 331 q 750 391 771 374 q 701 421 729 408 q 639 440 674 433 q 561 449 604 446 q 461 450 524 450 q 375 447 399 450 q 265 394 264 438 "},"也":{"ha":1361,"x_min":169,"x_max":1031,"o":"m 222 929 q 239 892 222 917 q 257 858 251 872 q 263 826 263 843 q 254 785 263 810 q 217 703 247 758 q 186 643 192 660 q 169 572 169 606 q 204 488 171 518 q 290 456 238 458 q 357 466 331 451 q 389 508 383 481 q 388 532 390 522 q 377 547 386 542 q 362 556 368 553 q 340 561 356 558 q 304 576 313 568 q 290 631 288 599 q 308 701 293 664 q 360 771 329 754 q 424 744 399 789 q 456 590 458 678 q 433 478 453 540 q 394 369 425 447 q 344 215 356 264 q 335 53 325 128 q 419 -83 350 -44 q 603 -103 488 -122 q 818 -26 713 -83 q 904 31 896 15 q 893 44 910 39 q 786 57 868 53 q 762 59 775 58 q 745 60 749 60 q 733 61 742 60 q 724 63 725 63 q 716 67 724 63 q 706 72 708 71 q 693 82 704 74 q 647 188 638 121 q 707 333 654 238 q 743 407 739 392 q 748 428 744 414 q 753 453 751 442 q 757 467 756 464 q 784 485 763 476 q 834 503 806 494 q 874 518 863 513 q 939 563 903 533 q 990 618 975 593 q 1019 744 1031 678 q 977 821 1013 789 q 888 870 942 853 q 775 896 833 888 q 651 904 717 904 q 538 892 606 904 q 501 885 528 890 q 464 878 474 879 q 429 873 454 876 q 397 871 404 869 q 369 872 390 872 q 351 881 360 874 q 319 917 346 883 q 301 939 307 932 q 281 952 294 946 q 253 956 268 958 q 222 929 221 949 m 679 621 q 669 490 679 539 q 657 436 664 457 q 641 399 650 415 q 613 358 632 382 q 597 338 608 351 q 583 319 586 324 q 572 303 579 314 q 562 286 565 293 q 555 269 558 279 q 549 246 551 258 q 567 114 536 186 q 604 49 582 76 q 640 -4 639 7 q 619 -27 640 -21 q 571 -29 597 -33 q 502 -8 536 -24 q 458 22 468 7 q 437 84 444 43 q 431 168 429 125 q 435 228 431 200 q 450 290 440 257 q 467 343 460 322 q 490 406 475 364 q 497 424 496 418 q 542 544 531 508 q 560 675 564 621 q 556 700 560 688 q 538 771 538 757 q 553 786 538 783 q 655 758 629 800 q 679 621 681 717 m 867 779 q 883 769 879 774 q 897 706 903 751 q 856 604 890 643 q 811 579 835 581 q 786 586 796 579 q 782 625 778 594 q 783 649 785 643 q 763 706 782 664 q 760 711 761 708 q 749 735 753 726 q 742 758 746 744 q 744 781 739 772 q 761 792 749 789 q 867 779 803 801 "},"亀":{"ha":1361,"x_min":64,"x_max":1232,"o":"m 131 669 q 133 661 131 665 q 157 628 138 653 q 181 588 179 600 q 154 565 182 565 q 140 567 151 564 q 114 573 128 569 q 97 578 100 576 q 70 569 74 581 q 83 544 67 557 q 142 510 96 535 q 164 494 163 497 q 166 469 171 481 q 149 457 161 458 q 122 462 144 457 q 82 466 99 467 q 65 453 65 465 q 81 417 65 433 q 114 399 97 401 q 144 403 126 396 q 172 416 161 410 q 192 417 183 422 q 201 386 201 411 q 199 325 203 368 q 196 300 196 310 q 198 279 196 290 q 201 264 200 268 q 208 244 203 260 q 215 219 213 228 q 220 206 217 215 q 224 192 224 196 q 227 182 225 189 q 230 172 229 175 q 231 163 231 168 q 229 154 231 157 q 226 147 228 151 q 219 140 224 143 q 210 135 215 138 q 178 128 201 129 q 134 124 154 126 q 107 113 114 121 q 124 92 101 104 q 126 90 125 90 q 149 69 149 79 q 135 49 149 58 q 116 34 122 39 q 119 14 110 29 q 155 22 129 4 q 188 40 181 40 q 199 35 196 40 q 206 14 203 29 q 219 -8 207 -8 q 236 8 228 -8 q 250 50 240 17 q 268 97 263 89 q 288 99 274 104 q 317 71 296 94 q 335 52 329 57 q 356 43 342 47 q 451 21 383 32 q 561 -4 533 6 q 599 -29 590 -15 q 618 -94 606 -40 q 628 -135 626 -128 q 637 -155 631 -143 q 654 -178 643 -167 q 804 -222 692 -214 q 824 -222 814 -222 q 843 -194 869 -218 q 786 -162 833 -185 q 761 -150 765 -153 q 701 -64 719 -124 q 743 19 685 -3 q 835 63 772 32 q 907 99 897 94 q 981 111 929 108 q 1000 112 989 114 q 1016 110 1011 110 q 1030 108 1021 111 q 1042 105 1039 106 q 1053 100 1044 104 q 1064 94 1061 96 q 1074 87 1067 92 q 1086 81 1082 82 q 1144 56 1126 56 q 1164 67 1157 56 q 1165 90 1171 78 q 1160 96 1164 93 q 1151 101 1156 99 q 1140 106 1147 103 q 1129 111 1132 110 q 1136 147 1099 126 q 1183 169 1149 154 q 1225 196 1215 185 q 1230 207 1229 201 q 1228 217 1231 213 q 1221 224 1226 221 q 1208 226 1215 226 q 1176 217 1201 226 q 1144 210 1151 207 q 1146 222 1139 213 q 1163 247 1153 232 q 1172 274 1174 263 q 1165 288 1172 281 q 1096 261 1139 310 q 1061 215 1085 247 q 1038 183 1043 189 q 1026 176 1033 178 q 994 179 1006 171 q 1001 282 979 196 q 1007 301 1003 288 q 1011 316 1011 314 q 1013 331 1011 318 q 1011 350 1014 344 q 989 429 1008 382 q 963 508 963 489 q 971 529 963 524 q 1039 554 981 535 q 1094 576 1076 567 q 1119 600 1115 588 q 1119 615 1122 607 q 1108 624 1115 622 q 1097 622 1106 625 q 1078 616 1088 619 q 1060 610 1069 613 q 1045 611 1051 608 q 1039 622 1039 614 q 1071 678 1038 635 q 1099 718 1093 706 q 1104 738 1104 729 q 1088 757 1104 754 q 1065 747 1078 758 q 1033 715 1058 742 q 992 678 1001 681 q 976 684 979 672 q 976 713 974 696 q 975 742 979 731 q 958 753 971 751 q 938 747 946 756 q 925 731 931 742 q 910 686 922 724 q 906 668 908 679 q 901 653 903 657 q 897 642 900 649 q 889 631 893 636 q 875 624 882 624 q 863 627 868 624 q 844 640 857 631 q 807 661 826 656 q 717 671 779 669 q 654 679 678 674 q 617 701 618 688 q 632 721 617 710 q 703 753 656 738 q 714 757 711 756 q 734 789 725 764 q 746 835 743 814 q 743 881 747 863 q 726 911 739 899 q 701 930 713 924 q 663 947 689 936 q 606 1019 603 972 q 607 1065 608 1057 q 599 1089 604 1081 q 585 1101 593 1097 q 561 1107 576 1104 q 541 1107 549 1108 q 530 1100 533 1106 q 528 1083 526 1094 q 533 1050 528 1072 q 547 978 547 989 q 540 962 546 967 q 515 953 535 957 q 478 939 490 949 q 434 888 451 921 q 417 818 417 854 q 478 735 419 756 q 503 731 481 733 q 529 726 525 729 q 538 713 535 722 q 538 693 540 703 q 532 685 535 689 q 526 678 529 681 q 517 672 522 675 q 508 666 511 668 q 497 661 504 664 q 485 656 489 658 q 472 652 481 654 q 458 649 463 650 q 444 644 454 647 q 431 640 435 642 q 354 613 383 626 q 312 588 335 603 q 278 567 289 572 l 271 565 q 256 570 260 565 q 244 590 251 575 q 242 597 243 594 q 211 658 221 646 q 158 685 190 686 q 131 669 131 683 m 653 910 q 671 868 674 903 q 647 819 668 833 q 618 819 629 808 q 607 850 607 829 q 619 897 608 878 q 653 910 631 917 m 514 790 q 486 815 494 790 q 487 860 479 838 q 510 890 494 882 q 536 890 528 901 q 546 850 544 878 q 514 790 550 792 m 819 597 q 919 450 883 557 q 942 344 938 397 q 937 244 947 292 q 903 164 926 197 q 778 76 861 106 q 586 50 694 46 q 476 65 531 53 q 377 100 422 78 q 307 151 332 122 q 269 235 285 178 q 251 353 253 292 q 278 497 247 447 q 444 594 318 561 q 569 619 501 610 q 710 624 638 628 q 819 597 783 621 "},"事":{"ha":1361,"x_min":238,"x_max":886,"o":"m 276 1026 q 292 1017 281 1022 q 365 982 333 993 q 413 959 394 971 q 447 928 432 947 q 469 882 461 908 q 467 843 476 857 q 433 829 457 829 q 409 837 419 829 q 371 876 399 844 q 363 885 365 882 q 355 893 361 888 q 344 901 349 899 q 333 907 340 904 q 320 909 326 910 q 307 907 314 908 q 317 849 288 899 q 321 842 319 844 q 324 836 322 839 q 327 832 325 833 q 331 828 329 831 q 335 826 332 826 q 338 824 338 825 q 343 822 339 824 q 349 820 347 821 q 357 818 351 819 q 365 815 363 817 q 457 789 450 792 q 471 772 468 783 q 477 731 474 767 q 481 690 481 696 q 463 674 479 681 q 424 665 449 669 q 383 667 400 661 q 374 696 379 672 q 365 723 368 719 q 354 726 361 726 q 338 715 343 726 q 331 690 332 704 q 331 660 329 675 q 335 636 332 646 q 359 579 342 613 q 390 533 376 546 q 410 520 396 526 q 440 508 424 514 q 463 499 456 503 q 481 462 486 483 q 451 435 476 440 q 365 439 433 431 q 282 444 306 446 q 253 438 258 444 q 260 403 242 428 q 290 381 274 385 q 382 390 304 378 q 447 392 421 399 q 481 361 472 386 q 483 333 483 350 q 479 311 482 317 q 467 306 476 307 q 401 302 456 303 q 318 299 347 301 q 265 287 282 294 q 247 257 247 279 q 263 247 247 247 q 307 249 282 246 q 357 253 332 251 q 529 250 485 256 q 590 236 560 247 q 626 215 621 225 q 620 200 632 207 q 576 186 608 193 q 322 167 463 161 q 310 167 318 167 q 298 167 303 167 q 286 168 293 168 q 275 168 279 168 q 266 167 271 168 q 258 166 261 167 q 251 165 254 165 q 246 163 247 164 q 243 158 244 161 q 256 135 238 146 q 288 124 274 125 q 370 119 311 121 q 481 119 429 117 q 485 119 482 119 q 490 120 489 119 q 494 121 492 121 q 601 146 568 128 q 626 154 615 154 q 649 145 640 154 q 659 121 657 136 q 662 87 661 106 q 661 50 663 68 q 661 -8 658 3 q 690 -71 667 -36 q 732 -122 713 -106 q 760 -142 742 -131 q 802 -164 779 -154 q 845 -173 825 -174 q 874 -154 865 -172 q 863 -107 886 -128 q 804 -78 850 -94 q 763 -58 768 -64 q 751 -43 758 -54 q 717 50 733 -10 q 700 149 701 110 q 703 183 699 172 q 726 217 707 194 q 764 275 758 257 q 733 363 781 331 q 619 411 682 400 q 595 417 606 414 q 571 424 585 419 q 549 434 557 429 q 534 447 542 439 q 528 465 526 456 q 535 486 531 474 q 565 513 540 496 q 643 569 629 554 q 672 617 657 583 q 688 731 719 721 q 660 706 675 735 q 645 684 651 690 q 627 674 639 678 q 601 668 615 669 q 574 667 588 667 q 547 669 560 667 q 531 675 538 671 q 522 686 525 679 q 515 704 518 693 q 517 753 511 729 q 536 793 522 776 q 568 815 550 810 q 583 822 576 818 q 643 867 621 843 q 682 931 665 890 q 686 943 686 940 q 682 954 686 946 q 681 957 681 957 q 676 961 679 961 q 671 958 674 960 q 666 956 668 957 q 661 951 664 954 q 657 947 658 949 q 653 940 656 944 q 649 933 650 936 q 615 891 628 904 q 574 861 601 878 q 565 856 571 860 q 557 851 560 853 q 551 847 554 849 q 544 844 547 844 q 538 845 542 844 q 533 849 535 846 q 528 856 531 851 q 522 896 525 861 q 519 921 521 913 q 513 935 517 929 q 503 950 510 940 q 374 1042 450 1011 q 329 1056 349 1053 q 303 1054 317 1057 q 276 1026 257 1049 m 601 604 q 557 561 586 576 q 533 562 542 553 q 526 586 524 571 q 572 628 533 619 q 601 628 593 633 q 601 604 610 622 m 443 619 q 469 597 457 615 q 474 563 482 578 q 438 567 464 547 q 411 603 411 588 q 422 617 411 613 q 443 619 432 622 m 563 371 q 663 346 618 367 q 686 331 682 338 q 696 301 692 322 q 699 264 700 281 q 694 248 697 251 q 681 247 690 244 q 639 266 667 251 q 597 285 611 281 q 584 290 593 288 q 570 296 575 293 q 556 302 565 299 q 542 309 547 306 q 532 317 538 313 q 524 326 526 322 q 520 336 521 331 q 522 349 519 342 q 531 363 525 356 q 563 371 542 374 "},"二":{"ha":1361,"x_min":54,"x_max":1175,"o":"m 875 776 q 482 740 765 763 q 219 701 311 728 q 125 589 54 654 q 313 535 185 533 q 415 544 364 536 q 579 575 467 551 q 757 601 658 592 q 978 640 882 615 q 1078 679 1065 664 q 1092 731 1096 697 q 1067 781 1089 765 q 1057 788 1061 786 q 1042 789 1053 789 q 1011 788 1031 789 q 875 776 949 786 m 969 308 q 735 285 882 300 q 490 260 589 271 q 293 235 392 249 q 108 179 140 213 q 115 117 79 151 q 219 69 153 81 q 400 75 279 60 q 611 113 467 85 q 660 123 631 117 q 700 131 690 129 q 730 135 710 132 q 767 140 750 139 q 808 143 783 142 q 869 146 833 144 q 894 147 878 147 q 984 153 956 150 q 1047 164 1013 156 q 1107 189 1082 172 q 1169 260 1161 225 q 1154 297 1175 282 q 1093 315 1133 313 q 969 308 1054 318 "},"五":{"ha":1361,"x_min":22,"x_max":1300,"o":"m 811 1038 q 674 1028 696 1032 q 610 1014 654 1025 q 581 1006 603 1011 q 559 1001 560 1000 q 540 997 558 1001 q 519 995 521 993 q 492 996 517 997 q 407 993 482 996 q 301 993 325 992 q 221 1003 278 994 q 167 1011 178 1010 q 85 1004 121 1017 q 36 963 49 992 q 43 910 24 932 q 92 886 63 888 q 158 897 107 885 q 252 909 208 911 q 324 881 296 907 q 396 769 351 856 q 483 625 429 703 q 499 600 490 614 q 514 578 508 586 q 526 560 519 571 q 540 542 533 550 q 554 524 546 533 q 571 504 563 514 q 622 426 615 454 q 624 392 626 408 q 590 301 618 354 q 551 217 556 236 q 506 139 546 186 q 474 97 479 108 q 449 29 468 86 q 389 -72 422 -49 q 326 -93 364 -90 q 208 -83 294 -96 q 35 -132 51 -61 q 74 -182 22 -181 q 143 -174 90 -183 q 229 -169 167 -171 q 393 -167 339 -169 q 449 -162 435 -165 q 501 -144 463 -160 q 519 -138 507 -143 q 533 -133 531 -133 q 544 -131 535 -132 q 560 -128 553 -129 q 581 -126 567 -128 q 713 -126 639 -122 q 738 -128 719 -128 q 764 -130 757 -129 q 784 -132 771 -131 q 806 -136 797 -133 q 825 -143 815 -139 q 856 -153 850 -153 q 874 -146 860 -153 q 913 -135 894 -135 q 1040 -149 946 -133 q 1146 -162 1115 -161 q 1185 -161 1168 -165 q 1249 -130 1217 -153 q 1292 -87 1282 -107 q 1296 -57 1299 -74 q 1276 -29 1293 -36 q 1224 -24 1260 -22 q 1198 -26 1214 -25 q 1169 -28 1182 -26 q 1142 -29 1157 -29 q 1121 -29 1128 -29 q 1033 33 1079 -24 q 978 118 1017 53 q 938 178 949 164 q 892 235 928 192 q 843 292 854 278 q 822 321 839 299 q 790 362 804 343 q 774 382 775 381 q 751 425 756 408 q 753 447 749 436 q 765 468 757 457 q 776 483 774 479 q 838 674 797 531 q 883 833 878 817 q 889 851 885 838 q 894 867 893 864 q 899 880 896 871 q 906 892 903 889 q 913 901 908 894 q 924 910 918 907 q 937 916 929 913 q 954 921 944 919 q 1085 928 983 928 q 1206 951 1176 926 q 1226 1001 1225 968 q 1215 1033 1226 1021 q 1181 1051 1203 1046 q 1136 1059 1160 1057 q 1081 1059 1113 1061 q 1026 1054 1050 1057 q 975 1047 1003 1051 q 935 1042 947 1043 q 811 1038 924 1042 m 786 856 q 772 808 783 842 q 744 715 764 786 q 700 593 725 647 q 678 554 683 558 q 667 553 672 550 q 639 588 658 558 q 575 677 629 603 q 514 763 521 751 q 468 847 482 813 q 461 871 463 861 q 462 879 461 875 q 466 886 463 883 q 472 890 469 889 q 479 893 474 892 q 488 895 485 894 q 498 897 490 896 q 510 899 506 899 q 601 903 543 904 q 653 903 625 901 l 681 904 l 710 908 q 774 910 753 919 q 786 856 796 900 m 772 -49 q 685 -57 751 -49 q 597 -67 618 -65 q 550 -64 564 -67 q 532 -50 532 -61 q 544 -12 532 -39 q 558 13 546 -11 q 583 63 569 36 q 603 104 597 90 q 642 191 607 114 q 682 278 678 268 q 697 294 686 290 q 717 292 707 297 q 735 281 726 288 q 769 218 746 269 q 804 154 793 171 q 842 108 815 138 q 913 19 894 51 q 923 -15 922 0 q 915 -38 924 -29 q 888 -49 906 -47 q 851 -51 869 -51 q 809 -49 833 -50 q 772 -49 785 -49 "},"井":{"ha":1361,"x_min":103,"x_max":1163,"o":"m 276 322 q 244 322 264 321 q 208 325 224 324 q 172 327 192 326 q 140 325 151 328 q 116 316 128 322 q 104 297 104 310 q 110 265 104 285 q 122 238 115 249 q 139 219 128 228 q 167 204 150 211 q 228 189 171 203 q 286 175 285 175 q 296 165 296 171 q 271 65 300 144 q 219 -50 247 4 q 199 -90 213 -61 q 178 -135 186 -118 q 160 -169 164 -160 q 179 -224 135 -225 q 219 -215 204 -222 q 251 -187 233 -207 q 313 -102 282 -158 q 356 0 344 -46 q 365 38 358 8 q 393 140 382 115 q 421 180 406 169 q 471 192 436 190 q 524 190 479 192 q 575 188 569 188 q 644 190 596 186 q 710 194 692 193 q 817 185 781 197 q 871 133 853 174 q 897 50 881 111 q 931 -58 919 -35 q 964 -99 946 -90 q 1021 -97 1000 -115 q 1043 -42 1042 -78 q 1032 1 1044 -21 q 1024 15 1029 6 q 1017 26 1018 25 q 1013 36 1017 28 q 1009 46 1008 44 q 1007 57 1010 47 q 1006 71 1004 67 q 1007 89 1008 75 q 1007 93 1007 90 q 1001 114 1008 107 q 996 119 999 117 q 983 156 978 142 q 1015 176 989 171 q 1061 179 1022 178 q 1139 194 1117 182 q 1150 249 1161 207 q 1118 296 1140 286 q 1056 303 1101 303 q 974 310 1001 301 q 945 325 950 317 q 939 365 940 333 q 928 433 938 396 q 896 578 901 535 q 894 629 892 608 q 904 661 897 649 q 919 680 911 674 q 944 688 928 686 q 976 689 961 690 q 1018 685 992 688 q 1078 681 1056 679 q 1133 698 1118 682 q 1147 753 1149 714 q 1133 793 1146 779 q 1099 808 1121 807 q 1055 807 1076 810 q 1003 799 1033 804 q 957 794 974 794 q 902 811 913 793 q 892 889 892 829 q 907 1013 892 929 q 912 1035 910 1024 q 915 1051 914 1046 q 918 1064 917 1057 q 919 1074 919 1071 q 919 1085 919 1078 q 919 1099 919 1093 q 918 1113 919 1110 q 884 1131 911 1126 q 832 1132 857 1136 q 808 1123 813 1128 q 803 1096 803 1118 q 800 1064 803 1082 q 779 888 788 996 q 760 819 775 839 q 704 794 746 799 q 618 800 681 792 q 553 807 575 806 q 515 803 540 808 q 486 797 490 797 q 474 799 479 797 q 467 805 469 800 q 462 815 464 810 q 457 831 460 821 q 449 936 453 853 q 447 960 447 944 q 444 1019 446 999 q 437 1067 442 1039 q 420 1106 432 1094 q 390 1115 408 1117 q 331 1093 353 1110 q 318 1017 313 1078 q 331 931 319 1001 q 343 847 343 860 q 335 792 344 811 q 290 766 325 772 q 218 763 254 760 q 156 756 182 765 q 133 718 129 746 q 163 679 138 688 q 243 672 189 671 q 281 672 264 672 q 312 670 299 672 q 335 662 325 668 q 349 643 344 656 q 356 613 354 631 q 350 542 356 592 q 347 467 346 508 q 349 390 350 421 q 332 341 349 358 q 276 322 315 324 m 768 654 q 771 594 772 638 q 769 586 769 589 q 768 531 768 547 q 776 497 768 525 q 792 438 785 468 q 800 377 799 408 q 786 326 801 346 q 739 307 771 306 q 633 306 701 307 q 531 304 556 303 q 447 336 461 308 q 450 383 439 350 q 460 432 461 415 q 452 510 460 450 q 444 582 444 571 q 453 663 440 643 q 499 683 460 674 q 585 696 539 692 q 670 694 622 699 q 741 680 718 689 q 766 663 764 671 q 768 654 768 654 "},"亙":{"ha":1361,"x_min":136,"x_max":1089,"o":"m 333 1053 q 256 1048 282 1050 q 197 1035 231 1046 q 144 1007 163 1025 q 138 994 138 999 q 137 993 138 993 q 136 988 136 993 q 137 982 136 982 q 138 981 138 982 q 174 947 139 965 q 222 933 199 935 q 286 938 246 932 q 460 950 335 944 q 571 958 539 953 q 617 974 603 963 q 633 1022 635 988 q 606 1058 631 1056 q 333 1053 561 1064 m 413 790 q 321 783 358 788 q 311 782 318 783 q 253 774 275 778 q 204 758 232 769 q 168 728 176 746 q 168 633 160 711 q 206 461 178 547 q 322 283 238 363 q 569 168 400 211 q 818 114 694 136 q 838 110 819 114 q 864 104 857 106 q 891 99 871 103 q 922 94 911 96 q 952 92 933 93 q 983 90 971 90 q 1012 92 996 90 q 1039 97 1028 93 q 1060 106 1050 100 q 1078 119 1071 113 q 1088 149 1089 132 q 1068 172 1088 160 q 1058 178 1060 178 q 1053 180 1057 178 q 1042 186 1049 182 q 1031 192 1035 190 q 1010 202 1028 193 q 987 213 992 211 q 967 223 982 215 q 945 235 951 231 q 926 247 939 239 q 907 260 914 254 q 890 273 900 265 q 872 288 879 281 q 857 306 864 296 q 769 417 788 389 q 744 458 750 444 q 728 526 736 479 q 719 614 721 574 q 708 701 717 674 q 667 751 699 728 q 650 761 651 761 q 647 763 649 761 q 413 790 593 799 m 569 650 q 599 564 582 628 q 646 417 621 482 q 689 331 663 371 q 692 326 692 326 q 694 322 692 326 q 736 256 728 275 q 728 234 742 240 q 686 231 715 228 q 560 257 631 233 q 549 261 554 258 q 542 265 544 264 q 536 265 540 265 q 522 271 536 265 q 321 479 397 322 q 303 521 311 499 q 288 572 294 543 q 284 627 281 601 q 302 668 288 653 q 392 694 317 683 q 503 693 454 704 q 569 650 553 682 m 431 474 q 457 422 436 442 q 508 413 478 401 q 536 434 525 418 q 551 471 547 450 q 549 513 554 492 q 506 547 539 543 q 444 533 465 553 q 431 474 424 514 m 410 19 q 391 21 396 19 q 373 17 386 22 q 356 11 360 13 q 340 3 351 10 q 326 -4 328 -3 q 318 -7 324 -4 q 310 -11 313 -10 q 303 -15 307 -12 q 297 -21 299 -18 q 296 -28 296 -24 q 299 -39 296 -33 q 342 -75 307 -54 q 564 -144 417 -117 q 597 -151 575 -146 q 633 -158 619 -156 q 667 -163 646 -160 q 703 -169 688 -167 q 740 -172 719 -171 q 778 -172 760 -172 q 831 -168 822 -169 q 875 -137 868 -161 q 876 -115 875 -124 q 869 -99 876 -107 q 858 -87 863 -92 q 843 -81 854 -83 q 825 -76 832 -78 q 806 -72 818 -74 q 569 -22 758 -65 q 518 -10 546 -18 q 460 6 490 -3 q 410 19 429 14 "},"亜":{"ha":1361,"x_min":153,"x_max":1056,"o":"m 353 939 q 372 906 353 931 q 383 889 378 899 l 383 878 q 357 805 385 835 q 288 774 329 775 q 268 775 275 772 q 217 806 250 779 q 169 833 181 833 q 155 813 156 835 q 158 774 154 790 q 164 585 168 696 q 161 374 158 451 q 175 254 164 326 q 186 138 186 185 q 188 76 185 92 q 204 49 190 60 q 254 88 235 25 q 257 101 254 89 q 263 122 260 113 q 267 135 265 132 q 278 142 269 139 q 296 147 286 146 q 315 146 306 149 q 369 113 344 140 q 399 57 393 85 q 395 23 404 33 q 363 10 386 13 q 332 4 340 6 q 317 -5 324 3 q 311 -26 311 -12 q 364 -61 313 -56 q 539 -51 401 -65 q 771 -35 707 -35 q 896 -25 863 -33 q 925 -3 917 -21 q 910 26 933 13 q 858 47 899 33 q 849 51 856 49 q 840 53 842 53 q 836 56 839 54 q 833 61 833 58 q 832 68 832 64 q 836 93 832 78 q 855 141 846 128 q 889 168 864 154 q 974 153 958 204 q 978 104 978 140 q 979 74 978 76 q 994 51 982 58 q 1019 50 1006 43 q 1047 113 1039 60 q 1049 354 1056 172 q 1039 543 1046 440 q 1018 849 1024 819 q 1003 889 1013 879 q 972 896 989 901 q 959 883 964 893 q 953 863 954 872 q 950 832 951 853 q 949 825 949 826 q 948 810 949 819 q 947 797 947 800 q 946 787 947 793 q 943 778 944 781 q 939 772 942 775 q 932 765 936 768 q 906 756 919 757 q 881 757 893 754 q 858 766 869 760 q 839 781 847 772 q 824 799 831 789 q 811 822 817 808 q 804 848 806 835 q 806 874 803 861 q 816 894 808 886 q 869 917 824 901 q 877 920 871 918 q 885 923 883 922 q 893 926 888 924 q 900 929 899 928 q 906 933 901 931 q 912 937 910 935 q 916 942 914 939 q 919 948 918 944 q 922 956 921 951 q 922 964 922 960 q 867 986 921 990 q 775 971 826 981 q 674 954 699 954 q 571 957 647 953 q 486 959 531 960 q 414 960 442 958 q 367 959 382 963 q 353 939 351 956 m 719 879 q 751 842 740 872 q 767 775 757 826 q 783 715 776 728 q 814 690 794 696 q 860 688 825 686 q 911 685 896 688 q 942 672 926 683 q 958 638 954 664 q 960 573 961 613 q 960 528 960 533 q 966 448 960 507 q 974 376 972 389 q 974 336 975 344 q 964 294 971 310 q 940 267 957 278 q 910 251 924 256 q 864 239 897 247 q 840 232 849 235 q 824 225 832 229 q 810 215 815 221 q 799 201 804 210 q 775 136 788 185 q 761 85 765 96 q 741 59 753 67 q 706 53 729 51 q 650 50 674 54 q 597 39 646 50 q 542 26 547 28 q 499 24 515 22 q 476 29 485 25 q 461 43 467 33 q 453 61 456 53 q 447 89 450 69 q 444 97 446 94 q 438 133 439 125 q 429 153 436 142 q 410 174 422 165 q 390 185 399 182 q 370 190 382 189 q 332 193 358 192 q 268 210 283 194 q 260 256 258 218 q 261 307 263 292 q 250 401 258 335 q 242 464 244 440 q 237 508 239 488 q 235 543 235 528 q 235 572 235 558 q 238 607 236 586 q 247 671 240 653 q 258 690 251 683 q 279 703 265 697 q 302 710 293 708 q 335 717 311 711 q 422 753 397 728 q 453 817 440 772 q 481 873 465 861 q 551 890 496 885 q 645 891 594 894 q 719 879 696 888 "},"亡":{"ha":1361,"x_min":115,"x_max":1119,"o":"m 593 1097 q 572 994 585 1078 q 553 821 567 964 q 538 660 540 678 q 421 379 511 464 q 310 313 378 339 q 285 303 293 306 q 269 301 278 301 q 257 304 261 300 q 251 318 253 308 q 250 394 247 339 q 253 476 253 435 q 257 561 254 518 q 265 675 260 604 q 269 882 278 833 q 228 1006 257 950 q 207 1036 217 1026 q 189 1044 199 1043 q 169 1043 179 1046 q 151 1035 160 1040 q 138 1024 143 1029 q 124 868 117 997 q 130 736 129 767 q 126 579 131 706 q 125 336 125 451 q 145 109 125 221 q 208 -69 165 -3 q 300 -151 246 -126 q 533 -206 392 -192 q 815 -198 674 -221 q 1026 -114 956 -175 q 1056 -85 1046 -97 q 1060 -72 1060 -76 q 986 -60 1060 -54 q 926 -65 954 -62 q 885 -69 897 -68 q 839 -72 872 -71 q 746 -75 806 -74 q 582 -79 629 -79 q 378 -46 458 -76 q 265 58 297 -15 q 276 171 236 128 q 356 221 297 193 q 388 236 378 231 q 410 247 399 242 q 431 260 421 253 q 449 275 440 268 q 476 299 458 282 q 529 342 515 331 q 576 361 558 361 q 593 360 586 363 q 681 317 618 353 q 760 275 718 294 q 866 235 828 244 q 982 228 904 226 q 1113 247 1089 231 q 1118 261 1118 251 q 1110 279 1118 274 q 1084 288 1101 285 q 1063 293 1067 292 q 946 332 1032 304 q 785 388 833 365 q 654 506 672 438 q 651 649 643 553 q 667 774 651 660 q 683 908 682 888 q 682 979 686 951 q 673 1015 679 994 q 658 1055 667 1036 q 640 1086 649 1074 q 626 1099 635 1093 q 608 1107 618 1106 q 593 1097 599 1108 "},"交":{"ha":1361,"x_min":247,"x_max":860,"o":"m 478 876 q 436 826 465 857 q 376 772 424 814 q 279 678 306 710 q 266 657 274 671 q 253 626 258 643 q 253 599 249 610 q 275 588 258 588 q 318 601 292 588 q 436 694 403 649 q 460 718 453 718 q 469 712 464 718 q 477 698 474 706 q 482 685 481 690 q 478 633 483 674 q 469 579 474 593 q 424 499 454 542 q 378 415 392 454 q 374 315 365 376 q 432 169 385 235 q 456 142 440 158 q 481 114 471 126 q 499 85 490 101 q 506 51 508 69 q 489 11 503 32 q 431 -46 481 -1 q 371 -103 383 -87 q 356 -129 363 -115 q 347 -155 349 -143 q 349 -174 346 -167 q 375 -183 358 -186 q 404 -171 392 -181 q 469 -104 419 -161 q 532 -36 519 -47 q 581 -10 561 -11 q 603 -16 590 -10 q 654 -54 617 -22 q 739 -122 721 -111 q 778 -135 756 -133 q 817 -124 800 -136 q 801 -53 849 -96 q 732 -8 778 -32 q 682 29 697 10 q 668 48 678 35 q 651 73 658 61 q 643 86 643 85 q 644 97 642 90 q 663 119 646 100 q 733 246 710 176 q 748 327 747 286 q 738 407 749 368 q 712 478 726 446 q 675 547 697 510 q 621 647 631 624 q 615 721 597 710 q 685 697 626 729 q 738 655 700 688 q 779 619 775 622 q 842 597 810 596 q 851 599 849 597 q 858 618 858 607 q 847 647 857 629 q 831 676 838 665 q 817 696 824 688 q 715 782 806 711 q 632 854 656 829 q 592 908 600 888 q 585 979 583 929 q 549 1051 586 1035 q 512 1053 522 1060 q 498 1022 501 1046 q 495 972 494 997 q 492 919 496 947 q 478 876 488 890 m 604 496 q 649 356 639 442 q 644 275 654 310 q 608 197 635 240 q 576 165 592 171 q 561 164 569 163 q 508 208 528 171 q 481 294 488 244 q 485 445 468 378 q 550 526 501 513 q 604 496 578 536 "},"亥":{"ha":1361,"x_min":210,"x_max":940,"o":"m 397 1031 q 435 974 399 990 q 506 967 471 960 q 558 1005 540 975 q 561 1071 576 1035 q 496 1107 544 1110 q 424 1086 453 1106 q 397 1031 396 1067 m 854 874 q 847 890 856 885 q 823 893 839 894 q 792 890 807 892 q 755 881 776 888 q 721 871 733 875 q 692 861 708 867 q 574 828 615 836 q 504 821 535 819 q 408 842 474 821 q 331 864 354 858 q 290 868 310 868 q 247 829 247 867 q 253 806 247 815 q 267 794 260 797 q 292 785 275 790 q 297 782 294 783 q 382 746 335 769 q 485 675 474 699 q 483 660 486 669 q 464 621 478 642 q 322 493 422 553 q 292 479 311 486 q 247 451 258 465 q 238 429 239 440 q 244 409 238 418 q 261 394 250 400 q 286 389 272 389 q 315 396 300 390 q 407 453 343 406 q 479 501 460 490 q 542 497 526 526 q 560 381 557 467 q 557 310 561 340 q 536 257 554 281 q 465 188 513 228 q 378 128 417 149 q 321 107 367 121 q 246 78 264 89 q 215 32 211 58 q 313 14 221 -6 q 436 57 365 25 q 554 122 507 89 q 678 278 653 193 q 683 324 685 303 q 697 376 679 357 q 746 388 714 394 q 778 372 764 383 q 799 342 792 360 q 808 303 806 324 q 809 258 811 282 q 803 213 807 235 q 793 169 799 190 q 700 11 764 72 q 514 -122 613 -69 q 510 -125 513 -124 q 472 -142 483 -139 q 417 -151 460 -146 q 403 -153 408 -151 q 361 -160 374 -156 q 313 -182 333 -167 q 294 -219 293 -197 q 301 -239 294 -231 q 319 -251 308 -247 q 342 -258 329 -256 q 369 -260 356 -260 q 394 -258 382 -260 q 444 -244 417 -254 q 507 -219 472 -235 q 551 -200 542 -204 q 619 -165 589 -186 q 710 -97 650 -144 q 785 -31 749 -67 q 851 40 822 4 q 896 106 879 75 q 928 192 919 144 q 919 344 940 267 q 853 464 897 422 q 806 492 828 486 q 738 493 783 499 q 671 503 686 486 q 614 653 651 522 q 610 679 610 671 q 614 707 608 694 q 704 775 631 743 q 749 794 718 782 q 813 824 800 815 q 854 874 853 851 "},"亦":{"ha":1361,"x_min":211,"x_max":940,"o":"m 549 951 q 551 918 549 939 q 553 883 553 897 q 554 853 554 869 q 551 825 554 838 q 540 804 547 813 q 465 747 522 781 q 400 711 451 739 q 301 651 346 681 q 242 606 258 624 q 215 556 219 582 q 220 524 211 533 q 244 517 229 515 q 274 523 260 518 q 301 535 289 528 q 358 578 317 543 q 371 588 363 581 q 557 657 539 732 q 562 577 563 615 q 557 467 561 539 q 553 365 553 396 q 529 248 554 306 q 458 121 504 190 q 358 -44 414 49 q 347 -64 353 -53 q 340 -79 342 -75 q 333 -88 338 -83 q 325 -97 329 -93 q 300 -171 271 -144 q 363 -156 326 -194 q 419 -62 388 -129 q 433 -37 426 -49 q 460 6 440 -25 q 569 157 531 115 q 603 188 590 179 q 617 190 613 189 q 627 184 622 192 q 634 172 632 176 q 639 158 636 168 q 640 154 640 156 q 660 115 646 133 q 706 57 669 103 q 779 -40 754 -3 q 833 -107 800 -72 q 889 -151 867 -142 q 929 -135 919 -165 q 926 -75 939 -106 q 885 -1 917 -42 q 838 51 875 10 q 804 89 817 74 q 785 112 792 104 q 765 138 779 119 q 733 178 751 157 q 663 272 678 249 q 640 315 646 300 q 632 360 635 329 q 635 483 628 401 q 640 528 635 488 q 649 609 644 568 q 653 665 653 650 q 656 693 653 686 q 667 703 661 701 q 683 702 674 706 q 699 696 693 699 q 717 685 704 693 q 782 640 728 678 q 854 596 835 604 q 888 586 874 586 q 908 597 900 588 q 914 619 917 607 q 860 700 907 661 q 706 799 785 763 q 658 826 669 815 q 638 871 642 842 q 637 910 635 888 q 638 958 639 933 q 635 1001 638 982 q 619 1031 632 1021 q 583 1038 607 1042 q 553 1012 560 1032 q 549 951 547 992 m 804 215 q 851 279 838 217 q 851 285 851 282 q 847 439 865 364 q 800 489 832 501 q 767 442 781 481 q 750 349 753 403 q 760 255 747 296 q 804 215 774 214 m 333 428 q 281 333 313 401 q 240 226 249 265 q 244 182 235 199 q 278 174 253 165 q 314 201 294 181 q 408 347 383 276 q 397 432 431 414 q 363 440 382 440 q 333 428 343 439 "},"享":{"ha":1361,"x_min":186,"x_max":967,"o":"m 546 1071 q 454 975 526 1042 q 399 921 415 938 q 357 864 375 896 q 324 821 338 832 q 286 796 317 815 q 231 758 256 776 q 200 726 206 739 q 203 699 194 713 q 257 688 214 679 q 322 708 278 693 q 369 722 365 722 q 399 669 396 717 q 389 567 401 639 q 361 310 374 472 q 358 273 360 279 q 351 265 356 267 q 333 261 347 263 q 250 228 281 257 q 213 8 188 165 q 250 -126 224 -62 q 472 -229 290 -221 q 704 -196 588 -235 q 868 -75 846 -150 q 869 -29 872 -61 q 868 30 867 14 q 879 89 869 46 q 889 153 889 133 q 868 217 888 199 q 826 236 858 225 q 797 251 804 244 q 786 293 789 258 q 785 332 785 311 q 786 395 785 364 q 788 445 788 426 q 789 497 789 464 q 789 563 789 529 q 789 679 786 660 q 817 803 804 792 q 831 804 822 806 q 872 779 842 801 q 888 767 886 769 q 901 760 890 765 q 919 756 911 756 q 939 761 928 757 q 960 777 953 767 q 965 801 967 788 q 953 832 963 815 q 899 889 931 867 q 740 992 865 914 q 621 1064 636 1057 q 589 1079 601 1075 q 565 1082 576 1083 q 546 1071 553 1081 m 488 750 q 491 815 486 771 q 504 871 496 858 q 547 911 517 892 q 559 920 557 919 q 570 924 561 921 q 585 921 579 926 q 668 886 628 908 q 704 860 700 869 q 706 799 710 843 q 696 746 703 756 q 660 742 690 736 q 604 740 639 746 q 529 728 550 729 q 497 731 506 728 q 488 750 488 735 m 683 644 q 700 619 696 639 q 700 563 704 599 q 688 521 696 526 q 646 515 683 518 q 558 513 613 513 q 485 519 503 514 q 475 529 476 522 q 474 565 474 543 q 475 610 474 588 q 479 636 476 632 q 504 643 482 642 q 683 644 643 660 m 668 415 q 686 406 683 411 q 690 333 693 385 q 682 268 688 282 q 631 253 678 256 q 492 256 550 246 q 475 261 476 258 q 469 324 472 267 q 472 403 468 381 q 478 415 475 413 q 494 418 482 418 q 503 418 500 418 q 668 415 622 428 m 629 176 q 668 176 658 176 q 701 174 678 176 q 731 168 724 172 q 751 156 739 164 q 768 136 764 149 q 772 106 772 124 q 739 -46 775 22 q 715 -74 729 -64 q 649 -103 692 -90 q 556 -122 606 -117 q 461 -125 506 -128 q 396 -111 415 -122 q 350 -62 372 -99 q 319 17 328 -25 q 319 154 292 135 q 356 168 331 163 q 424 178 386 175 q 483 181 461 181 q 559 179 506 181 q 629 176 613 178 "},"京":{"ha":1361,"x_min":204,"x_max":949,"o":"m 842 -97 q 863 -78 860 -97 q 863 -28 865 -60 q 871 113 861 13 q 856 307 885 254 q 813 339 849 318 q 801 344 810 340 q 791 350 793 349 q 783 356 789 351 q 776 363 778 360 q 770 370 774 365 q 765 381 767 375 q 763 396 764 388 q 761 461 760 417 q 767 651 764 628 q 781 729 772 724 q 797 731 785 732 q 869 711 813 729 q 889 706 881 708 q 909 702 897 704 q 927 701 921 700 q 940 706 933 703 q 947 717 947 708 q 943 738 947 725 q 922 756 940 749 q 861 775 906 764 q 745 819 806 789 q 665 875 685 850 q 635 951 654 888 q 633 963 635 954 q 629 976 631 972 q 625 987 628 979 q 620 996 622 994 q 614 1002 618 997 q 606 1005 610 1007 q 594 1003 601 1003 q 576 965 581 999 q 568 926 571 932 q 478 850 549 893 q 342 788 408 807 l 303 786 q 286 786 297 786 q 253 784 264 785 q 227 780 242 783 q 208 769 213 776 q 208 749 204 761 q 274 707 222 706 q 354 731 303 708 q 400 744 392 746 q 411 728 407 743 q 421 585 422 685 q 399 375 418 419 q 381 358 393 363 q 340 356 369 354 q 314 356 324 357 q 299 354 304 356 q 242 221 240 335 q 251 88 243 189 q 254 21 257 38 q 247 -74 247 -54 q 258 -115 249 -106 q 277 -119 268 -122 q 290 -106 286 -115 q 303 -40 300 -86 q 304 40 307 6 q 294 210 293 179 q 301 259 296 246 q 322 285 306 272 q 419 319 358 310 q 528 308 483 329 q 561 231 558 293 q 554 118 561 211 q 550 -42 547 6 q 550 -50 550 -44 q 550 -58 550 -56 q 551 -66 550 -61 q 551 -73 551 -71 q 553 -78 551 -75 q 555 -82 554 -81 q 558 -85 556 -83 q 563 -88 560 -87 q 568 -89 565 -89 q 599 -82 589 -93 q 609 -51 608 -71 q 610 -10 610 -32 q 611 246 603 88 q 618 306 613 296 q 650 321 624 317 q 776 308 708 331 q 819 200 818 294 q 814 128 819 185 q 808 -6 807 47 q 842 -97 808 -99 m 632 692 q 590 689 614 692 q 476 701 504 682 q 457 744 458 714 q 458 766 457 758 q 463 780 460 774 q 474 794 467 786 q 572 858 510 835 q 589 861 581 863 q 654 816 615 856 q 703 749 693 776 q 708 721 708 733 q 699 699 707 708 q 676 690 692 690 q 656 691 668 690 q 632 692 643 692 m 700 608 q 654 543 742 550 q 590 545 649 543 q 528 547 531 547 q 511 542 519 546 q 469 557 482 526 q 488 617 458 585 q 535 639 506 636 q 700 608 667 654 m 629 481 q 655 475 650 475 q 672 481 660 475 q 692 485 689 486 q 700 469 696 485 q 708 435 704 453 q 710 398 711 417 q 700 375 708 379 q 631 367 694 372 q 493 360 536 357 q 468 363 474 360 q 463 389 461 365 q 468 436 464 413 q 476 474 472 460 q 508 496 481 490 q 540 498 517 500 q 570 494 563 496 q 599 488 578 493 q 629 481 621 482 "},"人":{"ha":1361,"x_min":251,"x_max":854,"o":"m 388 1067 q 400 1010 386 1044 q 431 968 414 976 q 488 949 435 967 q 621 879 583 914 q 635 746 674 828 q 535 594 608 689 q 444 496 518 574 q 283 321 300 343 q 254 250 251 278 q 283 228 257 228 q 333 249 303 229 q 454 371 396 293 q 519 459 501 438 q 581 529 536 481 l 606 554 q 688 558 682 619 q 696 507 688 556 q 701 473 697 490 q 706 445 704 456 q 710 422 708 435 q 713 396 711 410 q 717 364 715 382 q 724 279 718 346 q 732 189 729 213 q 740 116 735 165 q 752 28 746 67 q 767 -47 758 -10 q 783 -129 776 -87 q 794 -189 793 -183 q 825 -218 804 -232 q 840 -199 833 -212 q 849 -171 846 -186 q 852 -139 851 -156 q 851 -108 853 -122 q 836 27 846 -44 q 818 206 826 99 q 782 600 803 394 q 770 713 775 674 q 754 803 765 751 q 728 884 743 854 q 690 944 714 914 q 632 997 665 975 q 513 1051 603 1015 q 410 1089 431 1085 q 392 1087 397 1092 q 388 1067 388 1082 "},"今":{"ha":1361,"x_min":225,"x_max":924,"o":"m 576 976 q 564 943 572 969 q 555 917 560 929 q 547 897 550 906 q 530 861 543 889 q 504 807 517 833 q 346 435 400 585 q 244 89 290 281 q 237 56 239 69 q 231 15 235 43 q 231 -30 226 -14 q 247 -44 235 -46 q 281 -24 261 -44 q 313 21 301 -4 q 322 44 317 29 q 408 322 392 246 q 442 367 417 360 q 499 375 449 369 l 518 378 l 543 376 q 696 360 661 371 q 726 338 718 353 q 753 235 751 290 q 742 193 754 194 q 640 200 739 193 q 576 203 608 204 q 522 190 544 201 q 489 126 493 175 q 491 55 486 97 q 503 -10 496 13 q 538 -65 511 -36 q 588 -68 564 -93 q 598 -47 597 -58 q 594 -11 599 -35 q 586 61 588 47 q 594 94 585 86 q 632 101 604 101 q 768 99 656 100 q 782 94 776 97 q 790 88 788 90 q 796 76 793 85 q 799 65 799 68 q 802 49 800 61 q 806 32 804 36 q 828 -65 819 -43 q 861 -82 838 -94 q 896 65 924 -49 q 883 115 893 81 q 855 214 874 150 q 803 390 836 278 q 714 675 746 582 q 669 815 679 776 q 662 856 667 824 q 652 919 657 889 q 643 957 647 949 q 633 978 639 969 q 604 991 622 992 q 576 976 586 990 m 611 754 q 650 621 617 742 q 685 483 683 500 q 678 456 686 465 q 654 443 669 446 q 619 440 639 440 q 581 440 600 439 q 493 449 518 443 q 471 461 478 453 q 464 488 464 469 q 474 536 463 504 q 568 772 546 750 q 593 774 582 781 q 611 754 604 767 "},"他":{"ha":1361,"x_min":107,"x_max":1125,"o":"m 789 871 q 818 851 797 868 q 864 822 849 829 q 901 837 896 807 q 893 896 907 867 q 758 986 874 947 q 621 1035 638 1028 q 564 1075 586 1050 q 513 1115 531 1111 q 492 1115 501 1118 q 484 1112 488 1114 q 478 1106 481 1110 q 473 1101 475 1103 q 469 1093 471 1099 q 467 1085 468 1088 q 466 1076 467 1082 q 465 1067 465 1069 q 464 1056 464 1064 q 463 1044 464 1047 q 458 1010 461 1017 q 440 993 456 1003 q 369 957 419 979 q 225 878 282 918 q 124 744 142 819 q 142 598 108 679 q 219 497 176 517 q 254 501 240 488 q 260 517 260 508 q 260 531 261 525 q 253 553 258 538 q 249 566 251 557 q 244 578 246 575 q 242 586 243 581 q 242 595 242 592 q 245 603 243 599 q 251 611 247 607 q 293 625 269 631 q 335 606 317 619 q 364 579 354 593 q 372 557 371 568 q 371 525 374 546 q 340 389 367 481 q 306 251 313 297 q 386 -82 274 57 q 458 -148 419 -124 q 557 -186 497 -172 q 756 -201 647 -210 q 943 -158 864 -193 q 1011 -117 976 -144 q 1115 -21 1099 -51 q 1122 15 1125 -4 q 1068 49 1117 44 q 1032 50 1051 50 q 988 50 1013 50 q 939 51 964 50 q 842 72 879 56 q 743 357 718 129 q 776 551 749 408 q 800 676 794 646 q 810 781 808 733 q 799 829 810 803 q 788 865 788 858 q 789 871 788 867 m 674 874 q 725 743 714 817 q 728 690 729 715 q 699 521 722 642 q 663 288 667 360 q 718 65 654 150 q 761 21 744 29 q 779 7 775 13 q 781 -1 783 1 q 711 -8 769 -17 q 623 31 656 -1 q 576 112 590 63 q 567 222 563 161 q 580 334 571 282 q 603 453 589 386 q 621 554 617 519 q 628 639 626 597 q 547 839 628 779 q 471 903 483 886 q 470 914 467 908 q 483 925 474 919 q 501 933 493 931 q 518 940 508 936 q 674 874 604 971 m 203 708 l 203 718 q 204 733 203 726 q 281 832 218 782 q 316 853 301 847 q 358 857 331 858 q 472 801 419 851 q 542 696 525 751 q 542 578 554 656 q 530 510 542 572 q 515 426 518 449 q 506 364 514 411 q 492 274 499 317 q 485 215 485 232 q 567 -42 469 29 q 656 -93 590 -60 q 669 -100 665 -99 l 688 -111 q 666 -113 686 -112 q 638 -112 646 -114 q 500 -76 554 -110 q 378 181 396 -12 q 385 300 374 235 q 417 421 392 336 q 447 589 454 550 q 404 665 440 631 q 326 703 368 699 q 279 695 321 703 q 235 688 238 688 q 203 708 214 686 "},"付":{"ha":1361,"x_min":119,"x_max":1122,"o":"m 249 971 q 283 883 250 940 q 326 793 315 831 q 333 751 332 772 q 332 725 333 733 q 206 585 318 649 q 157 556 171 565 q 140 543 146 549 q 127 528 135 538 q 121 510 119 518 q 125 486 122 501 q 151 456 132 467 q 196 450 171 444 q 243 474 218 456 q 276 502 246 476 q 331 541 307 528 q 372 549 354 554 q 396 482 390 544 q 399 381 399 451 q 400 283 399 310 q 400 169 401 243 q 400 57 399 96 q 410 -29 401 10 q 432 -78 419 -68 q 460 -78 444 -89 q 493 -26 478 -64 q 513 49 508 11 q 513 119 514 68 q 509 226 511 171 q 506 307 507 282 q 505 315 506 311 q 504 322 504 318 q 504 329 504 326 q 504 336 504 332 q 474 594 492 529 q 464 638 467 622 q 461 665 461 653 q 464 694 461 678 q 471 743 471 732 q 417 900 475 800 q 306 1015 358 1000 q 265 1008 282 1022 q 249 971 247 994 m 851 599 q 786 625 844 597 q 731 649 749 643 q 681 650 697 658 q 667 628 669 644 q 669 596 664 611 q 713 542 678 578 q 743 508 738 515 q 765 442 772 474 q 751 418 763 426 q 728 407 739 410 q 686 400 717 404 q 644 389 656 394 q 681 306 599 363 q 702 296 693 297 q 740 296 711 294 q 785 299 767 297 q 827 293 808 299 q 858 278 846 288 q 880 250 869 268 q 895 217 890 232 q 908 176 900 203 q 929 95 911 165 q 950 18 947 25 q 1040 -128 990 -104 q 1110 -100 1082 -146 q 1119 -40 1122 -81 q 1079 100 1117 10 q 1039 203 1057 153 q 1008 286 1021 253 q 968 407 975 374 q 963 492 958 450 q 985 585 967 521 q 1006 697 1006 656 q 993 761 1004 732 q 943 828 981 792 q 866 890 906 864 q 796 928 826 917 q 739 934 765 942 q 708 897 713 926 q 742 818 700 853 q 796 785 758 804 q 847 751 835 764 q 875 683 869 731 q 875 649 875 668 q 869 615 875 631 q 851 599 863 599 m 686 199 q 682 145 683 174 q 680 73 681 117 q 682 -9 679 29 q 691 -82 685 -47 q 711 -135 697 -117 q 746 -153 725 -154 q 775 -126 764 -151 q 790 -40 786 -100 q 788 71 793 21 q 766 147 785 108 q 726 206 747 185 q 707 219 715 217 q 699 221 701 221 q 693 220 696 221 q 689 216 690 219 q 687 208 688 213 q 686 199 686 204 "},"令":{"ha":1361,"x_min":258,"x_max":846,"o":"m 283 554 q 329 614 304 556 q 344 642 336 632 q 638 721 408 713 q 703 719 694 722 q 729 700 714 714 q 768 658 742 689 q 774 653 771 656 q 776 649 775 650 q 839 631 833 583 q 803 749 846 678 q 704 893 775 796 q 622 1011 651 964 q 538 1115 567 1101 q 522 1117 529 1118 q 501 1108 507 1114 q 492 1088 494 1101 q 463 1004 485 1043 q 417 932 450 981 q 362 844 374 868 q 318 733 350 821 q 279 640 294 665 q 261 582 260 607 q 264 569 261 575 q 272 558 267 563 q 283 554 278 554 m 585 946 q 624 876 597 929 q 657 828 639 850 q 628 783 685 793 q 565 778 610 779 q 536 776 553 778 q 506 774 519 775 q 481 772 493 772 q 461 771 468 771 q 449 771 451 771 q 442 773 447 771 q 437 778 438 775 q 436 788 436 781 q 462 872 435 814 q 503 947 489 931 q 533 972 515 963 q 585 946 557 985 m 472 596 q 490 565 475 586 q 496 558 493 563 q 500 553 499 554 q 503 549 501 551 q 504 544 504 547 q 506 538 504 542 q 507 528 507 535 q 508 338 522 443 q 497 276 503 292 q 468 219 492 260 q 453 195 464 213 q 440 173 443 178 q 432 156 438 168 q 424 133 426 143 q 418 108 421 122 q 485 0 404 29 q 561 -18 536 -19 q 571 -17 565 -18 q 583 -15 576 -17 q 593 -11 589 -12 q 606 -7 597 -10 q 653 4 635 7 q 664 -31 672 1 q 628 -94 656 -56 q 551 -190 606 -128 q 542 -199 547 -193 q 535 -208 538 -206 q 530 -214 533 -210 q 525 -221 526 -218 q 522 -228 524 -224 q 519 -235 519 -232 q 519 -244 519 -239 q 518 -256 518 -249 l 535 -256 q 553 -253 551 -254 q 582 -221 554 -251 q 639 -156 621 -179 q 750 51 731 -47 q 756 126 761 101 q 738 143 751 146 q 681 99 724 142 q 638 57 646 63 q 611 47 629 51 q 525 64 564 36 q 493 142 486 92 q 524 204 499 171 q 584 267 540 228 q 659 337 628 307 q 709 416 690 367 q 714 518 728 465 q 676 582 706 551 q 613 622 646 613 q 568 633 588 629 q 519 640 549 638 q 476 632 489 643 q 472 596 464 621 m 639 476 q 633 410 642 442 q 610 360 625 378 q 572 343 592 342 q 561 350 565 343 q 555 374 557 357 q 553 398 553 390 q 551 428 553 406 q 568 542 550 514 q 576 550 571 547 q 604 552 593 556 q 623 537 615 549 q 634 510 631 525 q 639 476 638 494 "},"以":{"ha":1361,"x_min":232,"x_max":894,"o":"m 236 831 q 279 779 236 792 q 333 769 281 779 q 388 758 386 758 q 498 717 394 756 q 633 672 601 679 q 696 654 681 661 q 742 605 726 640 q 753 522 758 569 q 736 461 749 489 q 712 418 724 433 q 674 372 700 403 q 665 364 668 367 q 567 246 589 279 q 521 156 531 196 q 547 13 503 86 q 643 -83 592 -61 q 718 -87 675 -99 q 834 -25 789 -71 q 886 90 879 21 q 853 236 894 160 q 813 283 842 258 q 783 311 789 304 q 777 318 779 314 q 774 325 775 322 q 772 331 772 328 q 772 337 772 335 q 774 342 772 339 q 777 347 776 346 q 781 353 778 349 q 786 358 785 357 q 792 365 788 360 q 799 371 796 369 q 882 511 850 425 q 889 585 893 546 q 868 653 885 624 q 757 743 838 708 q 644 782 725 758 q 524 828 604 796 q 236 831 232 942 m 742 221 q 782 133 772 189 q 772 57 788 88 q 725 21 757 26 q 655 54 683 15 q 625 144 626 93 q 674 235 622 215 q 742 221 711 250 "},"仲":{"ha":1361,"x_min":242,"x_max":876,"o":"m 529 1032 q 513 944 511 1003 q 524 826 513 914 q 532 753 531 774 q 529 685 535 708 q 506 644 522 651 q 439 635 490 636 q 396 631 404 632 q 292 565 335 618 q 244 444 249 511 q 251 376 242 410 q 276 317 260 342 q 314 279 292 292 q 396 242 321 275 q 471 210 471 210 q 501 193 493 199 q 515 174 508 188 q 521 138 521 161 q 519 80 521 126 q 516 -1 517 33 q 521 -73 515 -36 q 540 -122 526 -110 q 569 -128 554 -133 q 594 -106 585 -122 q 624 110 625 -54 q 629 163 624 147 q 654 186 635 179 q 688 194 661 188 q 718 200 715 200 q 826 282 782 222 q 874 413 869 342 q 845 531 876 479 q 764 606 814 582 q 710 618 749 613 q 651 632 667 625 q 631 649 636 639 q 629 679 626 658 q 626 847 632 703 q 622 996 622 986 q 592 1061 624 1057 q 529 1032 551 1067 m 500 293 q 485 294 492 293 q 401 336 454 301 q 335 399 349 371 q 324 464 317 435 q 354 511 332 493 q 411 540 376 529 q 510 539 486 561 q 521 468 525 525 q 519 422 519 444 q 522 392 519 413 q 526 356 525 371 q 525 326 526 342 q 517 302 524 311 q 500 293 511 293 m 663 540 q 738 508 703 535 q 782 442 774 481 q 767 349 794 393 q 701 288 740 306 q 676 279 689 282 q 648 278 663 276 q 628 288 633 279 q 613 383 621 299 q 613 494 607 454 q 628 533 618 521 q 663 540 638 544 "},"任":{"ha":1361,"x_min":103,"x_max":1154,"o":"m 294 351 q 265 146 300 219 q 239 78 239 90 q 255 31 236 53 q 297 17 274 10 q 313 26 310 21 q 318 44 317 31 q 325 69 321 61 q 346 94 329 76 q 368 125 363 115 q 379 160 374 135 q 413 376 407 268 q 401 436 414 413 q 397 467 396 449 q 407 547 397 481 q 417 676 418 632 q 390 783 414 754 q 329 828 371 807 q 254 853 288 849 q 231 851 239 854 q 203 826 217 847 q 186 792 189 806 q 217 742 176 756 q 235 733 228 738 q 247 723 242 729 q 263 703 253 717 q 314 596 303 643 q 296 535 325 550 q 283 527 288 529 q 272 523 279 525 q 260 520 264 521 q 242 517 257 519 q 213 513 226 514 q 204 511 210 511 q 167 502 179 506 q 136 492 154 499 q 111 474 118 485 q 104 449 104 464 q 142 413 106 414 q 189 417 151 411 q 271 414 249 425 q 294 351 293 403 m 706 814 q 731 778 707 789 q 747 773 732 778 q 778 764 763 768 q 794 758 793 760 q 835 672 825 740 q 824 569 844 604 q 815 555 822 565 q 800 533 807 544 q 790 519 793 522 q 778 478 776 497 q 796 415 778 456 q 817 346 815 371 q 797 221 818 274 q 790 203 793 208 q 781 193 786 197 q 764 183 776 189 q 750 176 758 181 q 735 168 742 171 q 722 160 729 165 q 709 151 714 156 q 699 141 704 147 q 693 128 694 135 q 692 113 692 122 q 694 94 692 104 q 721 73 700 76 q 779 76 742 69 q 826 82 817 82 q 886 78 849 83 q 996 68 969 67 q 1045 82 1026 68 q 1060 119 1064 96 q 1038 146 1057 135 q 990 166 1019 157 q 951 178 960 175 q 901 251 903 200 q 904 283 900 268 q 943 371 911 311 q 982 482 983 450 q 957 535 982 506 q 929 571 932 565 q 929 642 918 593 q 953 717 940 692 q 992 749 965 742 q 1030 750 992 751 q 1074 749 1068 749 q 1130 765 1107 750 q 1153 807 1153 779 q 1150 818 1153 814 q 1057 861 1132 857 q 801 861 915 868 q 793 860 799 861 q 758 857 769 858 q 731 851 746 856 q 711 838 717 847 q 706 814 706 828 "},"伊":{"ha":1361,"x_min":90,"x_max":1178,"o":"m 158 957 q 172 918 160 939 q 185 897 175 914 q 199 876 196 881 q 210 858 201 871 q 223 838 218 844 q 235 822 228 832 q 250 806 243 813 q 264 792 257 799 q 301 758 290 771 q 315 725 314 742 q 282 669 321 690 q 203 636 276 665 q 114 594 131 607 q 93 560 96 582 q 96 526 92 542 q 110 500 100 510 q 136 490 121 490 q 144 491 140 490 q 151 494 147 492 q 156 499 154 497 q 163 505 158 500 q 168 513 167 510 l 182 526 l 224 546 q 281 572 265 565 q 310 583 301 583 q 338 522 343 585 q 337 415 333 492 q 347 292 340 339 q 363 153 357 229 q 374 -1 371 26 q 419 -114 386 -99 q 441 -114 435 -117 q 458 -99 447 -111 q 490 -8 499 -54 q 478 35 488 0 q 461 105 469 69 q 450 157 453 140 q 438 379 442 258 q 439 529 435 467 q 439 611 443 585 q 440 699 433 650 q 442 722 440 715 q 438 740 443 729 q 431 755 433 750 q 419 771 428 760 q 403 792 418 772 q 381 824 389 811 q 275 960 308 924 q 235 999 250 986 q 182 1005 208 1018 q 158 957 156 992 m 1119 -162 q 1156 -138 1142 -161 q 1174 -92 1171 -115 q 1163 242 1178 -74 q 1154 385 1158 339 q 1150 451 1153 399 q 1144 547 1147 503 q 1142 599 1142 592 q 1104 681 1135 646 q 1029 733 1074 715 q 928 756 985 751 q 736 738 847 761 q 676 712 696 731 q 651 656 657 693 q 649 572 647 607 q 657 472 650 538 q 665 378 664 407 q 673 267 667 346 q 681 129 679 188 q 682 33 681 40 q 717 13 690 6 q 751 39 736 18 q 771 83 767 60 q 769 117 771 90 q 764 173 767 144 q 761 206 761 201 q 774 253 761 240 q 825 276 788 267 q 899 303 846 283 q 993 331 971 329 q 1029 322 1018 332 q 1043 288 1040 311 q 1051 142 1044 282 q 1060 50 1056 68 q 1069 -39 1069 -4 q 1070 -86 1069 -71 q 1074 -123 1071 -101 q 1089 -153 1078 -144 q 1119 -162 1100 -162 m 803 675 q 875 674 803 674 q 1003 643 972 675 q 1011 630 1010 635 q 1006 622 1013 625 q 994 616 1000 618 q 976 611 988 614 q 963 608 967 610 q 867 592 926 600 q 774 586 807 583 q 738 631 739 589 q 756 665 736 656 l 760 667 q 772 669 765 668 q 786 673 779 671 q 797 675 793 675 q 803 675 801 675 m 1024 501 q 1035 481 1032 492 q 1037 462 1039 471 q 1030 444 1035 453 q 1017 428 1025 435 q 1001 414 1010 421 q 901 372 968 392 q 785 350 836 353 q 757 351 760 350 q 751 363 754 354 q 739 429 740 396 q 743 479 738 456 q 752 499 746 494 q 781 508 758 504 q 886 518 792 510 l 886 519 l 918 521 q 1024 501 1004 524 "},"伏":{"ha":1361,"x_min":238,"x_max":872,"o":"m 328 224 q 340 227 335 224 q 347 235 344 231 q 349 247 349 239 q 349 260 350 254 q 349 278 349 267 q 347 281 349 279 q 349 332 346 314 q 393 468 361 407 q 450 539 408 497 q 496 590 485 574 q 524 660 519 624 q 508 763 531 704 q 476 829 501 779 q 429 946 439 903 q 424 1049 418 993 q 421 1109 428 1089 q 385 1121 414 1129 q 359 1099 369 1115 q 344 1063 349 1083 q 340 1019 340 1043 q 360 928 342 993 q 379 829 378 863 q 375 793 379 808 q 344 724 369 765 q 297 664 318 683 q 256 621 264 635 q 250 582 238 594 q 272 575 261 575 q 296 586 282 575 q 322 609 310 597 q 346 637 333 621 q 365 663 358 653 q 376 679 372 672 q 418 726 403 721 q 443 715 435 732 q 449 676 451 699 q 404 596 443 644 q 400 590 401 592 q 343 517 353 532 q 292 335 299 444 q 297 258 289 292 q 328 224 306 224 m 532 556 q 539 540 535 547 q 546 528 543 532 q 558 515 549 525 q 569 500 567 504 q 594 467 590 474 q 597 454 599 460 q 580 424 594 443 q 556 397 565 404 q 506 336 497 351 q 523 331 508 329 q 551 335 538 332 q 581 344 565 339 q 599 350 596 349 q 613 347 607 351 q 634 325 631 338 q 626 297 638 313 q 605 273 614 282 q 578 249 596 264 q 571 243 572 246 q 529 203 535 214 q 528 189 525 194 q 536 181 531 183 q 550 178 542 178 q 601 194 565 178 q 638 206 628 206 q 640 160 658 207 q 610 109 628 128 q 557 68 593 90 q 505 46 547 63 q 457 26 463 29 q 433 -1 433 14 q 446 -21 433 -15 q 476 -22 458 -26 q 536 -1 494 -18 q 585 14 578 17 q 608 -36 599 10 q 655 -163 626 -112 q 733 -249 683 -214 q 751 -248 739 -249 q 769 -247 764 -247 q 746 -175 765 -208 q 715 -125 740 -164 q 665 -11 674 -58 q 664 31 663 11 q 692 124 667 68 q 718 238 718 185 q 717 256 718 250 q 714 272 717 261 q 708 292 711 282 q 696 325 704 301 q 674 401 675 383 q 681 419 674 414 q 703 425 688 425 q 765 411 719 425 q 815 399 804 400 q 856 397 843 393 q 871 419 872 404 q 858 444 869 435 q 751 489 836 465 q 667 518 682 508 q 647 535 663 522 q 616 562 631 549 q 601 575 601 575 q 558 594 574 594 q 535 583 543 593 q 532 556 526 572 "},"伐":{"ha":1361,"x_min":133,"x_max":1096,"o":"m 136 789 q 146 760 136 774 q 166 741 156 747 q 196 724 176 735 q 260 676 250 696 q 264 646 267 661 q 249 621 261 631 q 204 576 229 606 q 193 560 199 568 q 178 538 188 553 q 170 511 169 522 q 183 497 171 500 q 208 506 190 496 q 243 530 213 507 q 276 556 274 553 q 286 558 282 558 q 292 558 289 558 q 297 556 294 557 q 299 551 299 554 q 300 544 300 549 q 300 535 300 540 q 300 524 300 531 q 300 511 300 518 q 314 336 301 453 q 328 169 326 219 q 326 103 329 153 q 324 14 322 53 q 336 -43 325 -25 q 361 -54 349 -60 q 382 -32 374 -49 q 414 90 407 15 q 414 310 424 206 q 383 553 411 333 q 384 558 383 553 q 385 572 385 564 q 385 589 385 581 q 386 603 386 597 q 386 610 386 608 q 399 650 389 639 q 436 663 408 661 q 479 660 450 663 q 638 647 628 650 q 671 625 664 640 q 676 581 674 617 q 694 483 679 538 q 713 381 713 417 q 685 314 714 335 q 635 272 658 293 q 519 86 564 211 q 507 29 507 49 q 512 11 507 17 q 528 6 517 6 q 540 9 535 7 q 547 15 544 11 q 553 26 549 18 q 554 31 554 29 q 674 232 611 143 q 714 261 692 260 q 764 226 750 264 q 844 42 785 169 q 900 -56 863 3 q 969 -154 938 -115 q 987 -174 978 -165 q 1007 -190 996 -182 q 1026 -192 1018 -197 q 1038 -169 1035 -187 q 1035 -119 1042 -142 q 1014 -82 1033 -111 q 947 25 964 0 q 904 104 921 61 q 844 233 871 183 q 821 288 831 260 q 815 326 811 315 q 842 347 819 336 q 943 374 858 356 q 1000 389 989 385 q 1036 435 1047 406 q 985 458 1029 454 q 932 457 960 461 q 854 435 900 451 q 804 419 810 418 q 785 439 796 421 q 756 539 764 479 q 758 615 747 592 q 779 628 764 625 q 808 628 794 631 q 846 619 822 626 q 933 588 885 611 q 1017 550 1001 556 q 1056 543 1038 542 q 1088 563 1081 546 q 1079 597 1094 579 q 979 661 1039 644 q 893 688 964 665 q 840 711 857 699 q 835 721 833 718 q 844 735 836 724 q 917 796 856 746 q 944 831 926 806 q 1042 1028 1011 924 q 1054 1078 1053 1065 q 1050 1098 1056 1093 q 1028 1099 1044 1103 q 1019 1096 1024 1099 q 1012 1091 1015 1093 q 1006 1085 1008 1089 q 1001 1078 1003 1081 q 995 1069 999 1075 q 991 1060 992 1063 q 987 1051 990 1058 q 983 1040 983 1043 q 821 813 913 879 q 771 786 790 790 q 735 839 739 779 l 742 1001 q 734 1046 740 1032 q 708 1064 728 1060 q 669 1043 685 1068 q 644 950 650 1010 q 650 839 642 913 q 656 767 657 782 q 644 730 654 736 q 596 728 635 724 q 478 735 546 736 q 372 717 410 735 q 357 715 364 713 q 279 767 347 719 q 189 822 211 815 q 163 829 169 829 q 136 789 135 828 "},"休":{"ha":1361,"x_min":83,"x_max":1194,"o":"m 769 951 q 771 921 767 938 q 810 857 776 896 q 849 808 842 821 q 869 751 857 794 q 885 669 883 704 q 842 649 888 607 q 828 662 833 656 q 819 673 822 668 q 810 686 815 678 q 802 699 804 694 q 793 715 800 703 q 783 733 786 728 q 751 785 761 775 q 721 803 738 800 q 691 795 704 806 q 675 765 678 785 q 676 733 671 743 q 700 707 682 722 q 726 681 719 690 q 740 647 728 676 q 754 615 753 618 q 818 565 767 597 q 856 539 844 547 q 883 506 878 522 q 888 421 899 465 q 833 329 876 375 q 771 268 817 310 q 728 228 742 242 q 698 193 714 215 q 669 143 682 171 q 667 96 653 107 q 710 104 682 81 q 796 211 743 131 q 825 251 814 240 q 857 274 844 272 q 863 273 860 274 q 867 270 865 272 q 871 265 869 268 q 873 259 872 263 q 875 251 874 256 q 876 242 876 247 q 877 233 876 238 q 878 224 878 228 q 878 215 878 219 q 878 206 878 210 q 878 -3 876 38 q 886 -75 879 -53 q 900 -101 892 -93 q 918 -108 908 -110 q 957 69 953 -99 q 953 140 958 81 q 952 234 949 199 q 972 267 956 269 q 1031 221 992 264 q 1081 149 1057 192 l 1085 140 q 1143 68 1118 78 q 1169 76 1163 63 q 1175 113 1176 90 q 1150 189 1174 157 q 1079 267 1135 211 q 1007 344 1025 322 q 951 449 961 401 q 982 539 938 514 q 1028 558 990 542 q 1081 590 1063 572 q 1175 731 1131 640 q 1190 801 1193 771 q 1164 836 1186 838 q 1149 831 1153 836 q 1139 811 1144 826 q 1138 807 1138 808 q 1054 657 1110 731 q 982 606 1014 607 q 968 614 972 606 q 961 668 964 621 q 953 728 960 696 q 949 747 951 732 q 944 767 946 763 q 940 783 943 771 q 936 801 938 796 q 931 817 935 807 q 925 832 928 826 q 919 844 922 838 q 911 857 915 851 q 808 963 856 933 q 769 951 776 982 m 238 938 q 254 896 229 922 q 291 865 261 889 q 331 832 321 840 q 392 763 378 788 q 400 721 403 743 q 379 670 397 693 q 329 628 361 647 q 269 596 297 608 q 199 568 242 583 q 93 493 122 539 q 86 468 83 479 q 103 458 88 458 q 133 461 119 457 q 156 469 147 465 q 206 497 167 475 q 274 533 253 526 q 318 535 306 546 q 328 503 326 528 q 329 456 331 479 q 331 411 328 432 q 358 51 356 142 q 360 -24 361 -3 q 396 -178 354 -176 q 411 -172 404 -178 q 425 -71 431 -153 q 421 100 421 -11 q 419 233 422 190 q 406 349 417 267 q 393 461 396 432 q 407 607 388 563 q 447 653 415 625 q 486 756 499 697 q 438 842 478 796 q 365 909 408 878 q 283 950 322 940 q 238 938 249 958 "},"会":{"ha":1361,"x_min":244,"x_max":876,"o":"m 585 1022 q 503 967 549 1003 q 403 883 479 949 q 290 782 315 808 q 249 729 258 747 q 246 718 244 722 q 272 707 246 697 q 311 732 288 713 q 367 783 326 744 q 401 815 397 814 q 436 819 410 818 q 586 803 479 821 q 704 790 665 789 q 746 790 731 792 q 763 778 757 788 q 789 729 769 769 q 806 694 800 704 q 818 673 814 679 q 831 660 822 667 q 849 654 839 654 q 869 690 876 654 q 838 769 864 719 q 738 910 803 832 q 676 985 690 967 q 650 1031 656 1015 q 645 1039 647 1038 q 635 1040 643 1040 q 628 1040 631 1040 q 585 1022 617 1040 m 608 965 q 647 933 624 957 q 687 885 671 910 q 697 853 703 861 q 694 848 696 850 q 689 844 692 846 q 683 842 686 843 q 677 842 681 842 q 671 844 674 843 q 664 846 668 844 q 658 848 660 847 q 651 850 656 849 q 646 851 647 851 l 629 858 q 595 857 618 858 q 553 855 572 856 q 515 856 533 854 q 488 863 496 857 q 483 879 479 868 q 525 926 493 901 q 589 965 557 950 q 608 965 600 971 m 301 553 q 313 497 301 517 q 349 451 321 482 q 376 419 369 428 q 388 390 382 410 q 401 275 397 356 q 415 168 404 201 q 460 115 425 135 q 522 98 482 103 q 594 99 563 93 q 689 153 654 110 q 731 261 724 196 q 726 361 732 282 q 726 376 725 369 q 729 384 728 382 q 736 392 731 386 q 739 394 739 393 q 783 450 764 415 q 810 529 807 494 q 792 598 813 568 q 734 646 771 628 q 656 673 697 664 q 568 686 615 682 q 469 688 518 692 q 383 672 421 683 q 322 629 344 660 q 301 553 299 599 m 764 565 q 769 538 768 556 q 660 421 772 439 q 554 424 624 415 q 382 476 419 442 q 351 553 353 503 q 374 617 350 593 q 438 643 397 640 q 640 633 538 653 q 764 565 743 613 m 497 389 q 608 375 588 374 q 676 374 665 376 q 686 361 683 371 q 690 269 693 336 q 672 188 689 224 q 660 168 667 174 q 642 156 654 163 q 513 158 581 129 q 436 236 446 186 q 431 320 431 260 q 443 393 431 381 q 450 395 446 394 q 460 395 454 396 q 472 394 467 394 q 485 391 478 393 q 497 389 493 389 m 458 483 q 483 501 475 483 q 490 540 490 518 q 476 572 489 565 q 449 556 460 579 q 439 508 438 532 q 458 483 439 483 m 535 536 q 531 500 529 517 q 538 474 531 483 q 556 468 544 465 q 572 485 565 471 q 582 517 579 499 q 563 561 588 561 q 547 558 553 561 q 540 550 542 554 q 535 536 539 546 m 665 454 q 681 485 678 460 q 674 533 683 510 q 649 554 664 556 l 638 550 q 629 486 619 531 q 665 454 638 443 m 478 254 q 514 299 500 254 q 514 338 521 319 q 486 343 507 356 q 471 315 481 338 q 478 254 443 253 m 535 276 q 549 238 528 239 q 575 258 565 238 q 584 297 582 275 q 575 332 586 319 q 559 333 565 335 q 547 317 553 331 q 539 295 542 304 q 535 276 536 286 m 611 288 q 613 197 592 207 q 641 211 632 188 q 649 263 650 235 q 633 311 647 306 q 619 310 624 315 q 611 288 615 304 m 804 181 q 796 158 797 176 q 769 84 793 131 q 736 31 744 38 q 692 35 728 25 q 643 38 675 39 q 577 33 635 38 q 504 31 519 29 q 463 45 475 32 q 442 89 451 58 q 438 101 440 93 q 435 110 436 108 q 433 117 435 113 q 430 123 431 121 q 427 128 429 125 q 422 134 425 132 q 417 139 419 136 q 381 145 399 153 q 358 119 364 138 q 371 76 354 107 q 450 -49 396 33 q 531 -140 490 -110 q 682 -147 610 -199 q 714 -119 699 -137 q 811 35 756 -75 q 843 97 831 74 q 868 160 864 136 q 868 178 871 171 q 838 192 861 193 q 804 181 815 190 m 601 -10 q 703 -12 681 -4 q 713 -26 711 -15 q 707 -44 713 -33 q 679 -85 699 -64 q 643 -115 660 -107 q 618 -115 635 -119 q 557 -94 576 -108 q 526 -62 543 -85 q 510 -28 510 -40 q 524 -11 510 -15 q 567 -8 539 -7 q 601 -10 596 -10 "},"伝":{"ha":1361,"x_min":158,"x_max":1043,"o":"m 864 1122 q 851 1113 857 1119 q 840 1096 844 1107 q 833 1076 835 1085 q 826 1051 831 1068 q 825 1044 825 1047 q 806 983 813 999 q 768 956 792 953 q 760 957 764 956 q 754 960 757 958 q 749 965 751 963 q 747 971 747 967 q 745 978 746 975 q 744 987 744 981 q 743 997 743 993 q 742 1009 743 1000 q 742 1022 742 1018 q 736 1072 740 1061 q 708 1094 728 1094 q 682 1072 688 1094 q 682 1015 679 1060 q 678 947 683 960 q 664 933 674 936 q 644 934 654 931 q 626 944 635 938 q 593 1001 619 951 q 583 1016 589 1008 q 570 1030 578 1024 q 554 1040 563 1036 q 536 1042 546 1043 q 517 1033 526 1040 q 515 988 496 1021 q 556 933 535 954 q 625 888 574 917 q 669 861 663 868 q 707 811 697 840 q 683 753 719 778 q 625 721 671 743 q 578 692 592 704 q 534 617 550 665 q 519 518 518 569 q 596 374 524 407 q 617 369 599 372 q 639 365 635 367 q 678 308 651 360 q 718 238 701 260 q 746 179 732 221 q 758 144 754 153 q 771 129 763 136 q 817 101 783 119 q 863 72 851 83 q 839 8 897 39 q 780 -15 838 8 q 719 -39 722 -39 q 704 -78 678 -61 q 772 -85 733 -94 q 813 -67 779 -83 q 832 -57 819 -64 q 866 -40 856 -44 q 891 -33 876 -36 q 913 -40 906 -31 q 925 -68 921 -49 q 928 -119 926 -76 q 932 -176 929 -164 q 965 -200 940 -204 q 997 -153 997 -197 q 978 -50 996 -121 q 964 22 963 0 q 990 75 965 43 q 1010 112 1000 86 q 1026 163 1019 138 q 1036 206 1033 188 q 1018 263 1043 250 q 1000 261 1008 267 q 988 249 992 256 q 979 228 985 242 q 965 185 976 221 q 946 131 951 138 q 890 118 931 107 q 859 133 874 124 q 835 153 844 142 q 821 178 825 165 q 819 201 817 189 q 843 251 824 221 q 852 269 844 256 q 861 284 860 282 q 867 295 863 286 q 873 310 872 304 q 875 325 874 315 q 876 347 876 335 q 879 382 878 375 q 883 394 879 388 q 892 407 886 400 q 903 418 899 414 q 915 429 907 422 q 926 439 924 436 q 955 467 949 460 q 969 490 961 475 q 979 529 976 506 q 955 660 986 599 q 872 746 924 722 q 864 749 865 749 q 858 751 863 750 q 853 751 854 751 q 842 751 851 751 q 825 750 833 750 q 813 750 821 750 q 801 750 804 750 q 793 750 799 750 q 785 751 788 750 q 780 753 783 751 q 775 756 776 754 q 772 760 774 757 q 767 767 769 763 q 747 851 753 800 q 747 867 746 860 q 751 879 747 874 q 759 889 756 885 q 769 898 763 893 q 781 905 776 903 q 794 911 785 907 q 807 917 803 915 q 851 944 842 935 q 871 979 861 954 q 894 1074 889 1025 q 864 1122 900 1136 m 806 694 q 881 658 849 688 q 892 628 897 642 q 871 607 886 618 q 836 588 856 596 q 803 582 817 581 q 778 595 785 583 q 768 632 771 607 q 772 681 764 664 q 806 694 781 699 m 578 568 q 586 612 578 586 q 603 647 594 638 q 640 665 610 654 q 685 675 669 675 q 728 635 715 676 q 730 603 732 621 q 722 579 728 586 q 701 565 717 572 q 666 551 686 557 q 626 543 646 546 q 578 568 579 538 m 918 513 q 873 453 910 481 q 806 453 836 425 q 805 511 779 478 q 860 550 831 544 q 908 547 890 557 q 918 513 925 538 m 735 503 q 738 449 761 475 q 656 418 710 417 q 597 463 599 418 q 598 473 596 468 q 604 482 600 478 q 613 490 608 486 q 625 496 618 493 q 638 500 632 499 q 653 503 644 501 q 669 506 663 506 q 684 508 675 507 q 697 511 693 510 q 722 513 715 514 q 735 503 728 511 m 808 321 q 792 281 810 293 q 746 282 769 267 q 720 320 722 297 q 739 358 718 343 q 787 361 765 372 q 808 321 808 350 m 365 353 q 356 458 364 388 q 351 493 353 478 q 349 519 350 508 q 349 543 349 531 q 349 564 349 556 q 350 590 350 572 q 351 621 350 607 q 307 863 354 796 q 248 925 283 896 q 183 947 213 954 q 164 929 169 944 q 165 897 158 914 q 210 849 175 867 q 260 813 249 828 q 274 776 269 799 q 278 731 279 754 q 268 692 276 707 q 251 667 267 688 q 219 626 235 646 q 203 604 204 606 q 198 596 203 603 q 192 587 193 589 q 187 579 190 585 q 183 572 183 574 q 181 565 182 569 q 178 556 179 560 q 178 547 178 551 q 185 533 179 538 q 191 529 188 531 q 198 527 194 528 q 205 527 201 526 q 211 528 208 528 q 217 532 214 529 q 223 536 221 535 q 228 541 225 538 q 233 546 232 544 q 239 552 235 547 q 244 557 243 557 q 263 575 254 569 q 288 563 293 603 q 290 458 283 536 q 303 338 297 381 q 339 264 313 263 q 365 353 369 265 "},"伯":{"ha":1361,"x_min":139,"x_max":1086,"o":"m 622 1086 q 579 1051 594 1079 q 570 1030 576 1046 q 558 998 564 1014 q 549 978 551 982 q 453 801 508 900 q 318 544 357 631 q 279 451 297 500 q 219 308 272 432 q 160 165 167 185 q 140 33 143 111 q 144 -4 140 11 q 179 -76 151 -31 q 218 -132 207 -122 q 228 -133 224 -133 q 240 -131 232 -133 q 253 -129 249 -129 q 269 -131 261 -128 q 346 -154 294 -136 q 481 -192 435 -186 q 569 -192 511 -196 q 678 -183 626 -189 q 769 -171 731 -178 q 922 -128 860 -158 q 1035 -44 983 -97 q 1070 1 1064 -12 q 1079 58 1076 14 q 1053 258 1085 147 q 972 469 1031 339 q 879 668 944 533 q 754 942 788 858 q 701 1033 736 986 q 642 1086 667 1081 q 622 1086 633 1089 m 590 850 q 658 811 624 899 q 746 649 672 774 q 839 482 814 533 q 867 414 861 435 q 860 367 875 385 q 819 343 846 349 q 759 336 792 338 q 699 338 726 335 q 682 338 688 338 q 600 336 657 339 q 488 331 543 333 q 410 329 433 328 q 374 333 385 331 q 360 350 363 338 q 363 376 358 363 q 376 411 367 389 q 426 503 393 446 q 488 638 443 529 q 535 749 522 722 q 590 850 563 810 m 915 250 q 944 156 932 238 q 946 31 957 74 q 913 -18 940 3 q 843 -51 885 -39 q 758 -69 801 -62 q 665 -79 714 -76 q 476 -73 579 -83 q 332 -44 372 -62 q 292 -14 306 -33 q 278 33 279 6 q 281 86 278 61 q 294 149 285 111 l 299 169 l 299 185 q 310 224 299 214 q 353 233 322 235 q 397 229 365 233 l 422 226 l 436 226 q 528 239 450 226 q 623 238 556 243 q 704 235 690 233 q 742 242 707 236 q 813 254 778 249 q 849 260 847 260 q 915 250 894 264 "},"伶":{"ha":1361,"x_min":104,"x_max":1115,"o":"m 644 872 q 653 844 646 860 q 687 786 664 819 q 724 739 710 753 q 726 733 726 736 q 693 725 726 724 q 597 751 635 729 q 587 765 588 757 q 590 779 586 772 q 604 800 593 786 q 608 807 607 804 q 624 832 619 822 q 626 853 629 846 q 613 861 624 861 q 588 853 601 861 q 499 767 558 836 q 466 726 486 751 q 429 678 446 700 q 397 638 413 657 q 374 613 381 618 q 353 603 361 603 q 336 615 346 603 q 314 672 326 629 q 290 736 297 728 q 261 756 282 746 q 229 764 240 767 q 219 749 219 761 q 221 721 218 738 q 222 696 224 704 q 184 642 219 688 q 147 594 149 596 l 139 576 q 142 503 106 500 q 155 507 149 503 q 165 516 161 511 q 174 531 168 521 q 176 535 176 533 q 201 581 183 546 q 206 590 201 581 q 265 640 244 672 q 275 574 275 626 q 276 539 275 551 q 292 361 281 472 q 304 251 300 264 q 329 257 314 221 q 346 338 343 292 q 340 417 347 361 q 332 486 332 474 q 344 547 331 536 q 366 554 347 549 q 386 561 385 560 q 444 619 403 569 q 454 631 446 621 q 464 643 463 642 q 473 653 465 644 q 483 663 481 661 q 494 671 486 665 q 506 678 501 676 q 518 683 511 681 q 533 687 525 686 q 549 688 540 688 q 615 681 568 689 q 706 678 671 672 q 779 685 760 685 q 816 679 800 685 q 842 667 832 674 q 868 646 851 661 q 876 640 874 642 q 924 607 911 613 q 990 600 976 585 q 994 604 993 601 q 993 610 994 607 q 991 615 992 613 q 988 622 990 618 q 983 627 985 625 q 977 633 981 629 q 972 638 974 636 q 966 643 969 640 q 961 647 963 646 q 869 718 928 676 q 760 807 815 756 q 663 885 690 871 q 644 872 642 893 m 553 551 q 573 533 556 539 q 606 525 590 526 q 653 522 622 524 q 672 522 658 522 q 689 522 685 522 q 701 520 693 521 q 713 517 710 519 q 722 512 717 515 q 733 503 728 508 q 775 439 750 488 q 822 371 801 390 q 873 330 829 364 q 918 294 917 296 q 960 232 946 269 q 981 147 967 213 q 1021 57 996 85 q 1044 39 1038 39 q 1056 24 1046 39 q 1090 -24 1083 -19 q 1104 -27 1096 -31 q 1114 -15 1113 -24 q 1106 3 1114 -8 q 1078 43 1094 18 q 1069 57 1069 56 q 1046 108 1071 63 q 1024 149 1031 135 q 1010 185 1017 163 q 1000 232 1003 207 q 994 334 999 242 q 990 431 990 426 q 983 477 986 461 q 972 506 979 493 q 951 525 964 519 q 917 536 939 531 q 826 549 890 542 q 715 567 779 553 q 707 568 713 567 q 689 572 696 571 q 553 551 538 601 m 840 481 q 891 461 864 478 q 935 428 918 444 q 949 403 946 417 q 940 367 951 376 q 908 369 928 358 q 842 424 874 385 q 822 461 828 443 q 840 481 814 486 m 458 367 q 464 357 458 361 q 518 344 476 344 q 633 358 556 346 q 663 363 660 363 q 672 357 668 363 q 679 344 676 351 q 682 332 682 338 q 676 307 682 321 q 619 250 661 272 q 558 243 593 238 q 504 265 522 249 q 474 308 497 269 q 438 351 447 351 q 425 301 422 351 q 464 205 426 236 q 565 188 501 174 q 647 219 607 196 q 714 276 686 243 q 749 364 750 319 q 730 410 747 397 q 675 422 713 422 q 543 403 629 421 q 458 367 457 385 "},"似":{"ha":1361,"x_min":165,"x_max":1039,"o":"m 264 1001 q 354 935 276 985 q 382 913 375 921 q 401 882 389 904 q 407 871 404 875 q 433 781 432 821 q 408 681 435 726 q 360 617 400 665 q 267 489 290 533 q 251 456 256 471 q 242 371 239 426 q 267 301 244 315 q 344 282 292 286 q 492 315 428 276 q 568 413 556 353 q 571 449 572 428 q 540 532 569 507 q 500 558 539 533 q 456 588 461 582 q 449 615 444 600 q 478 665 454 632 q 515 717 507 706 q 535 785 532 743 q 526 864 538 828 q 489 929 519 885 q 347 1046 414 1033 q 293 1043 322 1050 q 264 1001 242 1031 m 499 442 q 460 376 500 404 q 409 357 436 358 q 365 369 382 356 q 338 406 347 382 q 339 461 329 429 q 361 499 347 488 q 404 510 375 511 q 499 442 496 507 m 688 783 q 688 761 683 772 q 708 738 693 747 q 740 724 724 728 q 785 717 757 721 q 863 701 842 711 q 890 683 879 694 q 914 648 903 671 q 930 599 925 625 q 933 547 935 572 q 919 504 932 522 q 881 482 906 486 q 824 499 872 482 q 767 515 789 511 q 738 515 751 517 q 716 505 725 513 q 707 485 707 497 q 732 453 708 469 q 800 419 754 438 q 844 401 842 403 q 850 393 847 399 q 856 381 854 388 q 858 368 858 375 q 857 357 857 361 q 853 344 857 353 q 849 333 850 336 q 842 321 847 331 q 836 308 838 311 q 815 254 818 272 q 814 188 811 238 q 814 136 815 143 q 812 106 814 126 q 808 70 810 86 q 807 49 807 54 q 838 -11 808 -4 q 868 -6 857 -14 q 882 19 879 3 q 886 55 885 35 q 886 96 888 75 q 887 135 885 125 q 899 171 889 146 q 906 185 901 175 q 911 199 910 196 q 914 209 913 201 q 915 224 915 217 q 914 242 915 232 q 914 304 908 276 q 964 431 922 342 q 1013 546 1003 513 q 1006 694 1038 631 q 954 747 990 722 q 782 824 865 810 q 724 817 751 829 q 688 783 696 804 m 522 200 q 511 191 514 196 q 508 178 508 186 q 511 158 508 171 q 507 111 518 124 q 411 85 488 92 q 299 88 324 76 q 294 121 283 94 l 294 128 q 290 140 294 135 q 281 155 288 147 q 265 169 274 163 q 245 181 256 176 q 224 188 235 186 q 204 190 214 190 q 187 182 194 189 q 174 164 179 175 q 174 93 165 146 q 181 46 179 60 q 224 -72 188 -7 q 292 -165 261 -136 q 407 -192 328 -199 q 470 -175 453 -187 q 507 -129 488 -162 q 590 85 558 -42 q 597 172 607 149 q 567 203 589 194 q 522 200 544 211 m 461 -43 q 449 -61 456 -47 q 425 -93 439 -79 q 343 -101 382 -140 q 306 -37 314 -74 q 329 8 299 -6 q 440 26 351 18 q 481 2 476 31 q 461 -43 486 -26 "},"佃":{"ha":1361,"x_min":114,"x_max":1124,"o":"m 682 921 q 728 844 688 894 q 763 792 743 825 q 786 743 782 760 q 783 676 794 711 q 754 603 772 640 q 732 549 736 567 q 736 521 729 532 q 752 509 743 510 q 771 517 761 508 q 789 536 781 526 q 806 562 797 546 q 820 587 815 578 q 831 607 825 596 q 844 635 842 629 q 874 673 860 661 q 903 675 889 685 q 924 633 917 665 q 929 592 926 624 q 934 523 932 561 q 938 472 936 485 q 1015 92 964 186 q 1072 19 1039 46 q 1088 9 1081 14 q 1104 1 1096 4 q 1117 3 1113 -1 q 1121 22 1122 8 q 1106 62 1121 33 q 1086 100 1090 90 q 1013 553 1036 239 q 992 674 1007 635 q 932 750 978 714 q 894 779 924 758 q 819 842 844 817 q 731 926 749 913 q 704 943 714 939 q 687 940 693 947 q 682 921 681 933 m 307 750 q 151 664 188 729 q 121 463 114 590 q 163 260 128 335 q 259 148 193 196 q 396 93 325 100 q 567 169 501 82 q 622 303 601 217 q 646 444 638 369 q 644 601 654 518 q 599 719 635 685 q 470 762 558 756 q 307 750 382 768 m 540 665 q 563 613 554 651 q 574 538 572 575 q 574 474 576 500 q 567 450 571 458 q 540 438 561 442 q 499 438 519 435 q 475 440 482 439 q 462 447 468 442 q 451 463 456 451 q 432 581 438 500 q 429 633 429 611 q 440 669 429 656 q 475 689 451 683 q 510 684 490 693 q 540 665 529 675 m 354 669 q 369 621 365 658 q 370 549 372 583 q 372 488 368 514 q 374 468 374 476 q 361 446 375 453 q 272 433 338 432 q 193 454 206 433 q 185 526 181 478 q 219 639 192 594 q 258 667 231 657 q 290 676 272 672 q 327 678 308 679 q 354 669 346 676 m 546 311 q 525 242 540 275 q 493 200 510 208 q 476 197 485 194 q 458 241 461 204 q 462 313 456 278 q 474 360 468 347 q 488 371 476 367 q 536 369 521 386 q 546 311 551 351 m 394 153 q 374 158 386 153 q 312 195 346 169 q 249 254 278 221 q 210 315 219 288 q 208 343 206 331 q 210 351 208 349 q 214 357 213 354 q 218 361 215 360 q 224 364 221 363 q 232 365 226 365 q 240 365 238 365 q 251 366 243 365 q 265 367 260 367 q 284 367 276 367 q 294 368 292 368 q 301 369 296 368 q 317 369 307 369 q 358 363 344 369 q 381 339 372 357 q 397 260 388 325 q 407 185 406 206 q 406 160 407 165 q 394 153 404 154 "},"位":{"ha":1361,"x_min":99,"x_max":1149,"o":"m 488 1007 q 489 973 488 999 q 493 915 490 947 q 497 872 496 883 q 472 761 503 785 q 410 738 460 753 q 349 715 363 724 q 285 667 335 707 q 239 638 260 646 q 154 596 179 614 q 139 522 100 557 q 226 522 171 492 q 314 588 253 536 q 372 635 357 624 q 439 668 410 661 q 483 665 469 676 q 500 621 497 653 q 497 560 501 594 q 483 478 493 525 q 471 421 472 431 q 436 286 453 321 q 392 199 425 260 q 351 115 360 139 q 325 21 342 92 q 297 -71 310 -44 q 275 -102 289 -90 q 245 -119 261 -114 q 199 -131 229 -125 q 142 -146 157 -140 q 109 -181 119 -157 q 132 -211 99 -204 q 193 -214 150 -215 q 269 -216 235 -214 q 328 -217 303 -218 q 399 -212 354 -217 q 461 -210 444 -208 q 532 -222 478 -211 q 604 -232 581 -233 q 631 -231 618 -232 q 789 -228 693 -222 q 886 -217 829 -231 q 960 -204 933 -204 q 1022 -211 979 -203 q 1103 -224 1082 -224 q 1137 -212 1126 -222 q 1147 -181 1147 -203 q 1129 -132 1147 -146 q 1071 -115 1111 -118 l 940 -117 q 893 -100 907 -112 q 850 -4 871 -78 q 822 106 839 32 q 779 254 799 215 q 736 308 771 272 q 689 379 699 349 q 633 526 675 424 q 607 592 611 581 q 610 665 594 635 q 664 688 625 694 q 790 636 708 679 q 874 579 819 619 q 936 538 924 543 q 974 529 953 529 q 1047 557 1014 531 q 1046 617 1079 583 q 965 658 1024 638 q 764 754 875 692 q 667 807 674 804 q 635 814 660 810 q 608 830 615 818 q 596 871 600 842 q 596 920 593 892 q 599 981 599 949 q 597 1039 599 1013 q 581 1083 594 1065 q 544 1100 568 1100 q 499 1076 510 1100 q 488 1007 488 1053 m 604 340 q 639 275 613 319 q 684 197 672 219 q 710 136 696 174 q 758 -4 753 15 q 771 -67 769 -42 q 756 -115 774 -104 q 696 -126 738 -126 q 627 -119 690 -126 q 554 -112 564 -112 q 497 -119 546 -112 q 439 -126 449 -126 q 413 -122 419 -128 q 406 -96 407 -115 q 425 13 403 -61 q 482 150 456 121 q 489 159 486 156 q 493 166 492 163 q 496 176 494 169 q 498 186 497 182 q 501 203 499 190 q 504 225 503 215 q 513 283 510 264 q 525 326 517 301 q 544 365 533 351 q 571 379 558 382 q 591 367 583 376 q 604 340 599 357 "},"佐":{"ha":1361,"x_min":86,"x_max":1181,"o":"m 563 -149 q 576 -136 569 -149 q 593 -79 588 -115 q 603 36 596 -61 q 619 194 610 128 q 660 513 636 299 q 664 547 661 524 q 668 583 667 571 q 672 611 669 596 q 681 636 675 626 q 686 647 683 642 q 694 655 689 651 q 703 660 700 658 q 715 664 706 663 q 726 666 724 665 q 742 669 729 667 q 760 671 756 671 q 824 688 792 675 q 881 710 851 697 q 941 747 910 724 q 972 789 972 769 q 926 796 974 813 q 860 768 915 792 q 768 733 789 736 q 739 799 714 728 q 807 926 768 885 q 835 949 818 939 q 872 978 851 958 q 901 1010 893 997 q 908 1025 908 1021 q 882 1032 907 1035 q 769 971 818 1022 q 724 917 738 939 q 700 849 711 894 q 678 776 689 803 q 643 750 667 751 q 613 758 626 750 q 568 835 569 785 q 569 850 568 844 q 578 871 571 856 q 594 902 586 886 q 610 936 603 918 q 617 965 617 954 q 610 978 618 975 q 574 969 593 982 q 546 942 556 957 q 519 882 529 917 q 510 808 508 847 q 533 749 511 769 q 575 719 542 739 q 629 678 619 692 q 639 646 639 664 q 636 611 639 636 q 613 453 629 563 q 585 276 596 343 q 564 106 575 208 q 547 -89 553 3 l 546 -112 q 563 -149 554 -149 m 96 844 q 121 825 100 840 q 131 816 128 818 q 136 811 135 814 q 138 806 138 808 q 136 800 138 804 q 118 729 122 764 q 96 278 103 549 q 93 193 93 200 q 117 113 96 121 q 133 116 126 108 q 144 142 140 124 q 149 175 147 160 q 150 216 150 190 q 150 251 150 242 q 150 276 150 260 q 148 279 149 279 q 146 314 147 279 q 147 392 144 354 q 156 543 150 418 q 172 729 163 668 q 177 751 175 743 q 183 772 179 760 q 191 791 186 785 q 203 803 196 797 q 220 808 210 808 q 242 801 231 807 q 296 744 279 783 q 331 514 338 650 q 325 392 329 478 q 319 256 321 306 q 315 133 317 206 q 313 0 313 60 q 335 -56 314 -57 q 365 -19 360 -56 q 369 108 371 8 q 376 556 367 297 q 378 658 379 631 q 360 758 376 719 q 307 821 343 797 q 272 841 292 831 q 228 861 251 851 q 179 876 204 871 q 135 882 154 882 q 110 876 122 881 q 93 865 99 872 q 96 844 88 857 m 1114 251 q 1058 246 1094 251 q 969 239 975 233 q 956 263 964 244 q 938 353 940 300 q 946 413 936 390 q 954 426 950 424 q 972 431 958 428 q 978 432 976 432 q 1035 449 1018 439 q 1050 465 1049 456 q 1038 489 1053 481 q 1003 498 1024 497 q 965 497 983 499 q 850 477 924 493 q 744 450 776 461 q 737 448 742 450 q 728 445 732 446 q 720 442 725 444 q 712 439 715 440 q 705 435 708 438 q 699 432 701 433 q 697 428 697 431 q 696 424 696 426 q 722 407 696 410 q 821 414 739 404 q 846 413 839 415 q 873 374 863 406 q 885 309 883 343 q 883 244 888 275 q 880 231 882 235 q 874 224 878 226 q 860 219 869 222 q 769 207 836 213 q 696 199 708 203 q 668 188 676 194 q 663 174 663 182 q 668 163 663 167 q 688 156 671 160 q 738 153 706 151 q 804 160 769 154 q 867 169 819 161 q 947 181 914 178 q 1025 186 979 185 q 1118 194 1085 189 q 1179 225 1179 206 q 1168 244 1179 238 q 1144 251 1157 250 q 1114 251 1132 253 "},"佑":{"ha":1361,"x_min":114,"x_max":1094,"o":"m 274 1072 q 242 1069 256 1071 q 217 1062 229 1067 q 201 1048 206 1057 q 199 1028 196 1039 q 242 988 206 1000 q 322 965 264 979 q 439 931 411 943 q 503 874 481 911 q 510 850 510 860 q 501 831 511 836 q 471 821 492 825 q 410 818 464 819 q 319 810 339 815 q 286 779 290 800 q 322 726 281 742 q 376 711 336 721 q 385 710 379 711 q 413 703 401 706 q 438 694 424 700 q 458 681 453 689 q 460 664 464 674 q 424 626 451 646 q 371 600 396 607 q 260 586 340 593 q 155 563 196 581 q 150 513 114 546 q 386 476 229 439 q 453 506 425 486 q 514 565 474 521 q 571 619 553 607 q 649 640 608 647 q 738 592 693 633 q 838 447 797 536 q 863 360 854 407 q 882 203 872 313 q 897 53 890 104 q 979 -197 919 -139 q 1049 -228 1007 -225 q 1090 -199 1085 -229 q 1081 -125 1094 -168 q 1051 -12 1060 -42 q 1022 108 1035 42 q 995 265 1010 175 q 969 410 981 356 q 894 624 943 547 q 829 696 865 668 q 731 740 808 711 q 660 774 681 760 q 632 810 639 789 q 620 879 625 832 q 608 946 615 926 q 483 1049 583 1014 q 274 1072 383 1083 m 246 406 q 229 397 232 403 q 200 257 204 338 q 235 -4 196 126 q 328 -186 275 -135 q 393 -219 353 -211 q 547 -142 479 -237 q 635 76 606 -58 q 649 353 664 210 q 635 403 644 386 q 603 418 625 421 q 563 383 574 415 q 554 325 557 367 q 553 320 554 322 q 553 316 553 318 q 553 311 553 314 q 537 240 549 256 q 476 226 525 224 q 368 246 415 231 q 335 268 340 254 q 317 321 331 276 q 278 399 297 381 q 246 406 264 410 m 507 71 q 517 57 514 68 q 494 -10 522 32 q 436 -67 465 -51 q 423 -69 429 -69 q 411 -68 417 -69 q 361 -29 386 -57 q 329 24 336 -1 q 328 51 325 38 q 338 69 331 65 q 407 75 343 72 q 507 71 490 76 "},"体":{"ha":1361,"x_min":226,"x_max":910,"o":"m 682 1072 q 679 950 678 1046 q 679 875 681 885 q 672 860 679 868 q 615 872 643 828 q 596 912 604 890 q 584 945 588 933 q 579 957 581 957 q 575 921 578 957 q 625 656 558 715 q 668 633 629 653 q 682 624 682 628 q 647 618 681 619 q 578 604 590 614 q 563 579 567 597 q 571 512 553 536 q 632 464 589 488 q 661 444 654 451 q 671 419 672 435 q 666 397 671 419 q 657 352 661 375 q 653 325 653 329 q 679 254 653 313 q 679 136 725 154 q 633 131 672 133 q 622 131 629 131 q 583 126 594 129 q 569 111 571 122 q 594 89 568 92 q 644 92 619 86 q 733 97 657 97 q 822 97 808 96 q 908 122 908 101 q 892 136 907 132 q 808 140 872 140 q 793 139 803 140 q 762 140 771 139 q 743 144 753 140 q 731 156 733 147 q 732 181 729 165 q 753 247 735 199 q 764 281 763 276 q 751 360 769 304 q 732 418 733 417 q 733 449 729 440 q 757 467 738 457 q 779 478 774 474 q 816 526 799 493 q 833 589 833 560 q 813 625 832 618 q 757 626 793 632 q 742 625 744 624 q 757 640 743 629 q 797 685 783 661 q 833 811 825 733 q 825 964 840 889 q 821 978 822 978 q 815 974 819 976 q 799 967 807 967 q 792 965 792 967 q 794 958 792 964 q 793 902 810 933 q 749 869 776 871 q 724 885 733 868 q 713 974 711 910 q 701 1081 715 1056 q 690 1092 696 1092 q 682 1072 686 1090 m 789 817 q 782 808 788 811 q 769 804 776 804 q 756 806 763 804 q 744 811 749 807 q 742 819 739 815 q 775 832 751 833 q 789 817 793 831 m 689 804 q 681 790 688 797 q 666 778 675 783 q 647 772 657 772 q 625 785 632 772 q 651 818 614 808 q 676 817 664 821 q 689 804 689 814 m 769 715 q 749 700 763 688 q 743 722 743 706 q 753 754 742 749 q 769 747 764 761 q 769 715 774 732 m 697 690 q 661 699 685 679 q 656 736 633 721 q 694 727 675 749 q 697 690 714 706 m 772 551 q 757 546 769 546 q 715 551 749 546 q 661 555 682 557 q 636 539 640 553 q 637 528 635 532 q 648 522 639 525 q 664 518 657 519 q 688 514 671 517 q 704 511 699 513 q 742 504 738 507 q 743 497 747 501 q 708 486 731 488 q 651 499 681 485 q 608 528 621 513 q 601 551 599 539 q 603 557 601 554 q 605 562 604 560 q 608 565 606 564 q 611 568 610 567 q 616 570 613 569 q 622 572 619 571 q 628 573 624 572 q 635 574 632 574 q 643 574 638 574 q 653 575 649 575 q 718 575 682 578 q 772 551 785 571 m 719 300 q 719 283 721 283 q 713 292 718 283 q 700 324 700 307 q 701 333 700 331 q 707 339 704 340 q 719 300 718 335 m 515 599 q 531 610 519 599 q 557 654 549 628 q 560 679 564 676 q 553 678 560 681 q 533 679 538 671 q 531 709 532 683 q 529 739 531 735 q 501 763 524 757 q 460 758 479 769 q 421 717 443 749 q 406 699 410 703 q 400 699 403 696 q 394 718 397 703 q 390 815 392 735 q 388 869 389 856 q 390 901 386 892 q 413 926 394 911 q 437 959 433 944 q 425 994 440 974 q 325 1050 399 1025 q 310 1054 315 1053 l 310 1051 q 314 1042 310 1049 q 358 981 328 1019 q 369 967 369 969 q 358 944 369 963 l 272 824 q 263 808 268 818 q 251 783 258 799 q 244 759 243 767 q 251 750 244 751 q 275 767 261 750 q 289 787 281 774 q 306 812 297 800 q 322 835 314 824 q 337 851 331 846 q 347 853 343 857 q 354 817 351 850 q 357 751 357 783 q 357 701 357 718 q 354 668 356 678 q 339 651 350 649 q 325 692 326 654 l 324 710 q 303 700 315 714 q 261 638 282 679 q 243 566 246 610 q 260 496 240 522 q 317 463 269 486 q 321 460 318 461 q 334 453 329 456 q 348 445 339 450 q 361 435 357 440 q 369 424 365 431 q 372 411 374 418 q 363 398 369 404 q 313 389 357 392 q 238 378 251 386 q 226 363 226 372 q 246 344 228 347 q 314 346 253 343 q 344 347 335 349 q 358 335 354 344 q 363 296 360 332 q 363 47 368 165 q 369 -200 353 -135 q 388 -230 378 -229 q 403 -194 397 -231 q 407 -21 407 -160 q 410 246 407 64 q 408 288 410 261 q 406 324 406 313 q 414 344 407 336 l 453 346 q 526 353 507 349 q 554 382 561 361 q 532 394 550 393 q 496 393 514 396 q 415 392 429 386 q 403 405 408 394 q 397 424 397 415 q 401 443 396 433 q 440 486 408 460 q 450 493 444 489 q 461 503 460 500 q 458 510 463 506 q 443 524 449 517 q 433 526 438 531 q 408 528 419 511 q 393 613 392 557 q 400 639 394 636 q 419 622 400 639 q 460 593 444 601 q 481 588 472 588 q 494 594 490 589 q 501 603 499 603 q 508 600 501 603 q 515 599 514 599 m 504 646 q 481 638 501 635 q 469 644 469 640 q 481 650 468 647 q 497 653 489 654 q 504 646 506 651 m 317 540 q 322 595 315 567 q 340 629 329 624 q 350 622 344 631 q 360 536 363 593 q 355 506 358 514 q 338 497 351 497 q 317 540 318 496 m 292 581 q 288 585 289 582 q 287 591 286 588 q 290 599 288 594 q 296 596 296 607 q 292 581 296 581 "},"何":{"ha":1361,"x_min":211,"x_max":929,"o":"m 675 1063 q 575 1047 642 1060 q 531 1038 558 1043 q 497 1032 504 1033 q 474 1029 490 1031 q 432 1026 457 1028 q 378 1019 394 1025 q 346 993 361 1013 q 338 978 343 989 q 331 965 332 968 q 302 937 328 961 q 275 908 276 913 q 272 855 265 883 q 292 806 278 826 q 435 726 335 742 q 492 708 471 721 q 514 668 513 696 q 513 651 514 658 q 497 616 507 626 q 457 603 486 606 q 394 602 429 599 q 326 607 360 606 q 265 606 292 608 q 225 589 238 604 q 221 543 213 574 q 233 524 224 531 q 255 517 243 518 q 288 517 267 515 q 383 510 317 518 q 442 506 426 504 q 460 510 446 506 q 485 517 474 514 q 501 518 497 519 q 474 458 521 507 q 431 417 465 450 q 351 332 379 367 q 313 265 318 289 q 318 238 308 247 q 342 238 328 229 q 417 308 363 249 q 434 328 424 317 q 449 345 444 340 q 462 358 454 350 q 478 371 469 365 q 499 383 488 376 q 527 393 522 394 q 546 374 532 392 q 592 294 585 326 q 586 258 594 282 q 547 188 581 240 q 511 104 515 135 q 511 40 510 85 q 524 -82 513 -19 q 553 -168 536 -144 q 568 -181 560 -176 q 585 -178 578 -185 q 594 -164 592 -172 q 600 -142 597 -156 q 591 -55 603 -124 q 579 19 579 14 q 581 78 576 54 q 621 151 585 97 q 651 197 643 185 q 669 236 658 208 q 682 292 679 264 q 675 340 683 317 q 658 374 667 363 q 630 407 649 386 q 606 435 611 428 q 593 460 597 446 q 598 526 582 504 q 657 540 614 547 q 765 499 728 531 q 813 394 801 468 q 824 246 819 356 q 832 128 825 165 q 844 71 838 92 q 865 40 851 54 q 892 22 878 25 q 917 39 907 18 q 926 100 926 60 q 919 263 928 138 q 883 544 907 458 q 869 579 876 564 q 854 596 863 590 q 838 603 846 601 q 808 606 831 604 q 733 604 801 606 q 640 604 661 601 q 599 613 613 606 q 579 636 586 619 q 586 693 558 681 q 668 692 614 706 q 742 679 738 679 q 828 713 774 681 q 817 743 846 725 q 750 767 794 757 q 661 775 706 776 q 642 774 653 774 q 628 773 632 774 q 617 773 624 772 q 607 775 611 774 q 597 778 603 776 q 580 808 585 783 q 576 862 575 833 q 579 915 576 890 q 585 947 582 940 q 610 958 589 956 q 693 965 628 963 q 767 969 756 968 q 818 985 810 974 q 823 1010 825 996 q 811 1033 821 1024 q 756 1058 796 1049 q 675 1063 715 1067 m 499 932 q 515 889 508 925 q 520 838 519 863 q 509 799 521 814 q 471 790 497 785 q 419 814 444 796 q 386 854 394 832 q 394 910 371 889 q 453 936 418 932 q 477 937 461 938 q 499 932 493 936 "},"余":{"ha":1361,"x_min":260,"x_max":840,"o":"m 504 1108 q 458 1039 489 1101 q 344 754 386 890 q 325 697 336 725 q 265 529 276 581 q 261 493 260 508 q 268 472 261 479 q 288 471 275 465 q 332 528 304 478 q 361 569 354 567 q 414 575 376 576 q 497 549 486 572 q 506 517 500 543 q 504 404 518 447 q 474 360 496 376 q 419 347 451 343 q 381 357 411 347 q 328 368 344 369 q 313 365 319 368 q 303 358 306 363 q 300 349 300 353 q 344 306 304 331 q 407 276 385 281 q 438 278 414 275 q 485 274 471 281 q 508 243 499 268 q 528 157 519 214 q 540 -10 535 96 q 547 -131 544 -104 q 568 -219 554 -199 q 586 -229 575 -229 q 608 -217 600 -229 q 619 -191 617 -206 q 622 -153 621 -176 q 620 -96 622 -140 q 618 -42 618 -51 q 632 81 619 -11 q 638 126 635 104 q 642 152 642 147 q 644 169 643 157 q 645 185 646 181 q 644 211 644 190 q 649 269 644 256 q 659 283 651 281 q 696 286 667 286 q 704 286 701 286 q 744 292 735 286 q 800 349 785 315 q 799 378 808 368 q 769 388 789 389 q 714 372 751 388 q 661 356 676 358 q 590 392 610 347 q 578 451 582 410 q 579 526 575 493 q 592 572 583 558 q 622 588 601 586 q 676 581 642 590 q 704 563 693 576 q 732 517 711 553 q 778 449 761 465 q 828 439 803 425 q 839 467 840 446 q 836 488 839 478 q 813 547 831 507 q 788 602 803 568 q 757 667 772 636 q 700 818 726 735 q 656 944 672 911 q 590 1038 636 978 q 521 1108 543 1099 q 504 1108 511 1113 m 536 903 q 571 829 549 885 q 606 763 582 806 q 638 681 639 701 q 611 661 636 664 q 551 661 586 658 l 518 663 l 499 660 q 433 656 456 656 q 400 660 408 656 q 395 666 396 663 q 396 676 394 669 q 399 689 397 683 q 406 705 401 694 q 411 719 410 715 q 492 900 460 849 q 508 917 500 914 q 522 917 515 921 q 536 903 528 914 "},"作":{"ha":1361,"x_min":165,"x_max":1032,"o":"m 218 1108 q 176 1024 190 1099 q 171 982 174 1000 q 167 952 168 964 q 165 919 165 940 q 165 889 165 897 q 167 845 165 881 q 168 793 168 810 q 168 578 171 707 q 169 379 165 449 q 193 61 174 239 q 249 -136 208 -79 q 392 -222 290 -193 q 485 -229 424 -232 q 564 -219 521 -228 q 667 -195 607 -211 q 747 -175 728 -179 q 835 -139 811 -161 q 890 -99 844 -131 q 943 -60 935 -68 q 968 -18 964 -39 q 961 13 972 4 q 928 18 950 22 q 909 14 918 17 q 890 6 900 11 q 875 -1 881 1 q 856 -12 869 -4 q 836 -22 842 -19 q 742 -67 788 -49 q 336 -68 431 -183 q 304 4 319 -46 q 290 86 289 54 q 319 126 293 117 q 379 131 346 135 q 446 132 413 126 q 509 143 463 133 q 593 158 556 153 q 663 161 631 163 q 787 150 696 160 q 903 133 878 140 q 960 121 943 121 q 992 136 981 121 q 993 169 1004 151 q 915 222 976 203 q 796 242 854 240 q 728 238 786 242 q 664 233 671 233 q 622 245 629 233 q 615 304 614 257 q 610 371 617 335 q 603 426 603 408 q 611 463 603 453 q 644 472 619 472 q 747 457 656 472 q 845 435 774 453 q 932 415 917 418 q 1001 410 971 406 q 1029 444 1031 415 q 944 510 1029 479 q 911 519 928 515 q 799 539 889 525 q 731 550 747 547 q 594 593 615 569 q 578 644 581 610 q 581 698 578 654 q 585 746 585 742 q 575 794 583 750 q 567 843 567 839 q 573 876 567 849 q 578 911 579 904 q 567 955 575 926 q 547 1015 560 983 q 519 1067 535 1047 q 490 1079 504 1086 q 478 1067 483 1076 q 469 1044 472 1058 q 465 1019 467 1029 q 461 989 464 1008 q 461 979 461 982 q 456 860 454 903 q 467 726 457 817 q 500 464 489 532 q 518 333 515 368 q 515 279 519 307 q 500 244 510 251 q 418 217 492 238 q 317 199 344 197 q 279 265 285 200 q 286 403 276 297 q 289 454 289 436 q 286 531 289 483 q 278 634 283 579 q 274 707 274 689 q 276 842 271 739 q 281 950 281 946 q 271 1058 282 1021 q 250 1095 265 1076 q 218 1108 235 1114 "},"使":{"ha":1361,"x_min":271,"x_max":801,"o":"m 371 303 q 377 283 371 290 q 399 272 383 275 q 423 267 414 268 q 457 264 432 265 q 515 254 503 260 q 539 234 533 247 q 532 206 544 221 q 444 171 517 188 q 431 167 440 169 q 418 164 422 165 q 406 161 414 163 q 394 158 399 160 q 383 153 389 156 q 374 149 378 151 q 367 144 371 147 q 360 138 363 142 q 355 131 357 135 q 353 124 353 128 q 366 99 350 108 q 406 89 382 90 q 453 90 429 88 q 490 97 476 92 q 546 125 511 104 q 583 146 572 142 q 599 149 592 149 q 612 147 607 149 q 621 138 617 144 q 628 128 625 132 q 635 114 631 124 q 664 22 646 86 q 694 -62 675 -15 q 769 -164 739 -165 q 799 -93 793 -162 q 799 -30 801 -58 q 785 26 796 -1 q 767 69 775 53 q 740 115 758 85 q 715 160 722 146 q 692 221 696 196 q 689 304 688 246 q 675 411 693 378 q 664 429 669 424 q 649 439 658 435 q 621 447 640 443 q 580 460 590 456 q 565 474 569 465 q 562 484 563 479 q 563 494 561 489 q 568 502 565 499 q 576 509 571 506 q 587 515 582 513 q 599 519 592 517 q 612 524 607 522 q 625 528 617 525 q 665 549 650 536 q 727 635 700 579 q 760 750 754 690 q 755 822 763 786 q 728 857 747 858 q 692 825 715 857 q 658 792 671 797 q 606 778 633 779 q 561 786 579 776 q 553 819 540 799 q 611 860 568 846 q 655 885 640 871 q 683 929 669 899 q 694 955 689 940 q 705 988 700 969 q 705 1019 710 1007 q 683 1032 700 1032 q 674 1029 678 1032 q 629 971 660 1022 q 583 913 600 926 q 550 903 565 897 q 531 932 535 910 q 528 989 525 960 q 524 1038 532 1018 q 493 1053 517 1058 q 460 1028 467 1047 q 463 968 454 1010 q 468 910 469 922 q 447 888 465 892 q 415 897 429 885 q 386 943 403 908 q 363 983 371 976 q 344 992 353 990 q 314 951 319 994 q 328 882 307 901 q 396 832 354 857 q 433 819 414 821 q 454 814 449 818 q 465 799 460 810 q 446 763 475 775 q 389 753 417 751 q 373 755 379 753 q 362 761 367 757 q 354 769 357 765 q 347 779 351 772 q 339 790 343 786 q 322 797 333 797 q 301 792 310 797 q 286 690 272 774 q 321 567 296 629 q 338 536 331 544 q 432 497 372 496 l 461 497 q 481 476 499 493 q 436 458 475 469 q 382 428 389 443 q 403 392 371 403 q 469 386 421 386 q 553 380 518 386 q 594 351 589 374 q 594 332 599 339 q 579 324 590 325 q 553 326 568 324 q 528 333 546 329 q 503 339 510 338 q 479 342 496 340 q 443 342 463 343 q 371 303 369 339 m 625 617 q 582 594 599 594 q 569 597 572 593 q 563 624 567 599 q 558 669 558 650 q 561 689 557 686 q 626 707 574 700 q 639 708 633 708 q 665 679 671 707 q 625 617 660 646 m 469 681 q 481 639 478 665 q 477 588 485 613 q 450 564 469 564 q 389 605 418 563 q 386 674 360 647 q 428 691 397 686 q 469 681 460 696 "},"侃":{"ha":1361,"x_min":118,"x_max":1129,"o":"m 729 889 q 742 810 731 864 q 751 760 749 776 q 797 607 763 679 q 875 525 831 535 q 893 524 882 524 q 974 567 935 525 q 1017 628 999 594 q 1046 708 1036 663 q 1051 800 1056 753 q 1023 925 1044 868 q 971 992 1001 982 q 951 992 961 994 q 919 966 925 988 q 919 907 913 944 q 917 853 926 865 q 876 851 904 835 q 847 881 867 858 q 804 919 826 903 q 758 935 782 935 q 729 889 728 933 m 947 786 q 967 782 963 785 q 974 768 972 779 q 971 714 979 746 q 951 665 963 682 q 913 635 936 638 q 867 656 890 633 q 831 717 840 682 q 828 765 821 743 q 858 788 836 786 q 947 786 892 790 m 119 871 q 172 822 121 849 q 257 789 190 814 q 335 758 324 764 q 382 728 374 742 q 384 719 382 722 q 381 710 386 715 q 373 701 375 704 q 363 692 371 697 q 350 685 354 688 q 337 677 346 682 q 323 669 328 672 q 310 664 318 667 q 301 658 304 660 q 232 617 246 632 q 225 569 218 600 q 261 546 232 544 q 358 574 283 546 q 415 594 408 593 q 474 596 464 611 q 492 540 481 583 q 510 461 503 497 q 531 208 518 408 q 546 -14 544 8 q 578 -147 556 -126 q 606 -153 590 -157 q 632 -140 622 -150 q 656 -62 657 -111 q 642 29 654 -37 q 633 82 635 65 q 627 214 632 104 q 622 357 622 324 q 629 451 622 400 q 633 546 636 513 q 585 713 624 660 q 496 790 560 747 q 392 858 417 843 q 307 900 340 890 q 242 906 289 906 q 165 904 194 907 q 134 894 149 903 q 119 871 119 885 m 774 436 q 780 408 769 419 q 813 390 790 396 q 855 381 835 383 q 906 375 875 378 q 989 364 942 372 q 1068 356 1042 356 q 1114 372 1099 357 q 1117 411 1129 386 q 1081 443 1108 429 q 928 475 1029 468 q 774 436 782 483 m 769 290 q 785 260 763 274 q 879 226 804 249 q 1072 236 1074 168 q 1060 261 1071 250 q 1022 286 1047 275 q 960 305 996 297 q 886 317 925 313 q 813 314 850 321 q 769 290 776 307 m 794 154 q 790 114 767 139 q 876 58 815 83 q 923 46 894 51 q 984 38 951 40 q 1039 45 1017 35 q 1060 81 1061 56 q 1056 99 1060 90 q 911 161 1031 142 q 794 154 831 174 "},"侍":{"ha":1361,"x_min":185,"x_max":986,"o":"m 711 972 q 682 942 697 967 q 656 888 667 917 q 642 838 644 858 q 654 579 631 750 q 658 524 656 565 q 665 449 661 482 q 676 399 669 415 q 692 340 692 363 q 682 307 693 317 q 650 307 671 297 q 609 340 632 315 q 579 385 586 365 q 567 446 575 397 q 544 739 536 619 q 547 810 549 789 q 543 844 546 832 q 530 863 539 858 q 510 863 521 867 q 491 850 500 858 q 479 833 482 842 q 454 651 457 783 q 461 565 454 621 q 539 281 494 343 q 544 274 542 276 q 549 268 547 271 q 553 264 550 265 q 557 261 556 263 q 562 258 558 260 q 567 256 565 257 q 574 252 569 254 q 582 249 579 250 q 593 244 586 247 q 601 240 600 242 q 606 238 603 239 q 611 233 610 236 q 615 228 613 231 q 622 218 618 225 q 626 211 624 215 q 632 206 629 206 q 647 207 635 206 q 649 207 647 207 q 690 206 661 208 q 726 203 719 203 q 814 183 764 203 q 851 176 836 175 q 903 192 867 178 q 954 217 935 203 q 979 249 974 232 q 964 285 985 267 q 960 289 961 288 q 956 291 958 290 q 951 292 953 292 q 945 293 950 293 q 938 293 940 293 q 928 292 935 293 q 879 292 889 290 q 836 309 858 296 q 798 339 814 322 q 774 372 782 356 q 763 408 767 385 q 765 462 756 447 q 806 494 774 476 q 826 506 822 503 q 858 539 833 513 q 889 574 883 565 q 907 622 901 592 q 911 715 911 650 q 911 732 911 719 q 911 747 911 744 q 911 759 911 750 q 911 771 911 768 q 912 780 911 774 q 913 790 913 786 q 915 799 914 793 q 917 810 915 804 q 920 822 918 815 q 924 835 922 828 q 938 899 938 881 q 922 933 938 922 q 883 936 907 944 q 853 897 863 928 q 842 838 843 865 q 842 760 840 811 q 842 739 842 746 q 832 656 842 676 q 797 622 819 633 q 745 621 763 606 q 728 675 728 636 q 739 760 728 704 q 760 892 758 849 q 756 933 760 919 q 740 965 751 951 q 711 972 728 979 m 315 497 q 298 444 306 458 q 264 394 290 429 q 213 326 219 339 q 192 251 185 282 q 218 227 199 231 q 253 238 238 224 q 299 289 269 250 q 355 369 329 328 q 390 432 381 410 q 401 468 397 447 q 402 511 404 489 q 390 544 400 533 q 367 551 379 554 q 340 543 351 551 q 324 524 329 535 q 315 497 319 514 m 381 285 q 374 229 376 271 q 365 173 369 186 q 344 136 361 160 q 308 90 333 119 q 264 33 274 50 q 249 -16 249 13 q 278 -43 249 -44 q 321 -21 303 -42 q 352 33 332 -7 q 379 85 372 74 q 419 111 399 117 q 454 83 431 108 q 515 32 475 60 q 650 -49 588 -18 q 742 -82 713 -81 q 775 -73 761 -82 q 792 -49 789 -64 q 760 6 797 -17 q 697 29 746 14 q 632 60 646 47 q 614 83 625 67 q 574 121 603 101 q 510 168 522 156 q 479 219 494 185 q 447 281 458 264 q 411 310 431 307 q 381 285 392 313 "},"侑":{"ha":1361,"x_min":163,"x_max":1035,"o":"m 233 1047 q 171 997 181 1026 q 174 966 164 978 q 204 954 183 954 q 243 961 218 954 q 488 978 361 994 q 683 874 638 958 q 717 758 725 793 q 713 751 715 754 q 708 745 711 747 q 703 742 706 743 q 695 742 700 742 q 687 744 690 743 q 676 747 683 744 q 666 751 669 750 q 654 757 663 753 q 649 758 650 758 q 404 792 536 808 q 290 768 349 786 q 208 726 231 750 q 200 709 201 718 q 204 694 199 700 q 224 685 210 688 q 252 681 239 682 q 290 679 265 679 q 328 680 314 679 q 368 682 342 681 q 382 683 378 683 q 546 686 501 690 q 633 647 617 679 q 624 593 647 621 q 506 532 589 554 q 396 521 479 524 q 306 515 324 518 q 247 478 257 506 q 249 432 240 456 q 353 406 265 390 q 385 413 363 408 q 435 425 407 418 q 472 435 463 432 q 527 448 488 438 q 599 467 567 458 q 647 476 632 475 q 678 474 668 479 q 701 399 694 467 q 742 88 726 172 q 857 -181 778 -106 q 960 -229 901 -221 q 1016 -221 997 -235 q 1018 -176 1035 -207 q 982 -131 1007 -158 q 904 -37 943 -87 q 870 28 883 -10 q 851 99 857 65 q 839 196 846 133 q 808 396 828 296 q 790 507 794 469 q 794 660 785 551 q 804 793 804 769 q 786 901 804 850 q 736 981 768 953 q 602 1044 694 1018 q 413 1074 510 1069 q 233 1047 314 1076 "},"侮":{"ha":1361,"x_min":261,"x_max":839,"o":"m 660 749 l 657 813 q 653 894 656 876 q 651 949 651 904 q 649 1006 650 994 q 647 1036 647 1011 q 643 1078 647 1061 q 629 1094 639 1094 q 600 1069 606 1092 q 604 790 596 1050 q 604 699 607 704 q 596 692 603 694 l 518 675 q 502 672 514 674 q 487 668 490 669 q 476 664 483 667 q 465 657 468 661 q 461 645 463 653 q 460 628 460 638 q 490 529 461 614 q 501 508 493 521 q 513 488 510 494 q 525 424 517 475 q 530 390 529 393 q 533 388 531 388 q 549 401 544 390 q 548 421 549 403 q 546 463 547 439 q 544 489 544 486 q 549 515 543 508 q 575 526 556 521 q 626 524 614 536 q 639 494 629 521 q 646 442 644 479 q 653 328 647 386 q 658 173 654 308 q 667 -89 663 38 q 672 -218 672 -215 q 683 -229 674 -221 q 694 -206 693 -221 q 696 -94 699 -182 q 697 78 694 -29 q 693 179 700 150 q 690 202 690 192 q 693 222 690 213 q 693 278 697 242 q 690 350 689 310 q 692 392 692 361 q 694 442 693 424 q 696 483 694 460 q 700 518 697 506 q 706 535 703 531 q 728 545 710 539 q 766 556 746 551 q 790 563 786 561 q 824 580 814 571 q 839 606 833 589 l 838 629 q 826 678 836 661 q 793 700 815 694 q 678 704 783 703 q 660 749 649 711 m 800 636 q 799 626 800 631 q 768 597 790 608 q 717 586 746 586 q 699 586 704 585 q 670 614 675 590 q 681 657 665 638 q 719 669 696 676 q 747 669 725 668 q 783 660 767 671 q 800 636 799 650 m 621 606 q 603 569 621 582 l 592 568 q 581 569 582 568 q 579 575 579 569 q 589 578 581 575 q 601 583 597 581 q 607 589 606 586 q 600 611 611 601 q 578 624 589 621 q 543 620 558 626 q 525 600 528 614 q 524 596 525 596 q 521 599 524 596 q 525 624 508 613 q 564 639 542 635 q 606 638 592 644 q 621 606 621 631 m 749 656 q 686 639 721 646 q 676 626 676 638 q 685 608 678 613 q 710 603 692 604 q 720 601 717 601 q 726 601 724 601 q 729 601 728 601 q 731 601 731 601 l 753 606 q 771 613 767 610 q 774 626 775 617 q 767 651 772 642 q 749 656 761 660 m 328 924 q 331 899 328 919 l 340 883 q 370 832 368 840 q 371 815 372 824 q 331 756 369 806 q 271 669 282 693 q 261 639 265 657 q 283 649 274 642 q 315 678 294 654 q 339 700 333 696 q 350 708 349 707 q 357 697 353 708 q 361 664 358 693 q 368 603 364 643 q 382 465 378 525 q 394 339 386 404 q 435 -125 418 131 q 435 -143 435 -135 q 436 -156 436 -151 q 436 -165 436 -161 q 438 -172 436 -169 q 439 -177 439 -175 q 441 -181 439 -179 q 444 -185 443 -183 q 449 -190 444 -186 q 458 -179 458 -181 q 464 -119 460 -175 q 463 -56 463 -61 q 459 8 464 -50 q 453 76 454 65 q 424 510 432 339 q 396 719 418 625 l 400 736 q 413 785 407 768 q 422 825 422 808 q 406 863 421 842 q 397 876 403 867 q 385 892 390 886 q 374 906 381 899 q 362 918 368 913 q 349 925 356 924 q 328 926 346 926 l 328 924 "},"侯":{"ha":1361,"x_min":247,"x_max":853,"o":"m 257 1024 q 326 972 265 994 q 436 939 358 960 q 600 890 535 914 q 721 817 703 854 q 733 747 732 797 q 729 623 735 715 q 724 494 724 531 q 739 219 721 407 q 756 -33 754 47 q 761 -156 757 -119 q 773 -208 767 -194 q 800 -218 779 -222 q 828 -192 817 -215 q 843 -143 840 -168 q 850 29 850 -99 q 843 332 851 161 q 833 628 832 549 q 828 824 836 769 q 817 865 824 851 q 794 894 811 879 q 731 935 774 915 q 632 975 689 954 q 551 1007 575 996 q 343 1079 410 1071 q 276 1069 304 1083 q 257 1024 249 1056 m 458 819 q 428 803 444 817 q 398 767 413 790 q 371 717 383 744 q 350 628 350 665 q 356 599 350 607 q 385 583 363 592 q 410 568 406 576 q 421 514 417 556 q 419 469 422 503 q 413 415 418 443 q 399 348 408 388 q 386 285 390 308 q 374 197 376 233 q 380 128 372 160 q 399 72 388 96 q 431 13 410 49 q 461 -43 453 -25 q 474 -90 472 -69 q 463 -153 474 -110 q 453 -212 453 -196 q 459 -233 454 -228 q 474 -232 464 -239 q 491 -219 485 -225 q 511 -201 497 -214 q 525 -185 515 -197 q 543 -164 535 -174 q 556 -151 551 -154 q 600 -164 579 -135 q 608 -180 603 -168 q 617 -201 613 -192 q 630 -219 622 -210 q 645 -228 638 -229 q 664 -219 653 -228 q 684 -183 681 -206 q 674 -137 688 -160 q 638 -100 665 -126 q 628 -90 635 -97 q 618 -81 621 -83 q 609 -72 615 -78 q 601 -63 603 -67 q 594 -53 599 -60 q 587 -42 589 -47 q 583 -31 585 -37 q 579 -17 581 -24 q 578 -1 578 -10 q 588 79 578 22 q 603 208 604 164 q 596 263 603 239 q 556 353 588 290 q 517 443 525 413 q 512 463 514 451 q 508 490 510 475 q 506 519 507 504 q 503 549 504 535 q 503 577 503 564 q 503 601 503 590 q 506 615 504 611 q 517 627 507 625 q 539 628 528 629 q 558 629 550 626 q 571 672 578 635 q 517 774 560 715 q 474 819 488 813 q 458 819 468 822 m 510 185 q 506 114 513 139 q 488 94 500 90 q 454 181 467 103 q 451 213 451 196 q 451 247 450 231 q 458 275 453 263 q 469 292 463 288 q 488 288 481 297 q 500 258 496 278 q 506 221 504 239 q 510 185 508 203 "},"侵":{"ha":1361,"x_min":238,"x_max":871,"o":"m 524 1060 q 508 982 510 1054 q 503 899 508 976 q 522 787 497 822 q 607 738 546 751 q 690 704 660 725 q 729 662 715 686 q 746 599 743 638 q 747 533 749 561 q 739 449 744 506 q 731 343 731 381 q 849 135 732 192 q 863 135 856 131 q 870 149 871 140 q 857 165 869 158 q 787 233 810 193 q 763 336 764 272 q 771 474 761 375 q 779 564 778 538 q 737 702 779 656 q 611 768 694 749 q 549 803 567 778 q 532 882 531 828 q 539 939 535 932 q 551 944 540 943 q 629 933 565 947 q 711 914 668 926 q 731 910 724 910 q 743 918 739 910 q 746 927 744 924 q 743 934 747 931 q 737 939 739 938 q 728 942 735 940 q 717 946 721 944 q 705 949 713 947 q 693 951 697 950 q 574 974 631 968 q 555 978 560 975 q 547 990 550 982 q 548 1022 546 996 q 547 1050 550 1047 q 544 1055 546 1053 q 539 1058 542 1057 q 533 1060 536 1060 q 528 1061 531 1061 q 524 1060 525 1061 m 454 592 q 453 579 454 585 q 446 521 447 564 q 444 479 446 493 q 444 472 443 474 q 444 464 446 469 q 444 450 444 461 q 442 428 443 439 q 440 415 440 418 q 437 406 439 410 q 435 401 435 403 q 397 383 436 386 q 347 389 358 379 q 335 414 339 394 q 331 426 333 424 q 321 429 328 429 q 304 417 308 429 q 304 388 304 414 q 301 350 304 360 q 300 343 299 344 q 299 332 301 342 q 251 215 283 286 q 258 186 238 185 q 272 199 265 186 q 319 318 301 267 q 389 353 331 350 q 429 346 415 353 l 431 329 q 432 297 432 310 q 431 264 433 281 q 428 232 428 247 q 415 171 426 192 l 397 163 q 364 147 376 154 q 341 128 351 139 q 326 102 331 117 q 322 69 322 88 q 306 26 324 51 q 281 -29 288 -1 q 268 -112 274 -57 q 265 -131 267 -119 q 262 -153 263 -143 q 261 -169 261 -162 q 267 -181 261 -176 q 281 -183 274 -185 q 292 -174 288 -181 q 299 -119 293 -169 q 314 -29 306 -57 q 335 11 322 -6 l 340 6 q 382 -17 351 -4 q 442 -34 413 -31 q 479 -14 472 -37 q 471 4 481 -3 q 413 15 463 8 q 375 26 385 18 q 368 49 365 33 q 458 67 435 65 q 472 67 463 68 q 489 67 482 67 q 499 69 496 68 q 504 82 504 74 q 497 94 504 90 q 474 99 493 97 q 453 98 461 99 q 435 96 444 97 q 421 93 426 94 q 402 88 415 92 q 378 82 389 85 l 358 76 q 354 79 357 78 q 349 86 349 83 q 358 113 349 100 q 429 150 371 126 q 455 150 439 146 q 478 157 471 154 q 483 160 481 158 q 486 164 485 163 q 488 169 488 165 q 487 174 488 172 q 485 179 486 175 q 483 185 483 183 q 479 193 482 188 q 464 258 463 235 q 465 267 465 265 q 463 281 463 271 q 463 299 463 290 q 463 315 463 308 q 462 344 460 338 q 474 358 464 351 q 513 361 497 360 q 533 363 531 363 q 539 358 536 363 q 571 311 546 350 q 619 242 608 256 q 651 214 639 218 q 665 215 660 211 q 671 228 671 219 q 624 308 668 249 q 610 327 618 317 q 598 342 601 338 q 590 354 594 347 q 583 367 585 361 q 578 379 581 372 q 560 418 564 418 q 556 417 558 419 q 549 410 553 415 q 544 402 546 406 q 538 393 542 399 q 536 390 536 392 q 490 386 504 388 q 472 388 472 386 q 467 395 472 389 q 463 403 463 401 q 465 420 464 406 q 468 448 467 435 q 469 463 469 461 q 519 475 475 476 q 568 481 563 474 q 569 501 578 492 q 525 514 563 513 q 472 526 472 518 q 477 537 472 529 q 483 547 482 544 q 547 550 483 549 q 563 551 560 551 q 573 564 571 554 q 567 581 575 574 q 525 582 563 583 q 489 581 499 579 q 485 603 479 583 q 510 640 492 625 q 553 657 528 656 q 556 657 554 657 q 568 671 569 658 q 549 683 565 685 q 501 669 522 683 q 467 635 479 656 q 454 592 456 614 m 326 240 q 296 195 303 204 q 289 181 289 186 q 299 169 290 169 q 314 176 308 168 q 335 206 319 183 q 363 249 350 229 q 376 269 376 268 q 381 290 386 282 q 375 294 378 293 q 369 294 372 296 q 363 291 365 293 q 356 285 360 289 q 349 277 353 281 q 342 268 346 274 q 336 258 339 263 q 331 249 333 254 q 326 240 328 243 m 490 264 q 533 227 494 260 q 575 193 572 194 q 582 192 578 192 q 596 207 596 192 q 593 214 596 211 l 507 288 q 490 282 496 293 q 490 264 483 271 "},"俗":{"ha":1361,"x_min":125,"x_max":1103,"o":"m 140 996 q 143 980 142 988 q 148 965 144 972 q 153 953 151 958 q 161 942 156 949 q 169 931 167 935 q 180 919 172 926 q 190 910 188 913 q 202 899 193 907 q 214 889 211 892 q 267 832 250 856 q 289 775 289 801 q 286 759 289 765 q 276 747 283 753 q 257 733 269 742 q 183 672 233 719 q 131 594 126 618 q 144 577 132 582 q 174 576 157 572 q 242 612 197 583 q 293 644 286 640 q 318 638 308 653 q 332 601 328 624 q 333 494 338 567 q 335 442 332 464 q 360 96 357 254 q 368 6 361 32 q 389 -32 375 -25 q 429 -33 408 -40 q 463 21 454 -22 q 468 79 468 65 q 465 141 468 93 q 460 215 461 189 q 457 376 458 282 q 436 679 456 557 q 361 881 417 801 q 286 975 333 921 q 200 1036 239 1029 q 156 1030 174 1042 q 140 996 139 1018 m 650 592 q 701 621 675 592 q 742 681 724 644 q 760 747 760 717 q 750 767 758 758 q 746 787 743 779 q 764 818 749 794 q 774 831 769 826 q 822 985 839 931 q 750 1025 808 1033 q 706 1004 715 1021 q 703 943 697 988 q 701 878 708 899 q 664 792 696 860 l 660 782 q 650 592 572 590 m 972 1031 q 921 973 932 1018 q 915 851 910 928 q 949 649 926 721 q 1013 515 983 535 q 1028 510 1021 510 q 1067 547 1050 511 q 1077 600 1078 574 q 1072 640 1076 626 q 1051 690 1067 653 q 1024 775 1028 747 q 1019 869 1018 801 q 1021 961 1022 933 q 1009 1021 1018 1003 q 972 1031 1000 1039 m 704 543 q 700 497 700 531 q 699 456 701 464 q 667 399 697 446 q 615 296 619 325 q 622 269 613 278 q 644 260 631 260 q 674 268 658 261 q 695 285 683 275 q 717 309 707 296 q 735 333 728 322 q 763 414 746 357 q 782 533 786 493 q 771 563 779 553 q 731 569 754 579 q 704 543 708 560 m 868 503 q 874 453 869 475 q 964 249 894 349 q 1021 189 1000 199 q 1076 193 1049 176 q 1094 215 1088 201 q 1101 244 1101 228 q 1093 276 1101 260 q 1042 339 1083 297 q 1015 368 1019 363 q 995 392 1010 374 q 976 428 981 411 q 971 465 971 444 q 975 490 969 479 q 975 531 989 514 q 944 558 964 544 q 908 575 924 571 q 892 574 899 578 q 871 551 875 564 q 868 503 867 538 m 889 113 q 867 93 882 97 q 826 94 854 89 q 788 107 799 99 q 772 132 783 111 q 747 172 757 161 q 719 189 733 189 q 708 186 714 189 q 688 140 688 174 q 699 56 689 113 q 715 -26 708 0 q 863 -156 757 -181 q 943 -101 910 -144 q 971 -47 963 -75 q 986 33 979 -18 q 982 175 999 131 q 950 207 971 203 q 912 197 922 211 q 898 153 901 183 q 889 113 894 124 m 881 -24 q 854 -42 871 -33 q 819 -51 838 -51 q 796 -33 801 -51 q 821 14 785 7 q 865 13 846 18 q 881 -24 908 4 "},"保":{"ha":1361,"x_min":199,"x_max":950,"o":"m 257 850 q 283 800 267 817 q 343 764 299 788 q 404 725 389 739 q 419 706 415 715 q 401 617 442 668 q 278 511 360 564 q 211 463 224 476 q 213 439 199 446 q 250 436 228 432 q 331 472 297 443 q 435 544 404 533 q 469 538 461 554 q 471 488 476 521 q 440 378 467 468 q 411 256 417 296 q 401 67 399 189 q 425 -122 404 -54 q 441 -154 429 -137 q 463 -175 453 -171 q 486 -172 475 -181 q 500 -118 503 -161 q 489 -40 500 -90 q 474 108 478 15 q 477 202 472 164 q 504 310 482 240 q 553 508 546 444 q 554 571 556 535 q 544 648 553 615 q 516 710 536 681 q 481 758 496 740 q 431 810 467 775 q 367 878 385 854 q 317 997 326 932 q 314 1019 315 1014 q 308 1029 313 1024 q 296 1036 304 1035 q 256 1021 269 1040 q 242 969 243 1001 q 246 906 242 936 q 257 850 250 875 m 611 908 q 613 876 608 892 q 647 819 619 849 q 673 795 649 819 q 700 768 697 771 q 719 717 719 743 q 716 702 721 707 q 699 698 711 697 q 680 701 688 699 q 658 708 672 703 q 651 710 654 710 q 600 724 610 724 q 592 722 593 724 q 613 674 569 708 q 669 636 628 661 q 704 613 701 615 q 711 597 708 608 q 676 425 724 539 q 650 375 665 397 q 615 271 593 292 q 667 289 633 254 q 739 401 704 329 q 757 494 750 425 q 764 563 763 547 q 788 625 772 610 q 831 647 796 635 q 880 674 863 660 q 919 717 897 689 q 949 776 950 754 q 938 799 949 792 q 911 800 926 806 q 903 797 907 799 q 896 792 900 796 q 890 787 892 789 q 883 781 888 785 q 878 774 879 776 q 872 765 876 772 q 865 757 867 758 q 860 751 864 756 q 849 737 853 742 q 838 724 846 732 q 824 711 829 715 q 810 703 818 707 q 796 702 803 700 q 782 710 789 704 q 776 747 774 722 q 785 785 778 772 q 819 829 789 793 q 856 879 849 864 q 861 908 863 894 q 838 963 861 940 q 776 996 815 986 q 665 984 713 1010 q 611 908 617 958 m 726 832 q 685 874 686 831 q 717 928 682 919 q 750 927 735 932 q 774 911 765 922 q 783 885 782 900 q 767 847 783 863 q 726 832 750 832 m 899 375 q 874 384 886 383 q 853 381 861 385 q 834 364 844 376 q 819 344 824 351 q 804 322 814 338 q 744 228 758 247 q 664 151 708 179 q 611 111 640 138 q 585 72 582 85 q 601 65 586 65 q 632 69 617 65 q 658 76 647 72 q 773 143 708 94 q 875 235 838 192 q 921 314 915 281 q 899 375 926 354 "},"信":{"ha":1361,"x_min":189,"x_max":979,"o":"m 768 374 q 835 374 793 375 q 879 372 876 372 q 919 378 908 374 q 933 386 931 381 q 927 408 939 400 q 897 417 915 415 q 819 408 886 417 q 740 444 744 397 q 745 475 739 458 q 758 497 751 492 q 803 514 768 504 q 871 532 856 528 q 910 550 886 536 q 951 585 935 564 q 960 593 957 590 q 975 615 972 600 q 969 646 978 629 q 907 665 950 683 q 853 668 886 668 q 799 674 818 668 q 771 660 771 681 q 790 642 771 647 q 875 636 813 636 q 910 632 894 636 q 929 625 926 628 q 933 610 932 622 q 902 581 924 593 q 862 562 881 568 q 809 547 843 556 q 760 532 775 538 q 746 565 749 544 q 747 642 743 586 q 750 690 750 675 q 740 772 749 710 q 735 840 733 814 q 754 885 738 865 q 769 921 772 904 q 749 962 767 936 q 712 1010 732 988 q 678 1043 692 1033 q 658 1051 668 1050 q 648 1042 649 1053 q 654 1019 647 1032 q 666 1002 656 1018 q 689 969 676 986 q 712 936 701 951 q 724 919 722 921 q 724 896 729 907 q 700 865 721 888 q 672 828 678 842 q 663 817 671 822 q 574 731 636 796 q 569 718 569 725 q 585 704 569 703 q 594 708 590 704 q 625 738 599 711 q 651 765 644 758 q 685 796 682 794 q 701 698 693 797 q 707 571 708 599 q 701 535 706 544 q 659 519 696 517 q 621 538 622 521 q 632 561 621 544 q 658 613 651 592 q 663 636 663 629 q 671 647 663 638 q 686 676 685 661 q 671 701 688 690 q 643 701 657 707 q 621 682 629 696 q 613 665 618 678 q 557 589 565 624 q 550 572 556 585 q 544 553 544 558 q 546 532 543 547 q 571 508 553 517 q 608 497 589 500 q 658 490 628 493 q 672 489 664 489 q 685 488 681 489 q 694 487 689 488 q 701 485 699 486 q 705 481 703 483 q 708 474 707 478 q 710 464 710 469 q 704 428 711 446 q 683 407 697 410 q 631 404 679 406 q 569 399 581 401 q 563 375 546 390 q 629 371 574 365 q 681 375 667 376 q 701 367 697 372 q 708 344 706 363 q 715 265 713 314 q 717 178 717 215 q 716 76 717 140 q 715 -10 715 13 q 713 -51 714 -18 q 709 -113 711 -83 q 707 -149 707 -143 q 715 -176 710 -169 q 740 -154 726 -189 q 753 -117 749 -133 q 758 -74 757 -100 q 760 -31 760 -49 q 758 33 760 -14 q 756 111 757 79 q 754 238 754 218 q 744 321 754 268 q 739 367 739 351 q 768 374 746 374 m 603 569 q 599 565 600 564 q 583 576 583 567 q 608 622 583 594 q 635 635 638 653 q 603 569 629 608 m 274 1032 q 266 1019 265 1028 q 274 1006 267 1010 q 292 1006 278 1004 q 378 1004 313 1007 q 396 1003 386 1004 q 410 1003 406 1003 q 421 1002 415 1003 q 430 1002 426 1001 q 436 1004 433 1003 q 441 1008 439 1006 q 444 1013 443 1010 q 442 1028 449 1022 q 425 1033 436 1033 q 304 1036 357 1033 q 274 1032 282 1038 m 193 899 q 222 882 194 886 q 254 868 238 881 q 357 700 329 817 q 375 431 385 583 q 365 375 371 382 q 345 388 358 368 q 325 428 332 408 q 313 474 319 440 q 311 487 313 479 q 308 499 310 494 q 306 510 307 504 q 303 519 304 515 q 299 526 301 522 q 294 531 297 529 q 288 533 292 532 q 276 533 281 536 q 269 524 271 531 q 267 510 268 518 q 268 493 267 501 q 275 439 268 467 q 296 376 285 396 q 331 343 307 356 q 364 326 358 329 q 376 306 374 321 q 379 267 381 290 q 375 222 378 243 q 374 178 372 200 q 383 144 375 156 q 396 139 389 136 q 422 185 415 144 q 417 258 425 203 q 418 322 408 311 q 431 332 422 329 q 449 338 440 335 q 461 347 457 342 q 491 418 476 374 q 506 497 506 463 q 496 526 504 514 q 476 533 488 539 q 467 513 471 529 q 459 467 463 501 q 449 408 456 433 q 432 376 443 382 q 425 374 428 374 q 420 376 422 374 q 417 380 418 378 q 414 387 415 382 q 412 394 413 392 q 410 403 411 397 q 410 406 410 404 q 407 527 400 426 q 414 653 414 628 q 411 694 413 667 q 409 738 410 722 q 409 776 408 753 q 413 813 410 799 q 420 843 415 826 q 434 870 425 860 q 456 888 443 881 q 472 889 460 890 q 488 890 483 888 q 492 894 490 892 q 495 899 494 896 q 496 906 496 903 q 494 911 496 910 q 474 922 490 919 q 421 924 461 924 q 388 922 397 924 q 356 924 378 919 q 294 919 318 925 q 231 923 271 926 q 193 899 190 919 m 381 890 q 383 851 390 869 q 356 836 376 833 q 335 842 344 836 q 318 855 325 847 q 308 872 311 863 q 307 883 307 876 q 307 890 307 890 q 381 890 311 894 m 494 188 q 489 142 489 176 q 489 117 489 121 q 485 78 488 86 q 467 67 482 71 q 408 58 447 61 q 343 57 368 54 q 333 59 336 58 q 325 66 329 60 q 318 81 321 72 q 310 110 315 89 l 307 115 q 304 128 306 124 q 279 153 294 156 q 267 146 271 151 q 265 131 264 140 q 267 110 265 121 q 272 88 268 100 q 280 65 276 75 q 286 46 283 56 q 290 32 289 36 q 335 -55 306 -21 q 408 -92 364 -89 q 447 -92 438 -93 q 514 1 490 -81 q 529 103 526 44 q 522 183 532 161 q 508 199 517 197 q 494 188 500 200 m 481 8 q 479 -1 481 3 q 474 -11 478 -6 q 469 -21 471 -17 q 459 -41 464 -33 q 447 -54 454 -49 q 428 -59 439 -60 q 401 -51 417 -58 q 347 -7 361 -33 q 344 16 339 8 q 369 29 349 24 q 437 34 394 38 q 481 8 479 31 "},"俱":{"ha":1361,"x_min":206,"x_max":949,"o":"m 306 879 q 307 772 303 847 q 317 633 313 667 q 356 483 329 546 q 385 431 371 449 q 426 397 399 414 q 464 371 457 379 q 476 346 476 358 q 471 308 476 333 q 460 238 460 256 q 483 201 460 203 q 517 224 506 199 q 533 290 528 250 q 543 340 538 329 q 558 363 549 353 q 575 374 568 374 q 590 364 582 374 q 611 313 597 354 q 633 257 625 269 q 658 238 644 236 q 656 360 693 242 q 649 407 647 390 q 663 450 651 424 q 693 504 671 467 q 739 596 725 560 q 775 776 751 633 q 785 838 779 807 q 787 853 786 849 q 789 869 788 858 q 791 884 790 879 q 792 897 792 889 q 790 910 792 906 q 788 921 789 915 q 783 930 786 926 q 775 936 779 933 q 765 940 771 939 q 751 942 758 942 q 660 910 722 940 q 601 881 614 886 q 532 864 560 863 q 450 893 514 865 q 358 926 386 922 q 319 919 329 931 q 306 879 308 908 m 453 824 q 489 774 489 796 q 451 740 490 754 q 385 733 413 725 q 358 765 371 738 q 347 818 344 792 q 360 849 349 840 q 390 853 372 857 q 423 841 407 849 q 453 824 439 833 m 721 829 q 718 774 724 803 q 701 740 713 746 q 678 738 696 738 q 567 749 607 735 q 547 772 550 756 q 578 817 544 793 q 675 860 621 849 q 710 860 701 865 q 721 829 718 854 m 642 686 q 694 654 688 676 q 687 617 703 629 q 642 600 671 604 q 561 593 622 596 q 488 589 504 590 q 407 583 425 582 q 361 625 363 588 q 383 674 361 656 q 436 696 404 693 q 642 686 544 707 m 628 536 q 643 508 649 531 q 600 459 638 485 q 529 426 563 433 q 469 433 503 421 q 417 467 436 444 q 407 511 397 490 q 462 539 415 531 q 556 545 508 547 q 628 536 603 543 m 361 356 q 344 350 351 356 q 319 311 336 343 q 299 281 306 285 q 289 279 294 278 q 253 381 263 289 q 252 394 253 386 q 251 409 251 403 q 249 424 250 415 q 247 440 249 433 q 244 454 246 446 q 242 466 243 463 q 238 474 240 469 q 233 479 236 479 q 228 478 231 479 q 214 448 219 472 q 208 396 208 424 q 210 344 207 368 q 238 272 215 318 q 267 188 265 215 q 264 156 267 172 q 247 94 261 139 q 229 17 232 42 q 232 -58 225 -8 q 246 -125 239 -107 q 257 -140 251 -140 q 278 -94 265 -139 q 295 13 285 -72 q 314 115 306 97 q 318 124 317 122 q 324 131 319 126 q 331 135 328 136 q 343 135 335 135 q 435 118 403 117 q 465 135 467 119 q 431 157 465 140 q 354 213 365 189 q 353 222 353 215 q 365 260 353 231 q 386 326 385 308 q 361 356 386 357 m 843 449 q 858 375 843 432 q 883 258 882 285 q 871 224 883 231 q 867 224 869 222 q 810 299 865 225 q 785 330 790 326 q 767 334 779 333 q 747 332 756 335 q 736 322 738 329 q 772 269 736 310 q 826 153 825 211 q 769 103 829 96 q 632 107 665 117 q 617 88 615 101 q 669 49 617 63 q 703 45 688 44 q 761 54 719 46 q 813 63 796 63 q 843 59 833 64 q 857 42 853 54 q 864 11 860 36 q 872 -38 868 -14 q 875 -72 875 -62 q 882 -125 881 -115 q 908 -150 890 -161 q 931 -83 932 -137 q 914 22 929 -53 q 906 72 906 57 q 908 106 906 90 q 914 131 911 122 q 926 161 917 139 q 945 213 943 197 q 944 274 947 229 q 890 442 932 385 q 850 468 872 468 q 843 449 843 461 "},"倉":{"ha":1361,"x_min":344,"x_max":672,"o":"m 446 928 q 361 763 410 881 q 344 704 346 725 q 350 700 347 701 q 355 699 353 699 q 360 700 357 699 q 365 702 364 701 q 372 706 367 703 q 378 711 376 710 q 411 718 389 718 q 515 716 453 721 q 596 706 576 711 q 607 688 601 704 q 621 671 613 672 q 641 676 635 668 q 644 700 647 685 q 585 839 639 729 q 492 949 535 939 q 466 947 475 953 q 446 928 457 942 m 482 875 q 522 843 500 868 q 556 799 544 818 q 564 775 564 785 q 557 760 564 765 q 485 751 531 744 q 424 772 440 758 q 417 790 415 779 q 460 867 424 825 q 482 875 472 881 m 383 560 q 399 450 383 528 q 401 436 400 443 q 403 426 403 429 q 406 417 404 422 q 410 369 410 397 q 411 356 411 361 q 426 229 415 261 q 445 208 433 210 q 460 226 457 207 q 466 257 463 253 q 490 261 469 261 q 556 281 532 261 q 567 288 561 285 q 613 356 599 306 q 622 464 628 407 q 575 576 613 544 q 454 615 538 607 q 425 617 432 618 q 397 611 406 617 q 385 594 388 606 q 383 560 382 583 m 535 540 q 571 494 563 519 q 558 453 579 463 q 501 443 539 443 q 456 458 464 443 q 449 480 451 467 q 445 507 446 493 q 446 535 444 521 q 460 560 449 553 q 485 563 471 567 q 513 554 500 560 q 535 540 525 549 m 571 388 q 562 338 581 369 q 521 299 543 306 q 463 310 482 288 q 457 372 439 343 q 508 408 475 400 q 546 406 526 413 q 571 388 565 400 m 376 168 q 396 121 378 154 q 403 110 399 118 q 409 100 408 101 q 413 92 410 99 q 417 83 417 85 q 420 74 418 81 q 423 64 422 68 q 426 51 424 60 q 429 33 428 42 q 432 13 431 25 q 460 -77 442 -53 q 532 -108 478 -101 q 601 -86 576 -112 q 608 -76 604 -82 q 614 -67 611 -71 q 619 -56 617 -62 q 623 -46 621 -50 q 626 -33 625 -42 q 628 -19 628 -24 q 631 -5 629 -15 q 632 10 632 6 q 633 28 632 15 q 636 47 635 42 q 638 66 636 56 q 639 79 639 76 q 640 87 639 82 q 642 94 642 92 q 647 104 643 97 q 672 175 672 156 q 653 196 671 197 q 636 188 643 196 q 604 131 622 174 q 590 111 597 114 q 492 97 544 92 q 482 98 486 97 q 474 99 478 99 q 467 102 469 100 q 463 105 465 104 q 459 110 461 106 q 456 115 457 114 q 453 124 456 117 q 447 135 450 131 q 419 181 432 169 q 392 188 408 192 q 376 168 376 183 m 590 61 q 603 24 601 50 q 597 -24 606 -3 q 571 -54 589 -44 q 524 -57 543 -64 q 490 -33 504 -50 q 472 13 472 -11 q 494 51 472 38 q 533 63 503 56 q 542 64 536 63 q 551 66 549 65 q 558 67 553 67 q 565 68 563 68 q 570 68 567 68 q 576 67 574 68 q 581 66 578 67 q 586 64 583 65 q 590 61 589 63 "},"倶":{"ha":1361,"x_min":147,"x_max":1053,"o":"m 799 1099 q 748 1082 779 1096 q 681 1050 717 1068 q 632 1026 644 1032 q 604 1015 617 1019 q 580 1008 592 1011 q 558 1006 568 1006 q 538 1007 549 1006 q 516 1011 526 1008 q 492 1019 506 1014 q 428 1049 476 1025 q 353 1079 376 1074 q 322 1082 338 1083 q 302 1078 310 1082 q 290 1069 294 1075 q 282 1051 285 1063 q 281 971 278 1032 q 282 904 282 932 q 361 506 282 631 q 391 466 378 479 q 426 442 404 453 q 468 417 457 426 q 485 392 483 404 q 476 343 486 386 q 464 249 463 278 q 493 207 465 207 q 531 234 518 207 q 549 308 543 261 q 558 368 554 356 q 574 392 563 382 q 635 404 621 431 q 645 365 640 394 q 654 311 650 336 q 670 267 658 286 q 701 251 682 249 q 719 301 728 257 q 710 338 717 310 q 703 374 704 365 q 704 465 694 428 q 744 553 714 501 q 785 629 775 607 q 812 720 800 665 q 836 857 824 775 q 853 965 849 939 q 860 1008 858 992 q 863 1045 863 1024 q 857 1078 863 1067 q 837 1097 851 1090 q 799 1099 822 1103 m 497 907 q 498 889 501 896 q 477 872 494 882 q 438 854 460 861 q 393 847 415 847 q 358 857 371 846 q 335 900 344 871 q 326 953 325 929 q 335 984 328 975 q 360 996 342 993 q 440 967 393 997 q 497 907 488 938 m 776 976 q 779 940 781 960 q 774 904 778 921 q 767 876 771 888 q 756 860 761 864 q 738 857 751 857 q 659 860 711 854 q 588 872 607 865 q 573 896 575 876 q 579 932 571 915 q 651 983 592 961 q 751 1006 710 1006 q 765 1002 760 1006 q 772 994 771 999 q 776 976 774 989 m 604 804 q 699 789 664 799 q 742 757 740 776 q 728 701 742 733 q 688 682 721 686 q 629 678 668 679 q 540 676 590 676 q 478 676 490 676 q 440 674 467 675 q 403 672 414 672 q 376 675 393 672 q 349 703 358 681 q 347 746 340 725 q 401 797 357 782 q 496 810 446 813 q 594 804 546 807 q 604 804 601 804 m 657 617 q 683 583 689 610 q 624 510 675 551 q 596 491 606 496 q 564 485 586 486 q 478 496 525 481 q 407 532 431 511 q 385 563 392 546 q 390 597 379 581 q 485 618 400 607 q 576 622 518 624 q 657 617 635 621 m 179 540 q 168 503 176 536 q 160 356 149 424 q 172 308 165 322 q 197 268 178 294 q 228 222 222 236 q 232 192 231 211 q 210 85 232 160 q 186 -12 190 19 q 185 -51 183 -32 q 204 -183 188 -128 q 218 -206 211 -206 q 228 -188 221 -206 q 244 -149 236 -171 q 253 -118 251 -128 q 264 -18 257 -99 q 292 118 274 89 q 299 128 296 125 q 308 131 303 131 q 319 129 313 131 q 438 110 404 108 q 465 117 458 110 q 471 129 471 124 q 404 163 467 138 q 364 181 371 176 q 344 205 354 188 q 332 233 333 222 q 350 279 331 243 q 369 322 365 310 q 376 358 376 343 q 367 386 376 374 q 346 397 358 399 q 338 394 342 397 q 297 344 324 388 q 268 303 276 308 q 247 310 260 297 q 217 375 224 331 l 213 499 q 197 546 208 540 q 179 540 186 551 m 788 351 q 794 339 788 347 q 853 274 801 329 q 901 171 888 236 q 894 108 911 131 q 839 89 878 86 q 768 97 829 90 q 757 99 765 97 q 687 103 725 107 q 650 72 649 99 q 690 35 651 50 q 761 18 729 19 q 842 32 774 18 q 913 40 896 42 q 935 26 926 40 q 955 -37 946 6 q 965 -117 964 -79 q 972 -192 968 -169 q 1022 -189 982 -243 q 1031 -140 1032 -176 q 1014 -40 1029 -111 q 994 75 996 40 q 1001 118 994 100 q 1022 168 1007 132 q 1049 233 1046 218 q 1046 293 1053 250 q 1017 413 1040 328 q 953 531 989 513 q 943 532 949 532 q 924 515 925 532 q 931 475 924 499 q 949 397 935 449 q 968 282 968 319 q 968 260 968 267 q 967 256 967 257 q 957 243 964 242 q 914 293 947 244 q 869 356 876 347 q 856 366 861 364 q 835 368 850 368 q 788 351 788 367 "},"側":{"ha":1361,"x_min":126,"x_max":1108,"o":"m 728 179 q 746 184 740 179 q 753 195 751 189 q 758 217 756 201 q 763 237 761 231 q 769 252 765 243 q 778 262 774 261 q 792 265 783 263 q 814 263 801 268 q 853 256 844 256 q 869 266 864 256 q 874 289 875 276 q 867 311 872 301 q 819 358 860 324 q 810 367 819 358 q 797 378 800 375 q 788 388 793 381 q 781 399 782 394 q 781 410 779 404 q 829 447 782 415 q 851 465 842 457 q 872 481 861 472 q 887 499 882 490 q 893 515 892 507 q 888 531 894 524 q 869 544 882 539 q 813 539 854 551 q 791 534 799 536 q 773 532 783 532 q 758 538 763 532 q 751 554 753 543 q 768 601 751 567 q 783 641 781 628 q 786 689 786 654 q 607 860 789 868 q 421 786 464 854 q 406 738 408 764 q 408 695 404 713 q 422 638 411 678 q 429 613 425 629 q 439 581 436 592 q 444 555 442 571 q 444 532 447 539 q 437 517 442 525 q 421 508 432 510 q 393 507 410 506 q 364 504 369 510 q 357 481 356 496 q 367 457 358 467 q 403 425 374 449 q 412 419 406 424 q 421 413 418 415 q 429 406 424 411 q 437 399 435 401 q 442 391 439 396 q 444 382 444 386 q 442 373 444 378 q 436 363 440 368 q 404 340 433 360 q 375 319 375 319 q 364 294 363 307 q 376 267 364 272 q 418 265 389 263 q 451 267 442 269 q 465 254 460 265 q 476 196 474 240 q 485 150 479 164 q 511 138 490 136 q 538 151 529 138 q 553 196 546 165 q 549 379 574 282 q 546 394 549 385 q 542 408 543 404 q 540 418 540 411 q 540 428 539 425 q 542 435 540 431 q 547 442 543 439 q 554 446 550 444 q 628 464 585 457 q 676 465 661 472 q 693 425 692 457 q 693 367 694 406 q 689 297 692 329 q 686 263 686 264 q 694 201 686 224 q 728 179 703 178 m 654 732 q 608 706 653 707 q 574 707 590 704 l 554 711 q 524 744 496 729 q 567 756 536 751 q 627 756 599 761 q 654 732 656 750 m 669 597 q 613 571 669 582 q 565 567 594 565 q 535 583 536 569 q 565 610 532 603 q 634 613 599 617 q 669 597 669 608 m 975 700 q 992 628 976 682 q 1008 540 1011 575 q 965 476 1004 504 q 928 453 963 474 q 890 431 894 433 q 864 376 864 408 q 913 336 867 326 q 969 360 928 340 q 1008 378 1003 376 q 1022 364 1021 381 q 1018 338 1022 347 q 1014 279 1013 313 q 1032 156 1017 196 q 1067 122 1046 118 q 1100 178 1090 125 q 1103 344 1107 229 q 1102 463 1101 361 q 1095 625 1103 565 q 1065 714 1088 685 q 1024 743 1049 738 q 986 738 999 750 q 975 700 974 725 m 135 493 q 138 456 132 472 q 151 432 143 440 q 178 408 158 424 q 198 391 190 399 q 215 370 206 383 q 224 345 224 357 q 222 315 224 333 q 193 263 218 293 q 136 181 149 208 q 128 147 128 161 q 147 124 131 129 q 176 129 163 119 q 207 154 181 132 q 253 154 238 181 q 264 89 261 139 q 272 14 268 29 q 308 -26 282 -22 q 347 -12 335 -29 q 364 39 358 4 q 356 206 369 90 q 346 275 350 244 q 272 471 321 408 q 238 501 257 489 q 213 513 228 508 q 181 519 197 518 q 151 515 164 521 q 135 493 138 508 "},"備":{"ha":1361,"x_min":71,"x_max":1224,"o":"m 111 596 q 129 597 124 596 q 168 622 146 603 q 216 666 190 640 q 249 699 242 692 q 285 719 269 715 q 318 716 306 726 q 334 681 331 706 q 338 635 338 656 q 335 587 338 615 q 321 482 332 558 q 307 356 308 408 q 303 235 307 335 q 301 108 300 136 q 319 -21 301 47 q 361 -89 336 -89 q 382 -65 376 -87 q 374 90 389 -33 q 373 132 372 117 q 376 174 374 147 q 379 211 379 201 q 378 239 381 222 q 375 269 375 256 q 376 327 374 299 q 396 469 378 356 q 410 581 407 549 q 413 667 414 614 q 399 779 411 719 q 388 821 393 813 q 364 849 383 829 q 342 874 349 864 q 326 913 336 885 q 308 953 317 944 q 265 985 300 963 q 207 1014 229 1007 q 186 1014 197 1017 q 179 957 149 1003 q 224 904 192 938 q 268 853 260 867 l 269 843 q 264 816 269 829 q 253 795 258 803 q 232 775 247 788 q 211 759 217 763 q 186 743 206 756 q 110 681 140 713 q 72 617 71 639 q 111 596 72 594 m 543 926 q 569 888 543 913 q 596 860 592 867 q 593 832 603 849 q 549 789 585 815 q 526 767 535 778 q 499 706 497 728 q 532 694 499 685 q 586 735 547 699 q 646 786 632 776 q 681 794 663 797 q 769 753 719 789 q 819 681 826 710 q 810 667 818 671 q 794 662 801 663 q 765 660 786 661 q 728 657 739 658 q 706 650 718 656 q 690 633 694 644 q 688 612 681 619 q 703 602 694 604 q 728 599 711 600 q 761 596 756 597 q 771 586 772 594 q 765 571 769 579 q 753 557 760 563 q 739 550 746 551 q 713 552 728 546 q 682 570 699 558 q 660 585 665 582 q 641 583 649 590 q 633 563 633 576 q 640 546 633 557 q 643 540 642 543 q 645 534 644 536 q 647 529 646 532 q 660 509 656 514 q 681 490 664 504 q 685 486 683 488 q 726 452 714 463 q 751 422 738 442 q 772 379 765 403 q 790 265 789 322 q 779 201 793 224 q 738 172 763 174 q 722 180 728 172 q 713 197 715 188 q 707 225 710 206 q 702 250 704 242 q 697 263 700 258 q 692 269 694 268 q 685 269 689 271 q 663 263 674 268 q 646 247 653 257 q 636 226 639 238 q 628 90 631 194 q 624 -6 626 25 q 621 -67 619 -43 q 630 -110 622 -97 q 654 -118 638 -122 q 665 -115 661 -117 q 672 -106 669 -112 q 674 -95 674 -100 q 675 -78 675 -90 q 675 -72 675 -74 q 690 -25 678 -36 q 736 -18 701 -14 q 769 -34 764 -22 q 772 -83 775 -46 q 775 -151 768 -139 q 794 -162 781 -162 q 812 -158 806 -164 q 822 -137 818 -151 q 826 -112 825 -124 q 826 -81 826 -101 q 826 -71 826 -74 q 829 -36 828 -43 q 891 -14 838 -18 q 963 -19 944 -10 q 988 -82 982 -28 q 996 -129 990 -117 q 1018 -142 1001 -142 q 1028 -140 1024 -142 q 1035 -133 1032 -137 q 1040 -126 1038 -129 q 1043 -115 1042 -122 q 1045 -103 1044 -108 q 1047 -90 1046 -99 q 1047 -76 1047 -81 q 1047 -61 1047 -71 q 1047 -49 1047 -53 q 1050 40 1047 -15 q 1057 264 1060 203 q 1050 310 1054 300 q 982 332 1040 333 q 924 326 975 332 q 865 319 874 319 q 853 321 858 319 q 844 324 847 322 q 838 328 840 326 q 833 335 835 331 q 830 344 831 340 q 829 354 829 347 q 829 365 829 361 q 829 378 829 369 q 829 392 829 388 q 829 406 829 400 q 828 417 829 411 q 826 426 826 422 q 824 434 826 429 q 820 441 821 439 q 816 449 819 443 q 811 456 813 454 q 805 463 810 457 q 799 471 800 469 q 779 517 775 500 q 819 576 783 538 q 844 608 838 597 q 867 651 851 619 q 896 703 885 690 q 931 728 904 713 q 992 779 953 742 q 997 783 993 781 q 1023 807 1013 799 q 1049 824 1033 815 q 1079 830 1065 833 q 1104 811 1093 826 q 1131 756 1113 799 q 1153 710 1143 725 q 1179 692 1163 696 q 1211 697 1197 686 q 1214 735 1224 707 q 1174 808 1207 757 q 1133 883 1135 871 q 1151 917 1133 896 q 1164 940 1164 931 q 1156 963 1167 956 q 1131 963 1146 969 q 1053 893 1104 950 q 1031 868 1035 872 q 995 842 1017 857 q 949 813 974 826 q 908 796 925 800 q 753 821 838 781 q 628 913 669 861 q 596 946 607 939 q 574 950 585 950 q 553 943 563 950 q 543 926 543 936 m 974 206 q 972 196 975 201 q 933 172 963 174 q 878 182 904 169 q 844 207 851 194 q 853 238 832 229 q 901 244 874 247 q 974 206 972 236 m 758 63 q 752 58 756 60 q 744 54 749 56 q 735 52 739 53 q 723 50 731 51 q 711 49 715 49 q 686 49 690 44 q 688 75 682 54 q 717 124 696 118 q 760 108 742 132 q 758 63 778 85 m 885 117 q 975 81 971 113 q 968 61 978 67 q 936 55 960 57 q 889 53 913 53 q 854 57 865 54 q 835 74 838 60 q 846 106 832 89 q 860 115 853 114 q 885 117 867 117 "},"僕":{"ha":1361,"x_min":203,"x_max":960,"o":"m 235 750 q 244 731 235 736 q 265 732 253 726 q 296 761 274 738 q 326 788 319 786 q 345 745 340 789 q 349 658 350 701 q 333 460 347 571 q 331 413 329 432 q 354 346 333 344 q 368 357 361 346 q 388 415 379 374 q 401 607 393 449 q 390 907 415 838 q 385 920 388 915 q 378 929 382 925 q 369 935 374 933 q 357 943 365 938 q 350 946 353 944 q 333 956 339 953 q 323 965 328 960 q 308 982 318 969 q 210 1018 247 1061 q 207 994 203 1007 q 218 971 211 981 q 261 940 229 957 q 310 903 301 918 q 315 885 315 893 q 303 851 315 868 q 275 822 290 835 q 247 790 260 810 q 235 750 233 771 m 722 1004 q 713 946 713 993 q 706 912 711 922 q 685 893 701 901 q 667 891 674 892 q 656 901 661 890 q 650 920 651 911 q 646 944 649 929 q 635 993 640 982 q 615 1006 628 1006 q 583 894 574 1006 q 593 838 588 858 q 615 789 599 818 q 657 724 626 768 q 683 675 676 696 q 696 608 699 629 q 692 596 694 600 q 685 593 690 592 q 676 597 681 594 q 661 607 672 600 q 652 613 656 611 q 644 618 649 615 q 583 640 601 646 q 571 618 564 635 q 603 582 576 606 q 664 532 629 557 q 707 449 744 476 q 699 446 704 446 q 692 447 694 446 q 681 450 689 447 q 668 454 674 453 q 586 474 610 472 q 560 465 568 474 q 575 429 546 449 q 642 396 593 417 q 693 372 688 376 q 699 326 706 365 q 697 278 692 288 q 714 265 703 269 q 733 263 725 260 q 750 281 743 265 q 761 338 757 296 q 763 352 763 344 q 764 363 764 360 q 765 370 764 367 q 767 376 765 374 q 771 381 768 378 q 778 386 774 383 q 826 415 792 396 q 888 464 867 438 q 896 481 896 474 q 892 490 896 486 q 883 496 889 494 q 869 496 876 497 q 824 467 858 493 q 799 450 806 453 q 769 458 776 439 q 772 507 763 476 q 781 524 775 519 q 803 532 788 529 q 822 535 811 533 q 835 537 832 536 q 844 540 839 538 q 852 545 849 542 q 863 556 856 549 q 917 642 915 613 q 911 654 917 649 q 867 658 896 672 q 804 604 844 646 q 779 581 781 581 q 774 589 776 581 q 773 649 767 611 q 786 700 779 688 q 808 719 792 710 q 832 738 825 729 q 849 763 840 749 q 867 791 858 776 q 885 822 876 806 q 901 856 893 839 q 915 890 908 872 q 925 922 921 907 q 904 1018 954 1019 q 894 1016 899 1018 q 888 1010 890 1014 q 883 1001 885 1006 q 878 989 881 997 q 871 965 876 983 q 862 939 865 947 q 851 920 858 931 q 835 904 844 910 q 795 895 815 893 q 769 918 775 897 q 772 950 769 922 q 771 1001 775 986 q 749 1017 764 1018 q 722 1004 733 1015 m 818 813 q 806 785 815 800 q 783 758 796 771 q 757 739 769 746 q 713 743 733 728 q 683 783 693 758 q 676 814 676 800 q 685 838 676 828 q 710 850 693 847 q 748 855 731 854 q 784 853 765 856 q 813 841 803 851 q 818 813 822 831 m 867 326 q 872 263 860 311 q 881 199 885 215 q 857 176 875 178 q 844 181 853 176 q 820 196 838 185 q 788 216 803 207 q 767 228 772 225 q 726 239 743 240 q 708 228 715 238 q 703 206 701 218 q 706 199 704 203 q 709 193 707 196 q 715 187 711 190 q 720 181 718 183 q 727 176 722 179 q 734 171 732 172 q 742 166 736 169 q 749 161 747 163 q 797 125 792 135 q 800 113 801 118 q 733 92 796 101 q 658 76 672 82 q 636 53 635 68 q 683 21 640 19 q 754 38 703 22 q 804 50 792 50 q 823 44 818 50 q 833 24 828 39 q 846 -68 839 1 q 850 -111 849 -106 q 881 -161 857 -164 q 910 -69 913 -157 q 900 26 908 -51 q 898 101 894 75 q 917 161 901 126 q 949 244 943 218 q 939 317 960 292 q 917 334 931 326 q 888 341 903 342 q 867 326 872 340 "},"億":{"ha":1361,"x_min":199,"x_max":968,"o":"m 422 782 q 394 756 397 781 q 408 717 392 731 q 453 692 419 707 q 488 671 483 678 q 488 665 488 667 q 483 658 489 663 q 473 652 476 654 q 460 647 469 650 q 445 641 451 643 q 429 636 439 639 q 408 621 421 633 q 376 568 388 601 q 371 497 364 535 q 440 401 385 426 q 489 386 450 397 q 549 358 533 372 q 571 307 564 344 q 576 224 581 253 q 558 206 574 208 q 490 215 547 203 q 449 219 465 221 q 399 89 378 217 q 429 -3 407 42 q 481 -78 451 -49 q 533 -110 499 -96 q 601 -134 567 -125 q 667 -147 635 -143 q 713 -146 685 -149 q 895 -60 843 -133 q 942 160 947 13 q 918 233 939 219 q 860 219 892 250 q 851 211 857 217 q 845 205 846 206 q 840 201 844 204 q 833 197 835 197 q 826 196 831 197 q 815 194 821 194 q 801 193 810 193 q 730 200 767 192 q 679 219 693 208 q 672 243 675 224 q 681 343 663 322 q 688 350 683 347 q 697 354 693 353 q 709 357 701 356 q 721 359 717 358 q 736 361 725 360 q 753 363 747 363 q 889 410 856 375 q 922 508 935 457 q 876 578 913 546 q 796 629 840 611 q 738 661 743 651 q 756 683 732 671 q 815 707 772 693 q 919 763 890 731 q 929 786 931 775 q 860 822 928 825 q 828 819 839 822 q 783 800 818 815 q 778 797 782 800 q 707 793 706 765 q 726 858 707 815 q 758 911 744 901 q 776 918 764 915 q 851 922 790 919 q 936 931 918 925 q 958 946 953 936 q 954 981 968 965 q 879 1007 935 1000 q 671 1015 851 1010 q 528 1021 543 1019 q 476 1018 504 1022 q 333 997 458 1017 q 224 968 254 985 q 200 939 199 956 q 203 928 200 933 q 265 900 221 896 q 343 918 289 903 q 357 922 347 919 q 410 936 392 932 q 451 935 429 940 q 481 908 474 929 q 494 858 483 903 q 510 801 506 814 q 514 774 515 783 q 501 765 513 765 q 465 774 500 765 q 422 782 431 782 m 663 911 q 653 883 663 906 q 631 842 644 861 q 610 828 618 822 q 594 847 603 832 q 581 878 586 861 q 578 908 576 896 q 589 932 578 928 q 633 928 606 936 q 663 911 661 921 m 810 467 q 761 437 796 450 q 703 424 726 424 q 667 521 649 426 q 683 572 672 557 q 724 588 693 586 q 809 547 774 588 q 810 467 844 506 m 549 439 q 503 461 526 435 q 475 515 481 488 q 535 581 463 576 q 568 548 557 582 q 574 478 579 514 q 549 439 568 443 m 567 126 q 807 110 753 124 q 833 99 826 104 q 844 85 840 94 q 847 66 847 76 q 842 47 846 56 q 763 -25 824 7 q 680 -43 728 -43 q 592 -32 632 -43 q 524 -3 551 -21 q 482 114 446 44 q 489 122 486 119 q 497 125 492 124 q 511 126 501 126 q 567 126 521 128 "},"償":{"ha":1361,"x_min":146,"x_max":1075,"o":"m 588 990 q 590 974 589 978 q 747 893 614 901 q 889 950 874 885 q 854 1024 899 996 q 676 1053 786 1065 q 608 1036 631 1049 q 588 990 586 1024 m 256 906 q 287 853 257 869 q 363 843 317 838 q 417 860 392 849 q 461 893 443 872 q 483 940 479 914 q 467 994 489 979 q 401 1003 444 1008 q 256 906 254 981 m 814 849 q 674 839 781 846 q 498 825 567 832 q 372 806 429 818 q 231 769 263 781 q 165 738 183 754 q 150 694 153 725 q 158 558 147 656 q 167 386 168 469 q 169 251 165 301 q 222 142 179 150 q 235 141 226 140 q 246 143 243 142 q 275 210 265 150 q 288 454 286 279 q 296 582 288 543 q 309 617 301 606 q 333 638 317 629 q 514 672 376 658 q 621 693 556 676 q 722 718 693 713 q 783 719 758 724 q 828 695 814 717 q 856 633 843 674 q 882 508 865 596 q 903 414 894 438 q 933 349 913 389 q 974 269 953 308 q 1008 218 996 231 q 1022 208 1017 210 q 1060 311 1075 199 q 1035 436 1053 358 q 1028 467 1031 456 q 1022 490 1025 478 q 1019 508 1019 503 q 1016 528 1018 514 q 1013 547 1014 542 q 1010 574 1013 553 q 1007 610 1008 596 q 982 760 996 714 q 960 808 972 790 q 814 849 924 858 m 674 614 q 664 610 668 613 q 656 606 660 608 q 649 600 653 604 q 642 594 644 596 q 635 585 640 592 q 626 576 629 579 q 594 547 604 553 q 567 540 579 540 q 538 547 554 540 q 509 561 521 554 q 483 576 497 568 q 461 588 468 585 q 415 588 431 599 q 397 536 404 579 q 365 378 386 472 q 326 274 351 311 q 293 167 300 232 q 301 38 286 103 q 358 -89 319 -35 q 451 -164 396 -143 q 499 -173 474 -171 q 546 -165 525 -175 q 567 -132 567 -156 q 546 -81 565 -111 q 503 -36 526 -50 q 465 -6 476 -21 q 468 19 453 10 q 568 39 488 29 q 640 50 606 43 l 650 53 q 658 54 656 54 q 761 43 760 76 q 726 -12 761 28 q 688 -79 688 -58 q 706 -112 686 -99 q 747 -121 726 -125 q 833 -61 788 -112 q 918 149 915 29 q 915 210 919 181 q 847 417 903 304 q 821 469 832 449 q 790 522 810 489 q 753 574 769 556 q 715 606 736 593 q 674 614 693 618 m 492 425 q 514 393 496 424 q 539 353 529 364 q 588 338 561 329 q 635 366 614 346 q 668 410 656 386 q 681 429 676 425 q 688 432 685 433 q 699 415 692 431 q 711 384 707 400 q 710 357 715 368 q 638 333 703 347 q 517 315 574 319 q 480 314 492 311 q 464 331 468 317 q 468 401 456 363 q 492 425 476 432 m 729 225 q 769 219 761 224 q 776 213 774 218 q 776 203 778 207 q 757 192 772 196 q 701 186 744 189 q 661 185 664 185 q 635 180 654 183 q 597 173 615 176 q 558 166 578 169 q 531 163 539 163 q 472 165 501 161 q 463 193 419 175 q 581 217 503 210 q 729 225 660 225 "},"允":{"ha":1361,"x_min":307,"x_max":743,"o":"m 368 242 q 417 275 378 242 q 451 301 436 292 q 479 313 465 310 q 503 304 493 315 q 518 268 513 293 q 494 194 528 221 q 436 167 482 186 q 403 150 413 157 q 348 67 372 128 q 314 -57 324 6 q 315 -105 308 -87 q 336 -118 321 -122 q 361 -86 344 -115 q 375 -67 369 -71 q 464 -44 399 -47 q 501 -50 490 -43 q 510 -79 507 -54 q 512 -93 511 -85 q 513 -107 513 -101 q 515 -121 514 -112 q 518 -134 517 -129 q 521 -146 519 -139 q 525 -157 522 -153 q 531 -165 528 -161 q 538 -169 533 -168 q 546 -171 542 -171 q 569 -149 565 -171 q 567 -99 572 -128 q 563 -60 563 -74 q 571 -37 563 -47 q 628 -8 579 -29 q 668 10 654 3 q 718 60 704 31 q 738 143 732 89 q 726 209 742 189 q 669 225 711 229 q 648 222 669 225 q 606 215 626 218 q 579 213 585 211 q 578 307 546 219 q 585 324 581 317 q 600 343 590 332 q 632 379 610 354 q 682 444 669 421 q 689 491 692 468 q 674 532 686 514 q 646 558 663 550 q 603 575 635 565 q 539 607 554 593 q 522 639 524 618 q 565 753 517 683 q 632 851 625 839 q 643 896 643 875 q 577 1005 643 969 q 425 1032 511 1040 q 396 1027 404 1029 q 379 1018 388 1025 q 371 999 371 1011 q 383 977 372 982 q 418 972 393 972 q 536 948 494 972 q 560 864 578 924 q 488 732 547 821 q 404 587 433 651 q 371 446 375 522 q 374 376 369 413 q 365 301 378 347 q 368 242 349 240 m 482 557 q 561 533 517 551 q 617 494 606 515 q 619 430 636 461 q 553 379 601 399 q 461 375 506 360 q 440 392 449 381 q 426 418 431 403 q 422 451 422 433 q 424 484 421 468 q 431 515 426 500 q 443 538 436 529 q 482 557 460 560 m 665 132 q 643 61 667 97 q 594 18 619 25 q 574 18 585 15 q 560 31 563 21 q 561 61 557 40 q 585 138 568 100 q 587 144 585 139 q 590 150 589 149 q 592 154 590 151 q 594 158 593 157 q 598 161 596 160 q 603 163 600 163 q 610 165 607 164 q 651 162 638 168 q 665 132 665 156 m 506 58 q 474 7 507 17 q 450 1 463 3 q 424 -1 438 -1 q 399 1 410 -1 q 383 13 389 4 q 381 32 378 21 q 414 88 388 58 q 460 124 440 117 q 492 108 479 131 q 506 58 504 86 "},"元":{"ha":1361,"x_min":197,"x_max":947,"o":"m 328 958 q 328 936 325 947 q 364 913 335 917 q 426 915 393 908 q 489 919 457 918 q 544 919 521 919 q 609 916 568 918 q 681 913 650 914 q 723 913 703 913 q 765 917 743 914 q 802 925 788 919 q 828 940 817 931 q 840 960 840 949 q 833 990 840 972 q 760 1006 822 1011 q 687 1001 708 1000 q 586 1011 665 1001 q 444 1022 482 1022 q 432 1022 435 1022 q 385 1014 407 1022 q 347 991 363 1006 q 328 958 332 976 m 678 -162 q 694 -157 690 -161 q 726 35 715 -133 q 729 106 731 90 l 729 118 l 724 138 q 716 197 715 188 q 725 264 717 206 q 733 363 735 331 q 721 434 732 393 q 695 508 710 475 q 668 553 681 540 q 629 575 657 564 q 585 642 588 592 q 599 687 585 669 q 639 707 613 704 q 663 707 647 708 q 682 705 678 706 q 703 701 686 704 q 733 697 721 699 q 874 686 829 683 q 926 702 906 689 q 942 740 946 715 q 869 786 935 772 q 728 796 803 800 q 619 792 646 792 q 546 796 574 792 q 508 796 531 799 q 408 789 481 792 q 380 788 399 789 q 354 787 361 788 q 332 785 347 786 q 311 784 317 785 q 294 782 306 783 q 276 779 282 781 q 261 776 269 778 q 246 770 253 774 q 232 764 239 767 q 214 717 199 744 q 242 695 222 701 q 290 689 263 689 q 353 689 318 689 q 367 689 363 689 q 449 688 435 692 q 485 638 483 679 q 472 581 486 610 q 415 483 460 553 q 353 379 364 403 q 324 301 339 349 q 317 258 314 272 q 342 250 326 242 q 378 279 358 258 q 418 343 408 313 q 458 415 426 375 q 467 426 461 419 q 494 465 488 454 q 503 496 500 476 q 508 519 504 514 q 525 531 511 524 q 580 527 554 544 q 619 482 606 510 q 644 369 636 453 q 649 266 649 326 q 649 133 650 206 q 647 32 647 60 l 649 7 l 646 -17 q 644 -29 644 -21 q 640 -74 640 -57 q 640 -115 639 -90 q 651 -151 642 -139 q 678 -162 660 -162 "}}}
